<svg
  xmlns="http://www.w3.org/2000/svg"
  fill="none"
  viewBox="0 0 49 49"
>
  <path
    fill="currentColor"
    d="M35.825 13.147a15.784 15.784 0 0 0-5.163-3.453 15.841 15.841 0 0 0-6.102-1.199c-8.773 0-15.923 7.116-15.931 15.852 0 2.798.735 5.52 2.123 7.93L8.5 40.495l8.446-2.204a15.995 15.995 0 0 0 7.614 1.93h.008c8.776 0 15.924-7.116 15.932-15.86a15.735 15.735 0 0 0-1.213-6.072 15.79 15.79 0 0 0-3.464-5.142h.002ZM24.56 37.537a13.25 13.25 0 0 1-6.742-1.84l-.482-.288-5.01 1.308 1.337-4.866-.313-.502a13.077 13.077 0 0 1-2.023-7.01c0-7.252 5.94-13.168 13.241-13.168 1.74-.003 3.462.337 5.07 1a13.182 13.182 0 0 1 4.292 2.862 13.11 13.11 0 0 1 2.873 4.275 13.064 13.064 0 0 1 1 5.045c-.007 7.278-5.948 13.184-13.243 13.184Zm7.263-9.868c-.396-.198-2.35-1.156-2.718-1.292-.366-.13-.633-.198-.894.198-.267.394-1.03 1.292-1.26 1.55-.229.266-.466.296-.864.1-.396-.2-1.68-.616-3.198-1.97-1.186-1.05-1.98-2.35-2.216-2.744-.23-.396-.022-.608.177-.806.174-.176.395-.464.594-.692.201-.228.267-.396.398-.66.13-.268.068-.496-.03-.694-.1-.198-.894-2.152-1.23-2.94-.321-.778-.649-.67-.894-.68-.229-.014-.496-.014-.763-.014a1.468 1.468 0 0 0-1.063.494c-.365.396-1.388 1.354-1.388 3.308 0 1.954 1.426 3.832 1.627 4.098.197.266 2.8 4.264 6.797 5.984.944.41 1.687.652 2.268.836.954.304 1.816.258 2.503.16.764-.116 2.353-.96 2.688-1.886.33-.928.33-1.72.23-1.886-.1-.168-.366-.266-.764-.464Z"
  ></path>
</svg>