<svg xmlns="http://www.w3.org/2000/svg" fill="none" viewBox="0 0 19 19">
	<path fill="currentColor" d="M15.807 3.112A8.835 8.835 0 0 0 9.499.495C4.586.495.582 4.498.578 9.412a8.95 8.95 0 0 0 1.189 4.46L.506 18.495l4.73-1.24a8.925 8.925 0 0 0 4.263 1.086h.005c4.914 0 8.916-4.003 8.92-8.921a8.885 8.885 0 0 0-2.618-6.308Zm-6.308 13.72a7.394 7.394 0 0 1-3.775-1.036l-.27-.162-2.806.736.75-2.737-.176-.282a7.38 7.38 0 0 1-1.133-3.944C2.089 5.328 5.415 2 9.504 2a7.38 7.38 0 0 1 5.242 2.173 7.376 7.376 0 0 1 2.17 5.242c-.005 4.094-3.332 7.416-7.417 7.416Zm4.067-5.552c-.222-.11-1.316-.65-1.522-.726-.205-.073-.355-.112-.5.111-.15.222-.578.727-.706.872-.128.15-.261.166-.484.056-.221-.112-.94-.346-1.79-1.108-.665-.59-1.109-1.322-1.242-1.543-.128-.223-.012-.342.1-.454.097-.099.22-.26.332-.389.113-.128.15-.223.223-.371.073-.151.038-.28-.017-.39-.056-.112-.5-1.211-.688-1.654-.18-.438-.364-.377-.501-.383-.128-.008-.278-.008-.428-.008a.82.82 0 0 0-.595.278c-.204.223-.777.762-.777 1.86 0 1.1.799 2.156.911 2.306.11.15 1.568 2.399 3.806 3.366.529.23.945.367 1.27.47.535.171 1.017.145 1.402.09.427-.065 1.317-.54 1.505-1.06.185-.523.185-.968.128-1.062-.055-.094-.204-.15-.427-.26Z"></path>
</svg>