<?xml version="1.0" encoding="UTF-8"?><svg xmlns="http://www.w3.org/2000/svg" xmlns:xlink="http://www.w3.org/1999/xlink" viewBox="0 0 441.11 305.75"><defs><style>.cls-1{fill:#88c1b8;}.cls-2{fill:#9dccc4;}.cls-3{fill:url(#linear-gradient-2);}.cls-4{fill:#c9e3df;}.cls-5{fill:#b4d8d2;}.cls-6{fill:#8cc3ba;}.cls-7,.cls-8{opacity:.7;}.cls-9,.cls-10,.cls-11{fill:#cfe6e2;}.cls-12,.cls-13,.cls-14,.cls-15,.cls-16{fill:#fff;}.cls-17{fill:#b6d9d3;}.cls-18{fill:url(#linear-gradient-17);}.cls-19{fill:#a1cec7;}.cls-20{fill:#98c9c1;}.cls-21{fill:#91c6bd;}.cls-22,.cls-8{fill:#ebdef3;}.cls-22,.cls-23{opacity:.5;}.cls-24{fill:#a5d0c9;}.cls-10,.cls-14{opacity:.8;}.cls-25{fill:url(#linear-gradient-43);}.cls-26,.cls-27{fill:#56a69a;}.cls-28{opacity:.2;}.cls-29{fill:#e5d4ef;}.cls-30{opacity:.18;}.cls-31{fill:#96c8c0;}.cls-32{fill:url(#linear-gradient-15);}.cls-33{opacity:.45;}.cls-34{fill:#aed5cf;}.cls-35{fill:#9ccbc4;}.cls-13{opacity:.4;}.cls-36{fill:url(#linear-gradient-18);}.cls-37{fill:#add5ce;}.cls-38{fill:url(#linear-gradient-40);}.cls-39{fill:#b1d7d1;}.cls-40{fill:#a2cec7;}.cls-41{fill:url(#linear-gradient-28);}.cls-42{fill:#beddd8;}.cls-43{fill:#badbd6;}.cls-44{fill:url(#linear-gradient-14);}.cls-45{fill:url(#linear-gradient-36);}.cls-46{fill:url(#linear-gradient-20);}.cls-47{fill:url(#linear-gradient-6);}.cls-48{fill:#cee5e1;}.cls-49{fill:#afd6cf;}.cls-50{isolation:isolate;}.cls-51{opacity:.02;}.cls-52,.cls-15{opacity:.2;}.cls-53{opacity:.22;}.cls-54{opacity:.91;}.cls-55{fill:#cae3df;}.cls-56{fill:#a0cdc6;}.cls-57{opacity:0;}.cls-58{opacity:.36;}.cls-59{fill:#a7d1ca;}.cls-60{fill:#bcdcd7;}.cls-61{fill:url(#linear-gradient-35);}.cls-62{fill:#c1dfda;}.cls-63{fill:#0d806e;}.cls-64{fill:url(#linear-gradient-32);}.cls-65{fill:#9bcbc3;}.cls-66{fill:#97c9c1;}.cls-67{fill:#c5e1dc;}.cls-68{opacity:.17;}.cls-69{fill:#b2d7d1;}.cls-70{fill:#c6e1dd;}.cls-71{fill:#c7e2dd;}.cls-72{fill:#cbe4e0;}.cls-73{fill:#93c7bf;}.cls-74{fill:url(#linear-gradient-11);}.cls-75{fill:#258d7d;}.cls-76{fill:#9acac3;}.cls-77{fill:#a4cfc8;}.cls-78{fill:#231f20;mix-blend-mode:color-dodge;}.cls-79{fill:#a3cfc8;}.cls-80{opacity:.64;}.cls-81{fill:#c8e2de;}.cls-82{fill:#b9dbd5;}.cls-83{fill:url(#linear-gradient-39);}.cls-84{fill:#94c7bf;}.cls-85{fill:url(#linear-gradient-10);}.cls-86{fill:#8dc4bb;}.cls-87{fill:#0c7363;}.cls-88{opacity:.25;}.cls-89{opacity:.15;}.cls-90{fill:#92c6be;}.cls-91{fill:#a9d2cb;}.cls-92{fill:#87c1b8;}.cls-93{fill:#8ac2b9;}.cls-94{fill:#074037;}.cls-95{fill:url(#linear-gradient-37);}.cls-96{fill:#8fc5bc;}.cls-97{fill:url(#linear-gradient-16);}.cls-98{opacity:.3;}.cls-99{fill:url(#linear-gradient-31);}.cls-100{fill:#9eccc5;}.cls-101{fill:#8bc3ba;}.cls-102{fill:#b8dad5;}.cls-103{fill:url(#linear-gradient-41);}.cls-104{fill:#a6d0ca;}.cls-105{fill:#cce4e0;}.cls-27,.cls-106,.cls-107,.cls-11,.cls-108{mix-blend-mode:multiply;}.cls-109{fill:#b7dad4;}.cls-110{fill:url(#linear-gradient-21);}.cls-111{opacity:.73;}.cls-106{fill:#d1b4e3;}.cls-112{fill:#abd4cd;}.cls-113{opacity:.82;}.cls-114{fill:url(#linear-gradient-25);}.cls-115{fill:url(#linear-gradient-5);}.cls-116{fill:#8ec4bc;}.cls-117{fill:url(#linear-gradient-45);}.cls-118{opacity:.1;}.cls-119{fill:#89c2b9;}.cls-120{fill:#095a4d;}.cls-121{fill:#9fcdc6;}.cls-122{fill:#c0ded9;}.cls-123{fill:url(#linear-gradient-34);}.cls-124{fill:#b0d6d0;}.cls-125{opacity:.07;}.cls-126{fill:#c3e0db;}.cls-127{fill:#acd4ce;}.cls-128{fill:url(#linear-gradient-7);}.cls-129{fill:#c2dfda;}.cls-130{opacity:.27;}.cls-131{fill:#95c8c0;}.cls-132{fill:#bfded9;}.cls-133{opacity:.27;}.cls-134{fill:#b6d9d4;}.cls-135{fill:#cde5e1;}.cls-107{fill:url(#linear-gradient-46);}.cls-136{fill:url(#linear-gradient-24);}.cls-137{opacity:.12;}.cls-138{fill:url(#linear-gradient-9);}.cls-139{fill:url(#linear-gradient-22);}.cls-140{opacity:.15;}.cls-141{fill:url(#linear-gradient-42);}.cls-142{fill:url(#linear-gradient-3);}.cls-16{opacity:.6;}.cls-143{fill:#b5d9d3;}.cls-144{fill:#86c0b7;}.cls-145{fill:url(#linear-gradient);}.cls-146{fill:#b3d8d2;}.cls-147{fill:#c4e0dc;}.cls-148{fill:url(#linear-gradient-27);}.cls-149{fill:#bbdcd6;}.cls-150{fill:#bdddd8;}.cls-151{fill:#99cac2;}.cls-152{fill:url(#linear-gradient-33);}.cls-153{opacity:.55;}.cls-154{fill:url(#linear-gradient-38);}.cls-155{fill:url(#linear-gradient-29);}.cls-156{fill:url(#linear-gradient-30);}.cls-157{opacity:.1;}.cls-158{fill:#a8d1cb;}.cls-159{opacity:.09;}.cls-160{fill:url(#linear-gradient-23);}.cls-161{fill:url(#linear-gradient-19);}.cls-162{fill:url(#linear-gradient-4);}.cls-23{mix-blend-mode:screen;}.cls-163{fill:#abd3cd;}.cls-164{opacity:.05;}.cls-165{fill:#aad2cc;}.cls-166{fill:#90c5bd;}.cls-167{fill:url(#linear-gradient-8);}.cls-168{fill:url(#linear-gradient-44);}.cls-169{fill:url(#linear-gradient-47);}.cls-170{fill:url(#linear-gradient-12);}.cls-171{fill:url(#linear-gradient-13);}.cls-172{fill:url(#linear-gradient-26);}</style><linearGradient id="linear-gradient" x1="285.65" y1="174.02" x2="285.65" y2="224.01" gradientUnits="userSpaceOnUse"><stop offset="0" stop-color="#258d7d"/><stop offset="1" stop-color="#258d7d"/></linearGradient><linearGradient id="linear-gradient-2" x1="284.37" y1="169.46" x2="280.6" y2="227.3" gradientUnits="userSpaceOnUse"><stop offset="0" stop-color="#258b7c"/><stop offset="0" stop-color="#258d7d"/><stop offset="1" stop-color="#248b7b"/></linearGradient><linearGradient id="linear-gradient-3" x1="283.72" y1="164.4" x2="275.13" y2="230.11" gradientUnits="userSpaceOnUse"><stop offset="0" stop-color="#24897b"/><stop offset="0" stop-color="#258d7d"/><stop offset="1" stop-color="#228878"/></linearGradient><linearGradient id="linear-gradient-4" x1="283.8" y1="158.96" x2="269.3" y2="232.35" gradientUnits="userSpaceOnUse"><stop offset="0" stop-color="#24867b"/><stop offset="0" stop-color="#258d7d"/><stop offset="1" stop-color="#218676"/></linearGradient><linearGradient id="linear-gradient-5" x1="284.66" y1="153.26" x2="263.18" y2="233.98" gradientUnits="userSpaceOnUse"><stop offset="0" stop-color="#24847a"/><stop offset="0" stop-color="#258d7d"/><stop offset="1" stop-color="#208374"/></linearGradient><linearGradient id="linear-gradient-6" x1="286.35" y1="147.43" x2="256.84" y2="234.94" gradientUnits="userSpaceOnUse"><stop offset="0" stop-color="#238279"/><stop offset="0" stop-color="#258d7d"/><stop offset="1" stop-color="#1e8172"/></linearGradient><linearGradient id="linear-gradient-7" x1="288.87" y1="141.61" x2="250.38" y2="235.2" gradientUnits="userSpaceOnUse"><stop offset="0" stop-color="#238078"/><stop offset="0" stop-color="#258d7d"/><stop offset="1" stop-color="#1d7e6f"/></linearGradient><linearGradient id="linear-gradient-8" x1="292.22" y1="135.96" x2="243.88" y2="234.72" gradientUnits="userSpaceOnUse"><stop offset="0" stop-color="#237e78"/><stop offset="0" stop-color="#258d7d"/><stop offset=".92" stop-color="#1c7d6e"/><stop offset="1" stop-color="#1c7c6d"/></linearGradient><linearGradient id="linear-gradient-9" x1="296.61" y1="130.21" x2="237.44" y2="233.48" gradientUnits="userSpaceOnUse"><stop offset="0" stop-color="#227b77"/><stop offset="0" stop-color="#258d7d"/><stop offset=".84" stop-color="#1c7d6e"/><stop offset="1" stop-color="#1a7a6b"/></linearGradient><linearGradient id="linear-gradient-10" x1="302.5" y1="123.88" x2="228.44" y2="235.62" gradientUnits="userSpaceOnUse"><stop offset="0" stop-color="#227976"/><stop offset="0" stop-color="#258d7d"/><stop offset=".74" stop-color="#1c7d6e"/><stop offset="1" stop-color="#197768"/></linearGradient><linearGradient id="linear-gradient-11" x1="309.53" y1="117.86" x2="218.96" y2="236.93" gradientUnits="userSpaceOnUse"><stop offset="0" stop-color="#227775"/><stop offset="0" stop-color="#258d7d"/><stop offset=".69" stop-color="#1c7d6e"/><stop offset="1" stop-color="#187566"/></linearGradient><linearGradient id="linear-gradient-12" x1="317.74" y1="112.29" x2="209.27" y2="237.12" gradientUnits="userSpaceOnUse"><stop offset="0" stop-color="#217575"/><stop offset="0" stop-color="#258d7d"/><stop offset=".63" stop-color="#1c7d6e"/><stop offset="1" stop-color="#167264"/></linearGradient><linearGradient id="linear-gradient-13" x1="327.05" y1="107.38" x2="199.54" y2="236.17" gradientUnits="userSpaceOnUse"><stop offset="0" stop-color="#217374"/><stop offset="0" stop-color="#258d7d"/><stop offset=".59" stop-color="#1c7d6e"/><stop offset="1" stop-color="#157062"/></linearGradient><linearGradient id="linear-gradient-14" x1="337.34" y1="103.34" x2="189.9" y2="234.06" gradientUnits="userSpaceOnUse"><stop offset="0" stop-color="#217173"/><stop offset="0" stop-color="#248a7b"/><stop offset="0" stop-color="#258d7d"/><stop offset=".54" stop-color="#1c7d6e"/><stop offset="1" stop-color="#146d5f"/></linearGradient><linearGradient id="linear-gradient-15" x1="348.48" y1="100.34" x2="180.5" y2="230.79" gradientUnits="userSpaceOnUse"><stop offset="0" stop-color="#206e72"/><stop offset="0" stop-color="#23857a"/><stop offset="0" stop-color="#258d7d"/><stop offset=".52" stop-color="#1c7d6e"/><stop offset="1" stop-color="#126b5d"/></linearGradient><linearGradient id="linear-gradient-16" x1="360.28" y1="98.53" x2="171.51" y2="226.38" gradientUnits="userSpaceOnUse"><stop offset="0" stop-color="#206c72"/><stop offset="0" stop-color="#238179"/><stop offset="0" stop-color="#258d7d"/><stop offset=".49" stop-color="#1c7d6e"/><stop offset="1" stop-color="#11695b"/></linearGradient><linearGradient id="linear-gradient-17" x1="372.53" y1="98.03" x2="163.03" y2="220.85" gradientUnits="userSpaceOnUse"><stop offset="0" stop-color="#206a71"/><stop offset="0" stop-color="#227e77"/><stop offset="0" stop-color="#258d7d"/><stop offset=".46" stop-color="#1c7d6e"/><stop offset="1" stop-color="#106658"/></linearGradient><linearGradient id="linear-gradient-18" x1="385" y1="98.88" x2="155.22" y2="214.22" gradientUnits="userSpaceOnUse"><stop offset="0" stop-color="#1f6870"/><stop offset="0" stop-color="#227b76"/><stop offset="0" stop-color="#258d7d"/><stop offset=".44" stop-color="#1c7d6e"/><stop offset="1" stop-color="#0e6456"/></linearGradient><linearGradient id="linear-gradient-19" x1="397.49" y1="101.22" x2="148.24" y2="206.66" gradientUnits="userSpaceOnUse"><stop offset="0" stop-color="#1f666f"/><stop offset="0" stop-color="#217775"/><stop offset="0" stop-color="#258d7d"/><stop offset=".42" stop-color="#1c7d6e"/><stop offset="1" stop-color="#0d6154"/></linearGradient><linearGradient id="linear-gradient-20" x1="409.78" y1="105.08" x2="142.22" y2="198.27" gradientUnits="userSpaceOnUse"><stop offset="0" stop-color="#1f636f"/><stop offset="0" stop-color="#217474"/><stop offset="0" stop-color="#258d7d"/><stop offset=".4" stop-color="#1c7d6e"/><stop offset="1" stop-color="#0c5f52"/></linearGradient><linearGradient id="linear-gradient-21" x1="421.62" y1="110.44" x2="137.28" y2="189.18" gradientUnits="userSpaceOnUse"><stop offset="0" stop-color="#1e616e"/><stop offset="0" stop-color="#207173"/><stop offset="0" stop-color="#258d7d"/><stop offset=".38" stop-color="#1c7d6e"/><stop offset="1" stop-color="#0a5c4f"/></linearGradient><linearGradient id="linear-gradient-22" x1="432.75" y1="117.27" x2="133.5" y2="179.52" gradientUnits="userSpaceOnUse"><stop offset="0" stop-color="#1e5f6d"/><stop offset="0" stop-color="#206e72"/><stop offset="0" stop-color="#258d7d"/><stop offset=".37" stop-color="#1c7d6e"/><stop offset="1" stop-color="#095a4d"/></linearGradient><linearGradient id="linear-gradient-23" x1="138.74" y1="147.96" x2="432.56" y2="147.96" gradientUnits="userSpaceOnUse"><stop offset="0" stop-color="#86c0b7"/><stop offset=".21" stop-color="#76b7ad"/><stop offset=".62" stop-color="#4ea295"/><stop offset=".98" stop-color="#258d7d"/></linearGradient><linearGradient id="linear-gradient-24" x1="138.74" y1="147.66" x2="432.54" y2="147.66" gradientUnits="userSpaceOnUse"><stop offset="0" stop-color="#88c1b8"/><stop offset=".22" stop-color="#78b8ae"/><stop offset=".65" stop-color="#50a496"/><stop offset=".98" stop-color="#2c9181"/></linearGradient><linearGradient id="linear-gradient-25" x1="138.74" y1="147.35" x2="432.53" y2="147.35" gradientUnits="userSpaceOnUse"><stop offset="0" stop-color="#8bc2ba"/><stop offset=".23" stop-color="#7bb9b0"/><stop offset=".67" stop-color="#53a498"/><stop offset=".98" stop-color="#339485"/></linearGradient><linearGradient id="linear-gradient-26" x1="138.75" y1="147.05" x2="432.53" y2="147.05" gradientUnits="userSpaceOnUse"><stop offset="0" stop-color="#8dc4bb"/><stop offset=".24" stop-color="#7dbbb1"/><stop offset=".7" stop-color="#55a699"/><stop offset=".98" stop-color="#3a9889"/></linearGradient><linearGradient id="linear-gradient-27" x1="138.75" y1="146.75" x2="432.52" y2="146.75" gradientUnits="userSpaceOnUse"><stop offset="0" stop-color="#8fc5bd"/><stop offset=".25" stop-color="#7fbcb3"/><stop offset=".74" stop-color="#57a79b"/><stop offset=".98" stop-color="#419b8e"/></linearGradient><linearGradient id="linear-gradient-28" x1="138.75" y1="146.45" x2="432.52" y2="146.45" gradientUnits="userSpaceOnUse"><stop offset="0" stop-color="#91c6be"/><stop offset=".27" stop-color="#81bdb4"/><stop offset=".78" stop-color="#59a89c"/><stop offset=".98" stop-color="#489f92"/></linearGradient><linearGradient id="linear-gradient-29" x1="138.75" y1="146.15" x2="432.51" y2="146.15" gradientUnits="userSpaceOnUse"><stop offset="0" stop-color="#94c7bf"/><stop offset=".28" stop-color="#84bfb5"/><stop offset=".81" stop-color="#5caa9e"/><stop offset=".98" stop-color="#4ea396"/></linearGradient><linearGradient id="linear-gradient-30" x1="138.75" y1="145.85" x2="432.51" y2="145.85" gradientUnits="userSpaceOnUse"><stop offset="0" stop-color="#96c8c1"/><stop offset=".29" stop-color="#86bfb7"/><stop offset=".86" stop-color="#5eaa9f"/><stop offset=".98" stop-color="#55a69a"/></linearGradient><linearGradient id="linear-gradient-31" x1="138.75" y1="145.54" x2="432.5" y2="145.54" gradientUnits="userSpaceOnUse"><stop offset="0" stop-color="#98cac2"/><stop offset=".32" stop-color="#88c1b8"/><stop offset=".92" stop-color="#60aca0"/><stop offset=".98" stop-color="#5caa9e"/></linearGradient><linearGradient id="linear-gradient-32" x1="138.75" y1="145.24" x2="432.5" y2="145.24" gradientUnits="userSpaceOnUse"><stop offset="0" stop-color="#9bcbc3"/><stop offset=".33" stop-color="#8bc3b9"/><stop offset=".98" stop-color="#63aea2"/><stop offset=".98" stop-color="#63aea2"/></linearGradient><linearGradient id="linear-gradient-33" x1="138.75" y1="144.94" x2="432.5" y2="144.94" gradientUnits="userSpaceOnUse"><stop offset="0" stop-color="#9dccc5"/><stop offset=".36" stop-color="#8dc3bb"/><stop offset=".98" stop-color="#6ab1a6"/></linearGradient><linearGradient id="linear-gradient-34" x1="138.75" y1="144.64" x2="432.5" y2="144.64" gradientUnits="userSpaceOnUse"><stop offset="0" stop-color="#9fcdc6"/><stop offset=".39" stop-color="#8fc4bc"/><stop offset=".98" stop-color="#71b5ab"/></linearGradient><linearGradient id="linear-gradient-35" x1="138.75" y1="144.34" x2="432.5" y2="144.34" gradientUnits="userSpaceOnUse"><stop offset="0" stop-color="#a1cec8"/><stop offset=".43" stop-color="#91c5be"/><stop offset=".98" stop-color="#78b8af"/></linearGradient><linearGradient id="linear-gradient-36" x1="138.75" y1="144.04" x2="432.5" y2="144.04" gradientUnits="userSpaceOnUse"><stop offset="0" stop-color="#a4cfc9"/><stop offset=".47" stop-color="#94c7bf"/><stop offset=".98" stop-color="#7fbcb3"/></linearGradient><linearGradient id="linear-gradient-37" x1="138.75" y1="143.74" x2="432.51" y2="143.74" gradientUnits="userSpaceOnUse"><stop offset="0" stop-color="#a6d1ca"/><stop offset=".53" stop-color="#96c8c0"/><stop offset=".98" stop-color="#86c0b7"/></linearGradient><linearGradient id="linear-gradient-38" x1="138.75" y1="143.43" x2="432.51" y2="143.43" gradientUnits="userSpaceOnUse"><stop offset="0" stop-color="#a8d2cc"/><stop offset=".61" stop-color="#98c9c2"/><stop offset=".98" stop-color="#8dc3bb"/></linearGradient><linearGradient id="linear-gradient-39" x1="138.75" y1="143.13" x2="432.51" y2="143.13" gradientUnits="userSpaceOnUse"><stop offset="0" stop-color="#abd3cd"/><stop offset=".68" stop-color="#9bcbc4"/><stop offset=".98" stop-color="#93c7bf"/></linearGradient><linearGradient id="linear-gradient-40" x1="138.75" y1="142.83" x2="432.52" y2="142.83" gradientUnits="userSpaceOnUse"><stop offset="0" stop-color="#add4ce"/><stop offset=".82" stop-color="#9dccc5"/><stop offset=".98" stop-color="#9acbc3"/></linearGradient><linearGradient id="linear-gradient-41" x1="138.75" y1="142.53" x2="432.53" y2="142.53" gradientUnits="userSpaceOnUse"><stop offset="0" stop-color="#afd5d0"/><stop offset=".98" stop-color="#a1cec8"/></linearGradient><linearGradient id="linear-gradient-42" x1="138.75" y1="142.23" x2="432.54" y2="142.23" gradientUnits="userSpaceOnUse"><stop offset="0" stop-color="#b1d7d1"/><stop offset=".98" stop-color="#a8d2cc"/></linearGradient><linearGradient id="linear-gradient-43" x1="138.74" y1="141.93" x2="432.55" y2="141.93" gradientUnits="userSpaceOnUse"><stop offset="0" stop-color="#b4d8d3"/><stop offset=".98" stop-color="#afd5d0"/></linearGradient><linearGradient id="linear-gradient-44" x1="396.47" y1="147.64" x2="392.72" y2="139.39" gradientUnits="userSpaceOnUse"><stop offset="0" stop-color="#175261"/><stop offset=".04" stop-color="#185362"/><stop offset=".5" stop-color="#256270"/><stop offset=".98" stop-color="#387785"/><stop offset="1" stop-color="#397886"/></linearGradient><linearGradient id="linear-gradient-45" x1="381.9" y1="160.03" x2="376.53" y2="146.78" xlink:href="#linear-gradient-44"/><linearGradient id="linear-gradient-46" x1="332.64" y1="66.48" x2="192.5" y2="286.19" gradientUnits="userSpaceOnUse"><stop offset="0" stop-color="#fff"/><stop offset="1" stop-color="#e5d4ef"/></linearGradient><linearGradient id="linear-gradient-47" x1="238.65" y1="144.73" x2="240.03" y2="147.13" gradientUnits="userSpaceOnUse"><stop offset=".04" stop-color="#6b24d6"/><stop offset=".32" stop-color="#7a1bd0"/><stop offset=".86" stop-color="#a205c0"/><stop offset=".98" stop-color="#ad00bd"/></linearGradient></defs><g class="cls-50"><g id="Layer_2"><g id="Layer_1-2"><g class="cls-23"><polygon class="cls-94" points="369.66 42.05 337.73 23.62 339.8 22.42 371.73 40.86 369.66 42.05"/><path class="cls-94" d="M348.23,50.03l4.23,2.44,2.1-1.21-4.23-2.44-2.1,1.21Zm11.35,9.73l-2.6-1.5-2.1,1.21,2.6,1.5,2.1-1.21Zm2.36-4.24l-5.64-3.26-2.1,1.21,5.64,3.26,2.1-1.21Zm12.97,7.7l-11.24-6.7-2.1,1.21,11.24,6.7,2.1-1.21Zm-17.14,1.09l-9.11-5.26-2.1,1.21,9.11,5.26,2.1-1.21Zm-10.85-6.26l-5.64-3.26-2.1,1.21,5.64,3.26,2.1-1.21Zm-5.49-6.35l11.71,6.76,2.1-1.21-11.71-6.76-2.1,1.21Zm8.56,13.72l-11.71-6.76-2.1,1.21,11.71,6.76,2.1-1.21Zm20.33,.54l-9-5.2-2.1,1.21,9,5.2,2.1-1.21Zm-6.14,2.05l-4.68-2.69-2.1,1.21,4.68,2.69,2.1-1.21Zm-15.58-20.19l-4.08-2.36-2.1,1.21,4.08,2.36,2.1-1.21Zm-12.06,9.84l-6.57-3.8-2.1,1.21,6.57,3.8,2.1-1.21Zm3.01-3.86l-4.73-2.73-2.1,1.21,4.73,2.73,2.1-1.21Zm2.25-4.3l-2.13-1.23-2.1,1.21,2.13,1.23,2.1-1.21Z"/><path class="cls-94" d="M339.07,40.39l-30.24,17.46-30.18-17.43,30.24-17.46,30.18,17.43h0Zm2.26,0l-32.45-18.73-32.49,18.76,32.45,18.73,32.49-18.76h0Z"/><path class="cls-94" d="M406.65,47.94L327.54,2.27c-5.21-3.01-13.66-3.02-18.84-.03l-127.39,73.55,.75,.44L309.46,2.67c4.76-2.75,12.54-2.74,17.33,.03l79.11,45.67c4.79,2.77,4.82,7.26,.05,10l-128.17,74,.75,.44L406.7,58.81c5.18-2.99,5.15-7.87-.06-10.88Z"/></g><path class="cls-26" d="M171.02,91.25l-6.44-3.72-4.83,2.79,11.3,6.53,11.23-6.48-4.86-2.81-6.4,3.7Zm-.04-7.41l-5.17,2.99,5.21,3.01,5.17-2.99-5.21-3.01Zm0-1.41l12.53,7.23,5.44-3.14-18-10.39-17.89,10.33,5.47,3.16,12.45-7.19Zm-79.21,42.12l223.23,128.88-85.2-79.69L91.76,124.55Zm277.32,97.65L145.86,93.32l85.2,79.69,138.03,49.19Zm-50.8,32.41l52.83-30.5-138.03-49.19,85.2,79.69ZM143.19,91.78h0s0,0,0,0h0Zm-.63,.36l-52.83,30.5,138.03,49.19-85.2-79.69Zm-53.46,30.87h0s0,0,0,0h0Zm90.82,67.22h0s0,0,0,0h0Zm123.39,71.24l-121.84-70.35,34.54,50.4,87.3,19.94Zm-176.82-40.39l87.3,19.94-34.54-50.4-52.76,30.46Zm-.67,.39h0s0,0,0,0h0Zm1.55,.89l121.84,70.34-34.54-50.4-87.3-19.94Zm124.06,70.85l52.76-30.46-87.3-19.94,34.54,50.4ZM165.26,66.07L0,161.48l249.89,144.27,165.26-95.41L165.26,66.07Zm220.33,160.38L137.68,83.32l-.82,.47,247.91,143.13-134.89,77.88L1.64,161.49,165.26,67.02l248.24,143.32-27.91,16.11ZM70.28,134.29l16.55,9.56,3.46-2-16.55-9.56-3.46,2Zm86.85,42.75l3.46-2-4.74-2.73-3.46,2,4.74,2.73Zm-57-29.52l-6.97-4.02-3.46,2,6.97,4.02,3.46-2Zm-9.75-9.02l19.3,11.14,3.46-2-19.3-11.14-3.46,2Zm-13.69-7.91l10.83,6.26,3.46-2-10.83-6.26-3.46,2Zm34.99,27.6l17.69,10.22,3.46-2-17.69-10.22-3.46,2Zm11.48-4.77l-3.46,2,14.83,8.56,3.46-2-14.83-8.56Zm12.54,14.63l-3.46,2,4.65,2.68,3.46-2-4.65-2.68Zm-15.4-16.29l-4.29-2.48-3.46,2,4.29,2.48,3.46-2Zm-20.77-.6l9.29,5.37,3.46-2-9.29-5.37-3.46,2Zm53.48,19.48l-12.15-7.02-3.46,2,12.15,7.02,3.46-2Zm6.99,8.04l15.64,9.03,3.46-2-15.64-9.03-3.46,2Zm-20.25-4.3l12.69,7.33,3.46-2-12.69-7.33-3.46,2Zm237.62,27.25l-11.04-6.38-6.64,3.83,11.04,6.38,6.64-3.83Zm-34.46-19.89l-12.49-7.21-6.64,3.83,12.49,7.21,6.64-3.83Zm20.55,11.87l-17.69-10.22-6.64,3.83,17.69,10.22,6.64-3.83Zm-52.13-30.1l-16.55-9.56-6.64,3.83,16.55,9.56,6.64-3.83Zm81.58,47.1l-12.69-7.33-6.64,3.83,12.69,7.33,6.64-3.83Zm-65.36-37.73l-13.37-7.72-6.64,3.83,13.37,7.72,6.64-3.83Zm-255.57-13.57l-2.94-1.7-2.38,1.37,2.94,1.7,2.38-1.37Zm-19.41-14.8l4.61,2.66,2.38-1.37-4.61-2.66-2.38,1.37Zm5.48-3.17l7.56,4.36,2.38-1.37-7.56-4.36-2.38,1.37Zm-10.97,6.33l2.41,1.39,2.38-1.37-2.41-1.39-2.38,1.37Zm41.66,14.98l-12.14-7.01-2.38,1.37,12.14,7.01,2.38-1.37Zm-14.1-8.14l-6.38-3.68-2.38,1.37,6.38,3.68,2.38-1.37Zm16.67,31.37l2.38-1.37-3.25-1.88-2.38,1.37,3.25,1.88Zm-6.16-31.63l-2.38,1.37,2.94,1.7,2.38-1.37-2.94-1.7Zm23.28,32.44l-15.33-8.85-2.38,1.37,15.33,8.85,2.38-1.37Zm-49.29-38.38l4.78,2.76,2.38-1.37-4.78-2.76-2.38,1.37Zm-7.69,1.89l13.24,7.65,2.38-1.37-13.24-7.65-2.38,1.37Zm16.12-3.36l13.24,7.65,2.38-1.37-13.24-7.65-2.38,1.37Zm48.32,27.9l10.18,5.88,2.38-1.37-10.18-5.88-2.38,1.37Zm-65.19-5.98l6.38,3.68,2.38-1.37-6.38-3.68-2.38,1.37Zm29.78,1.78l-8.58-4.96-2.38,1.37,8.58,4.96,2.38-1.37Zm-19.76-2.33l2.94,1.7,2.38-1.37-2.94-1.7-2.38,1.37Zm-1.68,5.36l12.14,7.01,2.38-1.37-12.14-7.01-2.38,1.37Zm-15.08-8.71l4.78,2.76,2.38-1.37-4.78-2.76-2.38,1.37Zm92.15,25.13l-20.68-11.94-2.38,1.37,20.68,11.94,2.38-1.37Zm-47.62-8.5l-8.34-4.81-2.38,1.37,8.34,4.81,2.38-1.37Zm-57.85-24.32l11.36,6.56,2.38-1.37-11.36-6.56-2.38,1.37Zm77.57,32.12l14.73,8.51,2.38-1.37-14.74-8.51-2.38,1.37Zm11.25,.16l8.97,5.18,2.38-1.37-8.97-5.18-2.38,1.37Zm.83-2.27l-7.83-4.52-2.38,1.37,7.83,4.52,2.38-1.37Zm-47.14-5.48l3.19,1.84,2.38-1.37-3.19-1.84-2.38,1.37Zm54.89,.03l11.36,6.56,2.38-1.37-11.36-6.56-2.38,1.37Zm-49.74,2.95l8.71,5.03,2.38-1.37-8.71-5.03-2.38,1.37Zm27.68,9.65l11.36,6.56,2.38-1.37-11.36-6.56-2.38,1.37Zm-12.69-7.33l10.73,6.2,2.38-1.37-10.73-6.2-2.38,1.37Zm-51.68-36.17l5.35,3.09,2.38-1.37-5.35-3.09-2.38,1.37Zm58.64,12.11l-10.18-5.88-2.38,1.37,10.18,5.88,2.38-1.37Zm-16.12,3.36l-10.18-5.88-2.38,1.37,10.18,5.88,2.38-1.37Zm13.33,1.37l-6.74-3.89-2.38,1.37,6.74,3.89,2.38-1.37Zm-27.52-3.23l-10.3-5.95-2.38,1.37,10.3,5.95,2.38-1.37Zm38.19,9.39l-8.71-5.03-2.38,1.37,8.71,5.03,2.38-1.37Zm-72.01-19.83l7.43,4.29,2.38-1.37-7.43-4.29-2.38,1.37Zm21.55,3.36l-6.38-3.68-2.38,1.37,6.38,3.68,2.38-1.37Zm3.47,8.33l-13.24-7.65-2.38,1.37,13.24,7.65,2.38-1.37Zm49.41,3.19l-8.34-4.81-2.38,1.37,8.34,4.81,2.38-1.37Zm-16.12,3.36l-8.34-4.81-2.38,1.37,8.34,4.81,2.38-1.37Zm-3.28,4.44l-8.71-5.03-2.38,1.37,8.71,5.03,2.38-1.37Zm-25.52-5.66l10.18,5.88,2.38-1.37-10.18-5.88-2.38,1.37Zm44.86,10.49l-8.34-4.81-2.38,1.37,8.34,4.81,2.38-1.37Zm-10.3-5.95l-3.8-2.19-2.38,1.37,3.8,2.19,2.38-1.37Zm7.52,.75l3.73,2.15,2.38-1.37-3.73-2.15-2.38,1.37Zm2.42-4.94l3.8,2.19,2.38-1.37-3.8-2.19-2.38,1.37Z"/><g><g class="cls-52"><path class="cls-57" d="M237.14,263.1c5.01,0,9.56-1.1,13.15-3.17l183.27-105.49c4.8-2.77,7.55-7.15,7.55-12.02,0-5.34-3.31-10.31-9.09-13.65l-79.05-45.64c-4.54-2.62-10.21-4.06-15.97-4.06-5.01,0-9.56,1.1-13.15,3.17l-183.27,105.49c-4.8,2.77-7.55,7.15-7.55,12.02,0,5.34,3.31,10.31,9.09,13.65l79.05,45.64c4.54,2.62,10.21,4.06,15.97,4.06Z"/><path class="cls-159" d="M323.99,82.55l-183.27,105.49c-4.61,2.66-7.22,6.84-7.2,11.47,.02,5.06,3.19,9.79,8.74,12.99l75.5,43.59c.12,.07,3.81,2.18,3.95,2.22,4.65,2.54,10.44,3.83,16.08,3.6,4.56,0,9.7-1.58,12.97-3.46l182.26-104.91c4.61-2.66,7.22-6.84,7.2-11.47-.02-5.06-3.19-9.79-8.74-12.99l-78.58-45.37c-1.64-.95-3.92-1.98-5.82-2.59-3.14-1.01-6.54-1.6-9.99-1.63-4.97-.05-9.53,1.01-13.09,3.06Z"/><path class="cls-30" d="M324.14,82.87l-183.27,105.49c-4.42,2.55-6.89,6.53-6.84,10.92,.05,4.78,3.08,9.27,8.39,12.34l75.85,43.79c.24,.14,3.71,2.1,3.99,2.19,4.77,2.47,10.67,3.6,16.18,3.14,4.1,0,9.84-2.06,12.78-3.76l181.25-104.33c4.42-2.55,6.89-6.53,6.84-10.92-.05-4.78-3.08-9.27-8.39-12.34l-78.11-45.1c-1.48-.85-4.05-2.07-5.76-2.63-3.1-1.03-6.47-1.69-9.9-1.76-4.93-.1-9.49,.92-13.02,2.95Z"/><path class="cls-133" d="M324.29,83.19l-183.27,105.49c-4.23,2.44-6.56,6.22-6.49,10.36,.07,4.5,2.96,8.75,8.03,11.69l76.21,44c.36,.21,3.61,2.02,4.04,2.15,4.89,2.4,10.9,3.37,16.28,2.68,3.65,0,9.99-2.54,12.6-4.05l180.24-103.75c4.23-2.44,6.56-6.22,6.49-10.36-.07-4.5-2.96-8.76-8.03-11.68l-77.64-44.82c-1.31-.76-4.19-2.15-5.7-2.67-3.06-1.05-6.4-1.77-9.8-1.88-4.89-.14-9.46,.83-12.95,2.84Z"/><path class="cls-58" d="M324.43,83.5l-183.27,105.49c-4.04,2.33-6.23,5.9-6.14,9.81,.09,4.22,2.84,8.23,7.68,11.03l76.56,44.2c.48,.28,3.51,1.95,4.08,2.12,5.01,2.32,11.13,3.14,16.38,2.23,3.19,0,10.13-3.02,12.41-4.34l179.23-103.17c4.04-2.33,6.23-5.9,6.14-9.81-.09-4.22-2.84-8.24-7.68-11.03l-77.16-44.55c-1.15-.66-4.32-2.25-5.63-2.71-3.02-1.07-6.33-1.86-9.71-2-4.85-.19-9.43,.73-12.89,2.73Z"/><path class="cls-33" d="M324.58,83.82l-183.27,105.49c-3.85,2.22-5.9,5.59-5.79,9.26,.11,3.94,2.72,7.72,7.33,10.38l76.92,44.41c.61,.35,3.41,1.87,4.12,2.08,5.13,2.25,11.36,2.91,16.48,1.77,2.73,0,10.27-3.51,12.23-4.64l178.22-102.58c3.85-2.22,5.9-5.59,5.79-9.26-.11-3.94-2.72-7.72-7.33-10.38l-76.69-44.28c-.98-.57-4.45-2.34-5.57-2.75-2.98-1.09-6.25-1.95-9.61-2.12-4.81-.24-9.39,.64-12.82,2.62Z"/><path class="cls-153" d="M324.73,84.13l-183.27,105.49c-3.66,2.12-5.57,5.28-5.44,8.7,.14,3.66,2.6,7.2,6.98,9.72l77.28,44.62c.73,.42,3.31,1.79,4.16,2.05,5.25,2.17,11.6,2.68,16.59,1.31,2.28,0,10.41-3.99,12.04-4.93l177.21-102c3.66-2.12,5.57-5.28,5.44-8.7-.14-3.66-2.6-7.2-6.98-9.72l-76.22-44.01c-.82-.47-4.57-2.44-5.51-2.8-2.95-1.11-6.18-2.04-9.52-2.24-4.77-.29-9.36,.55-12.75,2.51Z"/><path class="cls-80" d="M324.87,84.45l-183.27,105.49c-3.48,2.01-5.24,4.97-5.09,8.15,.16,3.38,2.49,6.68,6.63,9.07l77.63,44.82c.85,.49,3.21,1.71,4.2,2.01,5.37,2.1,11.83,2.45,16.69,.85,1.82,0,10.55-4.47,11.86-5.23l176.2-101.42c3.48-2.01,5.24-4.97,5.09-8.15-.16-3.38-2.49-6.68-6.63-9.07l-75.75-43.73c-.66-.38-4.7-2.55-5.45-2.84-2.91-1.13-6.11-2.13-9.42-2.36-4.73-.34-9.33,.46-12.68,2.4Z"/><path class="cls-111" d="M325.02,84.76l-183.27,105.49c-3.29,1.9-4.91,4.66-4.74,7.6,.18,3.1,2.37,6.16,6.28,8.41l77.99,45.03c.97,.56,3.11,1.63,4.24,1.98,5.49,2.02,12.06,2.22,16.79,.39,1.37,0,10.69-4.95,11.67-5.52l175.19-100.84c3.29-1.9,4.91-4.66,4.74-7.6-.18-3.1-2.37-6.16-6.28-8.41l-75.27-43.46c-.49-.28-4.83-2.65-5.38-2.88-2.88-1.15-6.04-2.21-9.33-2.49-4.68-.39-9.29,.37-12.62,2.29Z"/><path class="cls-113" d="M325.17,85.08l-183.27,105.49c-3.1,1.79-4.59,4.35-4.39,7.05,.2,2.82,2.25,5.64,5.93,7.76l78.34,45.23c1.09,.63,3.01,1.55,4.28,1.94,5.6,1.95,12.29,1.99,16.89-.07,.91,0,10.83-5.43,11.49-5.81l174.18-100.26c3.1-1.79,4.59-4.35,4.39-7.05-.2-2.82-2.25-5.64-5.93-7.76l-74.8-43.19c-.33-.19-4.95-2.77-5.32-2.92-2.85-1.17-5.96-2.3-9.23-2.61-4.64-.43-9.26,.28-12.55,2.18Z"/><path class="cls-54" d="M325.31,85.4l-183.27,105.49c-2.91,1.68-4.26,4.03-4.03,6.49,.23,2.54,2.13,5.12,5.57,7.11l78.7,45.44c1.21,.7,2.91,1.47,4.32,1.91,5.72,1.88,12.52,1.75,17-.53,.46,0,10.98-5.92,11.3-6.11l173.17-99.67c2.91-1.68,4.26-4.03,4.03-6.49-.23-2.54-2.13-5.12-5.57-7.1l-74.33-42.91c-.16-.09-5.08-2.88-5.26-2.96-2.81-1.2-5.89-2.39-9.14-2.73-4.6-.48-9.23,.19-12.48,2.07Z"/><path d="M244.24,250.13l183.27-105.49c5.5-3.18,4.81-8.72-1.54-12.39l-79.05-45.64c-6.35-3.67-15.96-4.07-21.46-.89l-183.27,105.49c-5.5,3.18-4.81,8.72,1.54,12.39l79.05,45.64c6.35,3.67,15.96,4.07,21.46,.89Z"/></g><g><path class="cls-145" d="M218.28,232.28l-73.91-42.67c-3.72-2.15-5.58-5.02-5.63-8.03,0-.27,0-2.56,.03-2.83,.31-3.49,2.99-1.57,7.93-4.42l173.79-100.34c9.63-5.56,24.19-6.16,32.53-1.35l73.91,42.67c3.72,2.15,5.57-1.63,5.63,1.38,0,.26,0,3.67-.03,3.94-.3,3.49-2.98,7.11-7.94,9.97l-173.79,100.34c-9.63,5.56-24.19,6.16-32.53,1.35Z"/><path class="cls-3" d="M320.5,73.69c9.63-5.56,24.19-6.16,32.53-1.35l73.91,42.67c3.66,2.11,5.38-1.41,5.59,1.54,.02,.31,.04,3.62,.01,3.93-.29,3.5-2.98,7.11-7.94,9.98l-173.79,100.34c-9.63,5.56-24.19,6.16-32.53,1.35l-73.91-42.67c-3.74-2.16-5.6-5.04-5.63-8.06,0-.3,.03-2.53,.06-2.83,.42-3.44,3.01-1.73,7.9-4.55l173.79-100.34Z"/><path class="cls-142" d="M320.5,73.38c9.63-5.56,24.19-6.16,32.53-1.35l73.91,42.67c3.59,2.07,5.23-1.18,5.55,1.7,.04,.36,.08,3.56,.05,3.93-.28,3.5-2.97,7.12-7.94,9.99l-173.79,100.34c-9.63,5.56-24.19,6.16-32.53,1.35l-73.91-42.67c-3.75-2.16-5.62-5.06-5.63-8.09,0-.33,.05-2.5,.1-2.83,.5-3.38,3.04-1.9,7.87-4.69l173.79-100.34Z"/><path class="cls-162" d="M320.5,73.08c9.63-5.56,24.19-6.16,32.53-1.35l73.91,42.67c3.52,2.03,5.11-.95,5.51,1.86,.06,.41,.12,3.51,.09,3.92-.27,3.5-2.97,7.13-7.94,10l-173.79,100.34c-9.63,5.56-24.19,6.16-32.53,1.35l-73.91-42.67c-3.76-2.17-5.64-5.08-5.62-8.12,0-.36,.06-2.47,.13-2.84,.58-3.33,3.07-2.07,7.83-4.82l173.79-100.34Z"/><path class="cls-115" d="M320.5,72.78c9.63-5.56,24.19-6.16,32.53-1.35l73.91,42.67c3.46,2,5-.72,5.47,2.02,.08,.46,.17,3.45,.13,3.92-.26,3.51-2.96,7.14-7.94,10.01l-173.79,100.34c-9.63,5.56-24.19,6.16-32.53,1.35l-73.91-42.67c-3.77-2.18-5.66-5.1-5.62-8.15,0-.4,.08-2.44,.16-2.84,.64-3.29,3.1-2.24,7.8-4.96l173.79-100.34Z"/><path class="cls-47" d="M320.5,72.48c9.63-5.56,24.19-6.16,32.53-1.35l73.91,42.67c3.39,1.96,4.91-.5,5.43,2.18,.1,.5,.21,3.4,.17,3.91-.26,3.51-2.96,7.14-7.94,10.02l-173.79,100.34c-9.63,5.56-24.19,6.16-32.53,1.35l-73.91-42.67c-3.79-2.19-5.67-5.12-5.62-8.18,0-.43,.1-2.4,.2-2.84,.69-3.24,3.12-2.41,7.76-5.09l173.79-100.34Z"/><path class="cls-128" d="M320.5,72.18c9.63-5.56,24.19-6.16,32.53-1.35l73.91,42.67c3.33,1.92,4.83-.27,5.4,2.34,.12,.55,.25,3.35,.21,3.91-.25,3.51-2.96,7.15-7.94,10.03l-173.79,100.34c-9.63,5.56-24.19,6.16-32.53,1.35l-73.91-42.67c-3.8-2.19-5.69-5.13-5.62-8.21,0-.46,.12-2.37,.23-2.85,.74-3.19,3.15-2.58,7.73-5.22l173.79-100.34Z"/><path class="cls-167" d="M320.5,71.88c9.63-5.56,24.19-6.16,32.53-1.35l73.91,42.67c3.26,1.88,4.75-.05,5.36,2.5,.14,.6,.29,3.29,.25,3.91-.25,3.52-2.95,7.16-7.94,10.04l-173.79,100.34c-9.63,5.56-24.19,6.16-32.53,1.35l-73.91-42.67c-3.81-2.2-5.7-5.15-5.62-8.24,.01-.5,.14-2.34,.26-2.85,.78-3.14,3.18-2.75,7.69-5.36l173.79-100.34Z"/><path class="cls-138" d="M320.5,71.57c9.63-5.56,24.19-6.16,32.53-1.35l73.91,42.67c3.19,1.84,4.68,.18,5.32,2.66,.17,.65,.33,3.24,.29,3.9-.24,3.52-2.95,7.17-7.94,10.05l-173.79,100.34c-9.63,5.56-24.19,6.16-32.53,1.35l-73.91-42.67c-3.82-2.21-5.71-5.17-5.62-8.27,.02-.53,.15-2.31,.3-2.85,.81-3.1,3.2-2.92,7.66-5.49l173.79-100.34Z"/><path class="cls-85" d="M320.5,71.27c9.63-5.56,24.19-6.16,32.53-1.35l73.91,42.67c3.13,1.81,4.61,.4,5.28,2.82,.19,.7,.38,3.18,.33,3.9-.24,3.52-2.94,7.17-7.94,10.06l-173.79,100.34c-9.63,5.56-24.19,6.16-32.53,1.35l-73.91-42.67c-3.84-2.21-5.72-5.19-5.62-8.3,.02-.56,.17-2.28,.33-2.86,.85-3.05,3.23-3.09,7.63-5.62l173.79-100.34Z"/><path class="cls-74" d="M320.5,70.97c9.63-5.56,24.19-6.16,32.53-1.35l73.91,42.67c3.06,1.77,4.55,.62,5.24,2.98,.22,.75,.42,3.13,.37,3.89-.24,3.52-2.94,7.18-7.94,10.07l-173.79,100.34c-9.63,5.56-24.19,6.16-32.53,1.35l-73.91-42.67c-3.85-2.22-5.73-5.21-5.62-8.33,.02-.6,.18-2.25,.36-2.86,.88-3.01,3.26-3.25,7.59-5.76l173.79-100.34Z"/><path class="cls-170" d="M320.5,70.67c9.63-5.56,24.19-6.16,32.53-1.35l73.91,42.67c3,1.73,4.49,.84,5.2,3.14,.25,.8,.46,3.07,.41,3.89-.23,3.53-2.93,7.19-7.94,10.08l-173.79,100.34c-9.63,5.56-24.19,6.16-32.53,1.35l-73.91-42.67c-3.86-2.23-5.74-5.23-5.62-8.36,.02-.63,.2-2.22,.4-2.86,.91-2.97,3.28-3.42,7.56-5.89l173.79-100.34Z"/><path class="cls-171" d="M320.5,70.37c9.63-5.56,24.19-6.16,32.53-1.35l73.91,42.67c2.93,1.69,4.43,1.06,5.16,3.3,.28,.84,.5,3.02,.45,3.88-.23,3.53-2.93,7.2-7.94,10.09l-173.79,100.34c-9.63,5.56-24.19,6.16-32.53,1.35l-73.91-42.67c-3.87-2.24-5.75-5.25-5.62-8.39,.03-.66,.21-2.19,.43-2.86,.93-2.93,3.31-3.59,7.52-6.02l173.79-100.34Z"/><path class="cls-44" d="M320.5,70.07c9.63-5.56,24.19-6.16,32.53-1.35l73.91,42.67c2.86,1.65,4.37,1.28,5.12,3.46,.31,.89,.54,2.96,.48,3.88-.23,3.53-2.93,7.21-7.95,10.1l-173.79,100.34c-9.63,5.56-24.19,6.16-32.53,1.35l-73.91-42.67c-3.89-2.24-5.76-5.27-5.62-8.42,.03-.7,.23-2.16,.46-2.87,.96-2.88,3.34-3.76,7.49-6.16l173.79-100.34Z"/><path class="cls-32" d="M320.5,69.77c9.63-5.56,24.19-6.16,32.53-1.35l73.91,42.67c2.8,1.62,4.32,1.49,5.09,3.63,.34,.94,.59,2.91,.52,3.87-.22,3.54-2.92,7.21-7.95,10.11l-173.79,100.34c-9.63,5.56-24.19,6.16-32.53,1.35l-73.91-42.67c-3.9-2.25-5.77-5.29-5.62-8.45,.04-.73,.24-2.13,.5-2.87,.98-2.84,3.37-3.93,7.46-6.29l173.79-100.34Z"/><path class="cls-97" d="M320.5,69.46c9.63-5.56,24.19-6.16,32.53-1.35l73.91,42.67c2.73,1.58,4.26,1.71,5.05,3.79,.37,.98,.63,2.85,.56,3.87-.22,3.54-2.92,7.22-7.95,10.12l-173.79,100.34c-9.63,5.56-24.19,6.16-32.53,1.35l-73.91-42.67c-3.91-2.26-5.78-5.31-5.62-8.48,.04-.76,.25-2.1,.53-2.87,1.01-2.8,3.39-4.1,7.42-6.42l173.79-100.34Z"/><path class="cls-18" d="M320.5,69.16c9.63-5.56,24.19-6.16,32.53-1.35l73.91,42.67c2.67,1.54,4.21,1.92,5.01,3.95,.41,1.02,.67,2.8,.6,3.86-.22,3.54-2.91,7.23-7.95,10.13l-173.79,100.34c-9.63,5.56-24.19,6.16-32.53,1.35l-73.91-42.67c-3.92-2.27-5.79-5.33-5.62-8.51,.04-.79,.26-2.07,.56-2.88,1.03-2.77,3.42-4.27,7.39-6.56l173.79-100.34Z"/><path class="cls-36" d="M320.5,68.86c9.63-5.56,24.19-6.16,32.53-1.35l73.91,42.67c2.6,1.5,4.15,2.14,4.97,4.11,.44,1.07,.71,2.74,.64,3.86-.22,3.55-2.91,7.24-7.95,10.14l-173.79,100.34c-9.63,5.56-24.19,6.16-32.53,1.35l-73.91-42.67c-3.94-2.27-5.79-5.35-5.61-8.54,.05-.83,.27-2.04,.6-2.88,1.05-2.73,3.45-4.44,7.35-6.69l173.79-100.34Z"/><path class="cls-161" d="M320.5,68.56c9.63-5.56,24.19-6.16,32.53-1.35l73.91,42.67c2.53,1.46,4.1,2.35,4.93,4.27,.48,1.11,.75,2.69,.68,3.86-.22,3.55-2.91,7.24-7.95,10.15l-173.79,100.34c-9.63,5.56-24.19,6.16-32.53,1.35l-73.91-42.67c-3.95-2.28-5.8-5.37-5.61-8.57,.05-.86,.28-2.01,.63-2.88,1.07-2.69,3.47-4.6,7.32-6.82l173.79-100.34Z"/><path class="cls-46" d="M320.5,68.26c9.63-5.56,24.19-6.16,32.53-1.35l73.91,42.67c2.47,1.42,4.04,2.56,4.89,4.43,.52,1.15,.79,2.63,.72,3.85-.21,3.55-2.9,7.25-7.95,10.17l-173.79,100.34c-9.63,5.56-24.19,6.16-32.53,1.35l-73.91-42.67c-3.96-2.29-5.81-5.38-5.61-8.6,.05-.89,.29-1.98,.66-2.89,1.09-2.65,3.5-4.77,7.28-6.96l173.79-100.34Z"/><path class="cls-110" d="M320.5,67.96c9.63-5.56,24.19-6.16,32.53-1.35l73.91,42.67c2.4,1.39,3.99,2.77,4.85,4.59,.57,1.19,.83,2.58,.76,3.85-.21,3.56-2.9,7.26-7.95,10.18l-173.79,100.34c-9.63,5.56-24.19,6.16-32.53,1.35l-73.91-42.67c-3.97-2.29-5.81-5.4-5.61-8.63,.06-.93,.3-1.96,.7-2.89,1.11-2.62,3.53-4.94,7.25-7.09l173.79-100.34Z"/><path class="cls-139" d="M218.28,229.44l-73.91-42.67c-8.34-4.81-7.29-13.22,2.34-18.78l173.79-100.34c9.63-5.56,24.19-6.16,32.53-1.35l73.91,42.67c8.34,4.81,7.29,13.22-2.34,18.78l-173.79,100.34c-9.63,5.56-24.19,6.16-32.53,1.35Z"/></g><g><path class="cls-160" d="M218.28,229.53l-73.91-42.67c-3.72-2.15-5.58-5.02-5.63-8.03,0-.27,0-6.06,.03-6.33,.31-3.49,2.99-1.57,7.93-4.42l173.79-100.34c9.63-5.56,24.19-6.16,32.53-1.35l73.91,42.67c3.72,2.15,5.57-1.63,5.63,1.38,0,.26,0,7.17-.03,7.44-.3,3.49-2.98,7.11-7.94,9.97l-173.79,100.34c-9.63,5.56-24.19,6.16-32.53,1.35Z"/><path class="cls-136" d="M320.5,67.44c9.63-5.56,24.19-6.16,32.53-1.35l73.91,42.67c3.64,2.1,5.25-1.42,5.57,1.5,.04,.35,.06,7.03,.02,7.38-.4,3.46-3,7.06-7.92,9.9l-173.79,100.34c-9.63,5.56-24.19,6.16-32.53,1.35l-73.91-42.67c-3.71-2.14-5.53-5-5.62-7.99-.01-.34,.03-5.95,.09-6.29,.55-3.4,3.01-1.69,7.87-4.5l173.79-100.34Z"/><path class="cls-114" d="M320.5,67.13c9.63-5.56,24.19-6.16,32.53-1.35l73.91,42.67c3.56,2.05,5.04-1.2,5.51,1.63,.07,.43,.13,6.88,.07,7.33-.47,3.43-3.02,7.01-7.91,9.83l-173.79,100.34c-9.63,5.56-24.19,6.16-32.53,1.35l-73.91-42.67c-3.69-2.13-5.49-4.97-5.62-7.95-.02-.41,.06-5.83,.15-6.25,.69-3.31,3.04-1.82,7.8-4.57l173.79-100.34Z"/><path class="cls-172" d="M320.5,66.83c9.63-5.56,24.19-6.16,32.53-1.35l73.91,42.67c3.48,2.01,4.89-.99,5.45,1.75,.11,.52,.19,6.73,.11,7.27-.52,3.41-3.04,6.95-7.9,9.76l-173.79,100.34c-9.63,5.56-24.19,6.16-32.53,1.35l-73.91-42.67c-3.68-2.12-5.46-4.95-5.62-7.91-.03-.49,.09-5.71,.21-6.22,.8-3.23,3.06-1.95,7.74-4.65l173.79-100.34Z"/><path class="cls-148" d="M320.5,66.53c9.63-5.56,24.19-6.16,32.53-1.35l73.91,42.67c3.39,1.96,4.76-.78,5.39,1.87,.15,.61,.26,6.59,.16,7.22-.55,3.38-3.06,6.9-7.89,9.69l-173.79,100.34c-9.63,5.56-24.19,6.16-32.53,1.35l-73.91-42.67c-3.66-2.11-5.44-4.93-5.62-7.88-.03-.56,.11-5.59,.28-6.18,.87-3.15,3.09-2.07,7.68-4.72l173.79-100.34Z"/><path class="cls-41" d="M320.5,66.23c9.63-5.56,24.19-6.16,32.53-1.35l73.91,42.67c3.31,1.91,4.65-.57,5.33,2,.19,.7,.33,6.44,.2,7.16-.58,3.36-3.08,6.85-7.87,9.62l-173.79,100.34c-9.63,5.56-24.19,6.16-32.53,1.35l-73.91-42.67c-3.65-2.1-5.42-4.9-5.61-7.84-.04-.64,.14-5.47,.34-6.14,.92-3.08,3.11-2.2,7.61-4.8l173.79-100.34Z"/><path class="cls-155" d="M320.5,65.93c9.63-5.56,24.19-6.16,32.53-1.35l73.91,42.67c3.23,1.87,4.56-.36,5.27,2.12,.23,.79,.4,6.29,.25,7.11-.61,3.33-3.1,6.8-7.86,9.55l-173.79,100.34c-9.63,5.56-24.19,6.16-32.53,1.35l-73.91-42.67c-3.63-2.1-5.4-4.88-5.61-7.8-.05-.71,.16-5.36,.4-6.11,.97-3.01,3.13-2.32,7.55-4.87l173.79-100.34Z"/><path class="cls-156" d="M320.5,65.63c9.63-5.56,24.19-6.16,32.53-1.35l73.91,42.67c3.15,1.82,4.47-.16,5.22,2.25,.27,.88,.47,6.15,.3,7.05-.63,3.31-3.12,6.75-7.85,9.48l-173.79,100.34c-9.63,5.56-24.19,6.16-32.53,1.35l-73.91-42.67c-3.61-2.09-5.39-4.85-5.61-7.76-.06-.79,.18-5.24,.46-6.07,1.01-2.94,3.16-2.45,7.48-4.95l173.79-100.34Z"/><path class="cls-99" d="M320.5,65.32c9.63-5.56,24.19-6.16,32.53-1.35l73.91,42.67c3.07,1.77,4.39,.04,5.16,2.37,.32,.97,.54,6,.34,6.99-.65,3.29-3.14,6.7-7.83,9.41l-173.79,100.34c-9.63,5.56-24.19,6.16-32.53,1.35l-73.91-42.67c-3.6-2.08-5.37-4.83-5.61-7.72-.07-.86,.19-5.12,.52-6.03,1.04-2.87,3.18-2.58,7.42-5.02l173.79-100.34Z"/><path class="cls-64" d="M320.5,65.02c9.63-5.56,24.19-6.16,32.53-1.35l73.91,42.67c2.98,1.72,4.31,.24,5.1,2.5,.37,1.06,.61,5.85,.39,6.94-.66,3.26-3.16,6.65-7.82,9.34l-173.79,100.34c-9.63,5.56-24.19,6.16-32.53,1.35l-73.91-42.67c-3.58-2.07-5.36-4.81-5.6-7.68-.08-.93,.21-5.01,.58-6,1.06-2.81,3.21-2.7,7.35-5.1l173.79-100.34Z"/><path class="cls-152" d="M320.5,64.72c9.63-5.56,24.19-6.16,32.53-1.35l73.91,42.67c2.9,1.68,4.23,.44,5.04,2.62,.42,1.14,.68,5.71,.44,6.88-.68,3.24-3.18,6.6-7.81,9.27l-173.79,100.34c-9.63,5.56-24.19,6.16-32.53,1.35l-73.91-42.67c-3.57-2.06-5.35-4.78-5.6-7.65-.09-1.01,.22-4.89,.65-5.96,1.09-2.75,3.23-2.83,7.29-5.17l173.79-100.34Z"/><path class="cls-123" d="M320.5,64.42c9.63-5.56,24.19-6.16,32.53-1.35l73.91,42.67c2.82,1.63,4.16,.64,4.98,2.75,.48,1.23,.76,5.56,.48,6.83-.7,3.22-3.2,6.55-7.8,9.2l-173.79,100.34c-9.63,5.56-24.19,6.16-32.53,1.35l-73.91-42.67c-3.55-2.05-5.34-4.76-5.6-7.61-.1-1.08,.23-4.78,.71-5.92,1.11-2.69,3.26-2.96,7.22-5.25l173.79-100.34Z"/><path class="cls-61" d="M320.5,64.12c9.63-5.56,24.19-6.16,32.53-1.35l73.91,42.67c2.74,1.58,4.09,.83,4.92,2.87,.54,1.31,.83,5.41,.53,6.77-.71,3.2-3.22,6.5-7.78,9.13l-173.79,100.34c-9.63,5.56-24.19,6.16-32.53,1.35l-73.91-42.67c-3.53-2.04-5.32-4.73-5.59-7.57-.11-1.16,.24-4.66,.77-5.89,1.13-2.63,3.28-3.08,7.16-5.32l173.79-100.34Z"/><path class="cls-45" d="M320.5,63.82c9.63-5.56,24.19-6.16,32.53-1.35l73.91,42.67c2.66,1.53,4.02,1.03,4.86,3,.6,1.39,.9,5.27,.57,6.72-.72,3.18-3.25,6.45-7.77,9.06l-173.79,100.34c-9.63,5.56-24.19,6.16-32.53,1.35l-73.91-42.67c-3.52-2.03-5.31-4.71-5.59-7.53-.12-1.23,.25-4.55,.83-5.85,1.15-2.57,3.3-3.21,7.1-5.4L320.5,63.82Z"/><path class="cls-95" d="M320.5,63.52c9.63-5.56,24.19-6.16,32.53-1.35l73.91,42.67c2.58,1.49,3.95,1.22,4.8,3.12,.66,1.47,.98,5.12,.62,6.66-.74,3.16-3.27,6.4-7.76,8.99l-173.79,100.34c-9.63,5.56-24.19,6.16-32.53,1.35l-73.91-42.67c-3.5-2.02-5.3-4.68-5.59-7.49-.13-1.31,.25-4.44,.89-5.81,1.17-2.51,3.33-3.34,7.03-5.47L320.5,63.52Z"/><path class="cls-154" d="M320.5,63.21c9.63-5.56,24.19-6.16,32.53-1.35l73.91,42.67c2.49,1.44,3.88,1.41,4.75,3.25,.73,1.55,1.06,4.98,.67,6.61-.75,3.14-3.29,6.35-7.75,8.92l-173.79,100.34c-9.63,5.56-24.19,6.16-32.53,1.35l-73.91-42.67c-3.49-2.01-5.29-4.66-5.59-7.45-.15-1.38,.26-4.33,.95-5.77,1.19-2.46,3.35-3.46,6.97-5.55L320.5,63.21Z"/><path class="cls-83" d="M320.5,62.91c9.63-5.56,24.19-6.16,32.53-1.35l73.91,42.67c2.41,1.39,3.81,1.6,4.69,3.37,.8,1.63,1.13,4.83,.71,6.55-.76,3.12-3.31,6.29-7.73,8.85l-173.79,100.34c-9.63,5.56-24.19,6.16-32.53,1.35l-73.91-42.67c-3.47-2-5.28-4.63-5.58-7.42-.16-1.45,.26-4.23,1.02-5.74,1.21-2.4,3.38-3.59,6.9-5.63L320.5,62.91Z"/><path class="cls-38" d="M320.5,62.61c9.63-5.56,24.19-6.16,32.53-1.35l73.91,42.67c2.33,1.34,3.74,1.79,4.63,3.5s1.21,4.69,.76,6.5c-.78,3.1-3.33,6.24-7.72,8.78l-173.79,100.34c-9.63,5.56-24.19,6.16-32.53,1.35l-73.91-42.67c-3.45-1.99-5.27-4.61-5.58-7.38-.17-1.53,.25-4.12,1.08-5.7,1.22-2.35,3.4-3.72,6.84-5.7L320.5,62.61Z"/><path class="cls-103" d="M320.5,62.31c9.63-5.56,24.19-6.16,32.53-1.35l73.91,42.67c2.25,1.3,3.67,1.97,4.57,3.62,.96,1.77,1.29,4.55,.8,6.44-.79,3.08-3.35,6.19-7.71,8.71l-173.79,100.34c-9.63,5.56-24.19,6.16-32.53,1.35l-73.91-42.67c-3.44-1.99-5.26-4.59-5.58-7.34-.19-1.6,.25-4.02,1.14-5.66,1.24-2.3,3.43-3.84,6.77-5.78L320.5,62.31Z"/><path class="cls-141" d="M320.5,62.01c9.63-5.56,24.19-6.16,32.53-1.35l73.91,42.67c2.17,1.25,3.6,2.16,4.51,3.75,1.04,1.83,1.37,4.4,.85,6.39-.8,3.06-3.37,6.14-7.7,8.64l-173.79,100.34c-9.63,5.56-24.19,6.16-32.53,1.35l-73.91-42.67c-3.42-1.98-5.25-4.56-5.58-7.3-.2-1.68,.24-3.92,1.2-5.63,1.26-2.25,3.45-3.97,6.71-5.85L320.5,62.01Z"/><path class="cls-25" d="M320.5,61.71c9.63-5.56,24.19-6.16,32.53-1.35l73.91,42.67c2.08,1.2,3.53,2.34,4.45,3.87,1.13,1.9,1.45,4.26,.9,6.33-.82,3.04-3.39,6.09-7.68,8.57l-173.79,100.34c-9.63,5.56-24.19,6.16-32.53,1.35l-73.91-42.67c-3.41-1.97-5.24-4.54-5.57-7.26-.21-1.75,.23-3.82,1.26-5.59,1.28-2.2,3.47-4.1,6.64-5.93L320.5,61.71Z"/><path class="cls-134" d="M218.28,223.19l-73.91-42.67c-8.34-4.81-7.29-13.22,2.34-18.78L320.5,61.4c9.63-5.56,24.19-6.16,32.53-1.35l73.91,42.67c8.34,4.81,7.29,13.22-2.34,18.78l-173.79,100.34c-9.63,5.56-24.19,6.16-32.53,1.35Z"/></g><g><path class="cls-144" d="M218.28,223.19l-73.91-42.67c-8.34-4.81-7.29-13.22,2.34-18.78L320.5,61.4c9.63-5.56,24.19-6.16,32.53-1.35l73.91,42.67c8.34,4.81,7.29,13.22-2.34,18.78l-173.79,100.34c-9.63,5.56-24.19,6.16-32.53,1.35Z"/><path class="cls-92" d="M146.75,161.75L320.51,61.43c9.61-5.55,24.14-6.15,32.47-1.35l73.89,42.66c8.32,4.8,7.28,13.2-2.33,18.74l-173.76,100.32c-9.61,5.55-24.14,6.15-32.47,1.35l-73.89-42.66c-8.32-4.8-7.28-13.2,2.33-18.74Z"/><path class="cls-1" d="M146.8,161.75L320.52,61.45c9.59-5.54,24.1-6.14,32.41-1.34l73.87,42.65c8.31,4.8,7.26,13.17-2.33,18.71l-173.72,100.3c-9.59,5.54-24.1,6.14-32.41,1.34l-73.87-42.65c-8.31-4.8-7.26-13.17,2.33-18.71Z"/><path class="cls-119" d="M146.85,161.76L320.54,61.48c9.57-5.53,24.05-6.13,32.34-1.34l73.84,42.63c8.29,4.79,7.25,13.15-2.32,18.67l-173.69,100.28c-9.57,5.53-24.05,6.13-32.34,1.34l-73.84-42.63c-8.29-4.79-7.25-13.15,2.32-18.67Z"/><path class="cls-93" d="M146.9,161.76L320.55,61.5c9.56-5.52,24.01-6.12,32.28-1.34l73.82,42.62c8.28,4.78,7.24,13.12-2.32,18.64l-173.65,100.26c-9.56,5.52-24.01,6.12-32.28,1.34l-73.82-42.62c-8.27-4.78-7.24-13.12,2.32-18.64Z"/><path class="cls-101" d="M146.95,161.77L320.56,61.53c9.54-5.51,23.96-6.1,32.22-1.34l73.8,42.61c8.26,4.77,7.22,13.1-2.31,18.6l-173.62,100.24c-9.54,5.51-23.96,6.1-32.22,1.34l-73.8-42.61c-8.26-4.77-7.22-13.1,2.31-18.6Z"/><path class="cls-6" d="M147,161.77L320.58,61.55c9.52-5.5,23.92-6.09,32.16-1.33l73.78,42.6c8.24,4.76,7.21,13.07-2.31,18.57l-173.58,100.22c-9.52,5.5-23.92,6.09-32.16,1.33l-73.78-42.6c-8.24-4.76-7.21-13.07,2.31-18.57Z"/><path class="cls-86" d="M147.04,161.78L320.59,61.58c9.5-5.49,23.87-6.08,32.1-1.33l73.76,42.59c8.23,4.75,7.2,13.05-2.3,18.53l-173.55,100.2c-9.5,5.49-23.87,6.08-32.1,1.33l-73.76-42.59c-8.23-4.75-7.2-13.05,2.3-18.53Z"/><path class="cls-116" d="M147.09,161.78L320.6,61.6c9.48-5.48,23.83-6.07,32.04-1.33l73.74,42.57c8.21,4.74,7.18,13.02-2.3,18.5l-173.51,100.18c-9.48,5.48-23.83,6.07-32.04,1.33l-73.74-42.57c-8.21-4.74-7.18-13.02,2.3-18.5Z"/><path class="cls-96" d="M147.14,161.78L320.62,61.63c9.47-5.46,23.78-6.06,31.98-1.33l73.72,42.56c8.2,4.73,7.17,13-2.3,18.46l-173.48,100.16c-9.47,5.47-23.78,6.06-31.98,1.33l-73.72-42.56c-8.2-4.73-7.17-13,2.3-18.46Z"/><path class="cls-166" d="M147.19,161.79L320.63,61.65c9.45-5.45,23.74-6.05,31.92-1.32l73.7,42.55c8.18,4.72,7.16,12.98-2.29,18.43l-173.44,100.14c-9.45,5.45-23.74,6.05-31.92,1.32l-73.7-42.55c-8.18-4.72-7.16-12.98,2.29-18.43Z"/><path class="cls-21" d="M147.24,161.79L320.64,61.68c9.43-5.44,23.69-6.04,31.86-1.32l73.67,42.54c8.17,4.71,7.14,12.95-2.29,18.4l-173.41,100.12c-9.43,5.44-23.69,6.04-31.86,1.32l-73.67-42.54c-8.17-4.71-7.14-12.95,2.29-18.4Z"/><path class="cls-90" d="M147.29,161.8L320.66,61.7c9.41-5.43,23.65-6.02,31.8-1.32l73.65,42.52c8.15,4.71,7.13,12.93-2.28,18.36l-173.37,100.1c-9.41,5.43-23.65,6.02-31.8,1.32l-73.65-42.52c-8.15-4.71-7.13-12.93,2.28-18.36Z"/><path class="cls-73" d="M147.33,161.8L320.67,61.73c9.39-5.42,23.6-6.01,31.74-1.32l73.63,42.51c8.14,4.7,7.12,12.9-2.28,18.33l-173.34,100.08c-9.39,5.42-23.6,6.01-31.74,1.32l-73.63-42.51c-8.14-4.7-7.12-12.9,2.28-18.33Z"/><path class="cls-84" d="M147.38,161.81L320.68,61.75c9.38-5.41,23.56-6,31.68-1.31l73.61,42.5c8.12,4.69,7.1,12.88-2.27,18.29l-173.3,100.05c-9.38,5.41-23.56,6-31.68,1.31l-73.61-42.5c-8.12-4.69-7.1-12.88,2.27-18.29Z"/><path class="cls-131" d="M147.43,161.81L320.7,61.78c9.36-5.4,23.51-5.99,31.62-1.31l73.59,42.49c8.1,4.68,7.09,12.85-2.27,18.26l-173.27,100.03c-9.36,5.4-23.51,5.99-31.62,1.31l-73.59-42.49c-8.1-4.68-7.09-12.85,2.27-18.26Z"/><path class="cls-31" d="M147.48,161.82L320.71,61.8c9.34-5.39,23.47-5.98,31.56-1.31l73.57,42.47c8.09,4.67,7.07,12.83-2.27,18.22l-173.23,100.01c-9.34,5.39-23.47,5.98-31.56,1.31l-73.57-42.47c-8.09-4.67-7.07-12.83,2.27-18.22Z"/><path class="cls-66" d="M147.53,161.82L320.72,61.83c9.32-5.38,23.42-5.97,31.5-1.31l73.55,42.46c8.07,4.66,7.06,12.8-2.26,18.19l-173.19,99.99c-9.32,5.38-23.43,5.97-31.5,1.31l-73.55-42.46c-8.07-4.66-7.06-12.8,2.26-18.19Z"/><path class="cls-20" d="M147.58,161.83L320.74,61.85c9.3-5.37,23.38-5.96,31.44-1.3l73.52,42.45c8.06,4.65,7.05,12.78-2.26,18.15l-173.16,99.97c-9.3,5.37-23.38,5.96-31.44,1.3l-73.52-42.45c-8.06-4.65-7.05-12.78,2.26-18.15Z"/><path class="cls-151" d="M147.63,161.83L320.75,61.88c9.29-5.36,23.34-5.94,31.38-1.3l73.5,42.44c8.04,4.64,7.03,12.75-2.25,18.12l-173.12,99.95c-9.29,5.36-23.34,5.94-31.38,1.3l-73.5-42.44c-8.04-4.64-7.03-12.75,2.25-18.12Z"/><path class="cls-76" d="M147.67,161.84L320.76,61.9c9.27-5.35,23.29-5.93,31.32-1.3l73.48,42.42c8.03,4.63,7.02,12.73-2.25,18.08l-173.09,99.93c-9.27,5.35-23.29,5.93-31.32,1.3l-73.48-42.42c-8.03-4.63-7.02-12.73,2.25-18.08Z"/><path class="cls-65" d="M147.72,161.84L320.78,61.93c9.25-5.34,23.25-5.92,31.26-1.3l73.46,42.41c8.01,4.63,7.01,12.71-2.24,18.05l-173.05,99.91c-9.25,5.34-23.25,5.92-31.26,1.3l-73.46-42.41c-8.01-4.63-7.01-12.71,2.24-18.05Z"/><path class="cls-35" d="M147.77,161.85L320.79,61.95c9.23-5.33,23.2-5.91,31.2-1.29l73.44,42.4c8,4.62,6.99,12.68-2.24,18.01l-173.02,99.89c-9.23,5.33-23.2,5.91-31.2,1.29l-73.44-42.4c-8-4.62-6.99-12.68,2.24-18.01Z"/><path class="cls-2" d="M147.82,161.85L320.8,61.98c9.22-5.32,23.16-5.9,31.14-1.29l73.42,42.39c7.98,4.61,6.98,12.66-2.24,17.98l-172.98,99.87c-9.22,5.32-23.16,5.9-31.14,1.29l-73.42-42.39c-7.98-4.61-6.98-12.66,2.24-17.98Z"/><path class="cls-100" d="M147.87,161.86L320.82,62c9.2-5.31,23.11-5.89,31.08-1.29l73.4,42.38c7.97,4.6,6.97,12.63-2.23,17.94l-172.95,99.85c-9.2,5.31-23.11,5.89-31.08,1.29l-73.4-42.38c-7.97-4.6-6.97-12.63,2.23-17.94Z"/><path class="cls-121" d="M147.92,161.86L320.83,62.03c9.18-5.3,23.07-5.88,31.01-1.29l73.38,42.36c7.95,4.59,6.95,12.61-2.23,17.91l-172.91,99.83c-9.18,5.3-23.07,5.88-31.01,1.29l-73.38-42.36c-7.95-4.59-6.95-12.61,2.23-17.91Z"/><path class="cls-56" d="M147.96,161.86L320.84,62.05c9.16-5.29,23.02-5.86,30.95-1.28l73.35,42.35c7.93,4.58,6.94,12.58-2.22,17.87l-172.88,99.81c-9.16,5.29-23.02,5.86-30.95,1.28l-73.35-42.35c-7.93-4.58-6.94-12.58,2.22-17.87Z"/><path class="cls-19" d="M148.01,161.87L320.86,62.08c9.14-5.28,22.98-5.85,30.89-1.28l73.33,42.34c7.92,4.57,6.93,12.56-2.22,17.84l-172.84,99.79c-9.14,5.28-22.98,5.85-30.89,1.28l-73.33-42.34c-7.92-4.57-6.93-12.56,2.22-17.84Z"/><path class="cls-40" d="M148.06,161.87L320.87,62.1c9.13-5.27,22.93-5.84,30.83-1.28l73.31,42.33c7.9,4.56,6.91,12.53-2.21,17.8l-172.81,99.77c-9.13,5.27-22.93,5.84-30.83,1.28l-73.31-42.33c-7.9-4.56-6.91-12.53,2.21-17.8Z"/><path class="cls-79" d="M148.11,161.88L320.88,62.13c9.11-5.26,22.89-5.83,30.77-1.28l73.29,42.31c7.89,4.55,6.9,12.51-2.21,17.77l-172.77,99.75c-9.11,5.26-22.89,5.83-30.77,1.28l-73.29-42.31c-7.89-4.55-6.9-12.51,2.21-17.77Z"/><path class="cls-77" d="M148.16,161.88L320.9,62.15c9.09-5.25,22.84-5.82,30.71-1.27l73.27,42.3c7.87,4.55,6.88,12.48-2.21,17.73l-172.74,99.73c-9.09,5.25-22.84,5.82-30.71,1.27l-73.27-42.3c-7.87-4.55-6.88-12.48,2.21-17.73Z"/><path class="cls-24" d="M148.21,161.89L320.91,62.18c9.07-5.24,22.8-5.81,30.65-1.27l73.25,42.29c7.86,4.54,6.87,12.46-2.2,17.7l-172.7,99.71c-9.07,5.24-22.8,5.81-30.65,1.27l-73.25-42.29c-7.86-4.54-6.87-12.46,2.2-17.7Z"/><path class="cls-104" d="M148.26,161.89L320.92,62.2c9.05-5.23,22.75-5.8,30.59-1.27l73.23,42.28c7.84,4.53,6.86,12.43-2.2,17.66l-172.67,99.69c-9.05,5.23-22.75,5.8-30.59,1.27l-73.23-42.28c-7.84-4.53-6.86-12.43,2.2-17.66Z"/><path class="cls-59" d="M148.3,161.9L320.94,62.23c9.04-5.22,22.71-5.78,30.53-1.27l73.2,42.26c7.83,4.52,6.84,12.41-2.19,17.63l-172.63,99.67c-9.04,5.22-22.71,5.78-30.53,1.27l-73.21-42.26c-7.83-4.52-6.84-12.41,2.19-17.63Z"/><path class="cls-158" d="M148.35,161.9L320.95,62.25c9.02-5.21,22.66-5.77,30.47-1.26l73.18,42.25c7.81,4.51,6.83,12.39-2.19,17.59l-172.6,99.65c-9.02,5.21-22.66,5.77-30.47,1.26l-73.18-42.25c-7.81-4.51-6.83-12.39,2.19-17.59Z"/><path class="cls-91" d="M148.4,161.91L320.96,62.28c9-5.2,22.62-5.76,30.41-1.26l73.16,42.24c7.79,4.5,6.82,12.36-2.18,17.56l-172.56,99.63c-9,5.2-22.62,5.76-30.41,1.26l-73.16-42.24c-7.79-4.5-6.82-12.36,2.18-17.56Z"/><path class="cls-165" d="M148.45,161.91L320.98,62.3c8.98-5.19,22.57-5.75,30.35-1.26l73.14,42.23c7.78,4.49,6.8,12.34-2.18,17.52l-172.53,99.61c-8.98,5.19-22.57,5.75-30.35,1.26l-73.14-42.23c-7.78-4.49-6.8-12.34,2.18-17.52Z"/><path class="cls-163" d="M148.5,161.92L320.99,62.33c8.96-5.18,22.53-5.74,30.29-1.26l73.12,42.22c7.76,4.48,6.79,12.31-2.17,17.49l-172.49,99.59c-8.96,5.18-22.53,5.74-30.29,1.26l-73.12-42.22c-7.76-4.48-6.79-12.31,2.17-17.49Z"/><path class="cls-112" d="M148.55,161.92L321,62.35c8.95-5.17,22.48-5.73,30.23-1.25l73.1,42.2c7.75,4.47,6.78,12.29-2.17,17.45l-172.46,99.57c-8.95,5.17-22.48,5.73-30.23,1.25l-73.1-42.2c-7.75-4.47-6.78-12.29,2.17-17.45Z"/><path class="cls-127" d="M148.59,161.93L321.02,62.38c8.93-5.16,22.44-5.72,30.17-1.25l73.08,42.19c7.73,4.46,6.76,12.26-2.17,17.42l-172.42,99.55c-8.93,5.16-22.44,5.72-30.17,1.25l-73.08-42.19c-7.73-4.46-6.76-12.26,2.17-17.42Z"/><path class="cls-37" d="M148.64,161.93L321.03,62.4c8.91-5.14,22.39-5.7,30.11-1.25l73.06,42.18c7.72,4.46,6.75,12.24-2.16,17.38l-172.39,99.53c-8.91,5.14-22.39,5.7-30.11,1.25l-73.06-42.18c-7.72-4.46-6.75-12.24,2.16-17.38Z"/><path class="cls-34" d="M148.69,161.94L321.04,62.43c8.89-5.13,22.35-5.69,30.05-1.25l73.03,42.17c7.7,4.45,6.74,12.21-2.16,17.35l-172.35,99.51c-8.89,5.13-22.35,5.69-30.05,1.25l-73.03-42.17c-7.7-4.45-6.74-12.21,2.16-17.35Z"/><path class="cls-49" d="M148.74,161.94L321.06,62.45c8.88-5.12,22.3-5.68,29.99-1.24l73.01,42.15c7.69,4.44,6.72,12.19-2.15,17.31l-172.32,99.49c-8.88,5.12-22.3,5.68-29.99,1.24l-73.01-42.15c-7.69-4.44-6.72-12.19,2.15-17.31Z"/><path class="cls-124" d="M148.79,161.94L321.07,62.48c8.86-5.11,22.26-5.67,29.93-1.24l72.99,42.14c7.67,4.43,6.71,12.16-2.15,17.28l-172.28,99.47c-8.86,5.11-22.26,5.67-29.93,1.24l-72.99-42.14c-7.67-4.43-6.71-12.16,2.15-17.28Z"/><path class="cls-39" d="M148.84,161.95L321.08,62.5c8.84-5.1,22.21-5.66,29.87-1.24l72.97,42.13c7.66,4.42,6.7,12.14-2.14,17.24l-172.25,99.45c-8.84,5.1-22.21,5.66-29.87,1.24l-72.97-42.13c-7.66-4.42-6.7-12.14,2.14-17.24Z"/><path class="cls-69" d="M148.89,161.95L321.1,62.53c8.82-5.09,22.17-5.65,29.81-1.24l72.95,42.12c7.64,4.41,6.68,12.12-2.14,17.21l-172.21,99.43c-8.82,5.09-22.17,5.65-29.81,1.24l-72.95-42.12c-7.64-4.41-6.68-12.12,2.14-17.21Z"/><path class="cls-146" d="M148.93,161.96L321.11,62.55c8.8-5.08,22.12-5.63,29.75-1.23l72.93,42.1c7.62,4.4,6.67,12.09-2.14,17.17l-172.18,99.41c-8.8,5.08-22.12,5.63-29.75,1.23l-72.93-42.1c-7.62-4.4-6.67-12.09,2.14-17.17Z"/><path class="cls-5" d="M148.98,161.96L321.12,62.58c8.79-5.07,22.08-5.62,29.69-1.23l72.91,42.09c7.61,4.39,6.65,12.07-2.13,17.14l-172.14,99.39c-8.79,5.07-22.08,5.62-29.69,1.23l-72.91-42.09c-7.61-4.39-6.65-12.07,2.13-17.14Z"/><path class="cls-143" d="M149.03,161.97L321.14,62.6c8.77-5.06,22.03-5.61,29.62-1.23l72.89,42.08c7.59,4.38,6.64,12.04-2.13,17.1l-172.11,99.37c-8.77,5.06-22.03,5.61-29.62,1.23l-72.89-42.08c-7.59-4.38-6.64-12.04,2.13-17.1Z"/><path class="cls-17" d="M149.08,161.97L321.15,62.63c8.75-5.05,21.99-5.6,29.56-1.23l72.86,42.07c7.58,4.38,6.63,12.02-2.12,17.07l-172.07,99.35c-8.75,5.05-21.99,5.6-29.56,1.23l-72.86-42.07c-7.58-4.38-6.63-12.02,2.12-17.07Z"/><path class="cls-109" d="M149.13,161.98L321.16,62.65c8.73-5.04,21.94-5.59,29.5-1.22l72.84,42.06c7.56,4.37,6.61,11.99-2.12,17.03l-172.04,99.33c-8.73,5.04-21.94,5.59-29.5,1.22l-72.84-42.06c-7.56-4.37-6.61-11.99,2.12-17.03Z"/><path class="cls-102" d="M149.18,161.98L321.18,62.68c8.71-5.03,21.9-5.58,29.44-1.22l72.82,42.04c7.55,4.36,6.6,11.97-2.11,17l-172,99.31c-8.71,5.03-21.9,5.58-29.44,1.22l-72.82-42.04c-7.55-4.36-6.6-11.97,2.11-17Z"/><path class="cls-82" d="M149.22,161.99L321.19,62.7c8.7-5.02,21.85-5.57,29.38-1.22l72.8,42.03c7.53,4.35,6.59,11.94-2.11,16.96l-171.97,99.28c-8.7,5.02-21.85,5.57-29.38,1.22l-72.8-42.03c-7.53-4.35-6.59-11.94,2.11-16.96Z"/><path class="cls-43" d="M149.27,161.99L321.2,62.73c8.68-5.01,21.81-5.55,29.32-1.22l72.78,42.02c7.52,4.34,6.57,11.92-2.11,16.93l-171.93,99.26c-8.68,5.01-21.81,5.55-29.32,1.22l-72.78-42.02c-7.52-4.34-6.57-11.92,2.11-16.93Z"/><path class="cls-149" d="M149.32,162L321.22,62.75c8.66-5,21.76-5.54,29.26-1.21l72.76,42.01c7.5,4.33,6.56,11.89-2.1,16.89l-171.9,99.24c-8.66,5-21.76,5.54-29.26,1.21l-72.76-42.01c-7.5-4.33-6.56-11.89,2.1-16.89Z"/><path class="cls-60" d="M149.37,162L321.23,62.78c8.64-4.99,21.72-5.53,29.2-1.21l72.74,41.99c7.48,4.32,6.55,11.87-2.1,16.86l-171.86,99.22c-8.64,4.99-21.72,5.53-29.2,1.21l-72.74-41.99c-7.48-4.32-6.55-11.87,2.1-16.86Z"/><path class="cls-150" d="M149.42,162.01L321.24,62.8c8.62-4.98,21.67-5.52,29.14-1.21l72.71,41.98c7.47,4.31,6.53,11.85-2.09,16.82l-171.83,99.2c-8.62,4.98-21.67,5.52-29.14,1.21l-72.71-41.98c-7.47-4.31-6.53-11.85,2.09-16.82Z"/><path class="cls-42" d="M149.47,162.01L321.26,62.83c8.61-4.97,21.63-5.51,29.08-1.21l72.69,41.97c7.45,4.3,6.52,11.82-2.09,16.79l-171.79,99.18c-8.61,4.97-21.63,5.51-29.08,1.21l-72.69-41.97c-7.45-4.3-6.52-11.82,2.09-16.79Z"/><path class="cls-132" d="M149.52,162.01L321.27,62.85c8.59-4.96,21.58-5.5,29.02-1.2l72.67,41.96c7.44,4.29,6.51,11.8-2.08,16.75l-171.76,99.16c-8.59,4.96-21.58,5.5-29.02,1.2l-72.67-41.96c-7.44-4.29-6.51-11.8,2.08-16.75Z"/><path class="cls-122" d="M149.56,162.02L321.28,62.88c8.57-4.95,21.54-5.49,28.96-1.2l72.65,41.94c7.42,4.29,6.49,11.77-2.08,16.72l-171.72,99.14c-8.57,4.95-21.54,5.49-28.96,1.2l-72.65-41.94c-7.42-4.29-6.49-11.77,2.08-16.72Z"/><path class="cls-62" d="M149.61,162.02L321.3,62.9c8.55-4.94,21.49-5.47,28.9-1.2l72.63,41.93c7.41,4.28,6.48,11.75-2.07,16.69l-171.69,99.12c-8.55,4.94-21.49,5.47-28.9,1.2l-72.63-41.93c-7.41-4.28-6.48-11.75,2.07-16.69Z"/><path class="cls-129" d="M149.66,162.03L321.31,62.93c8.54-4.93,21.45-5.46,28.84-1.2l72.61,41.92c7.39,4.27,6.46,11.72-2.07,16.65l-171.65,99.1c-8.54,4.93-21.45,5.46-28.84,1.2l-72.61-41.92c-7.39-4.27-6.46-11.72,2.07-16.65Z"/><path class="cls-126" d="M149.71,162.03L321.32,62.95c8.52-4.92,21.4-5.45,28.78-1.19l72.59,41.91c7.38,4.26,6.45,11.7-2.07,16.62l-171.62,99.08c-8.52,4.92-21.4,5.45-28.78,1.19l-72.59-41.91c-7.38-4.26-6.45-11.7,2.07-16.62Z"/><path class="cls-147" d="M149.76,162.04L321.34,62.98c8.5-4.91,21.36-5.44,28.72-1.19l72.57,41.9c7.36,4.25,6.44,11.67-2.06,16.58l-171.58,99.06c-8.5,4.91-21.36,5.44-28.72,1.19l-72.57-41.9c-7.36-4.25-6.44-11.67,2.06-16.58Z"/><path class="cls-67" d="M149.81,162.04L321.35,63c8.48-4.9,21.31-5.43,28.66-1.19l72.54,41.88c7.35,4.24,6.42,11.65-2.06,16.55l-171.55,99.04c-8.48,4.9-21.31,5.43-28.66,1.19l-72.54-41.88c-7.35-4.24-6.42-11.65,2.06-16.55Z"/><path class="cls-70" d="M149.85,162.05L321.37,63.03c8.46-4.89,21.27-5.42,28.6-1.19l72.52,41.87c7.33,4.23,6.41,11.62-2.05,16.51l-171.51,99.02c-8.46,4.89-21.27,5.42-28.6,1.19l-72.52-41.87c-7.33-4.23-6.41-11.62,2.05-16.51Z"/><path class="cls-71" d="M149.9,162.05L321.38,63.05c8.45-4.88,21.22-5.41,28.54-1.18l72.5,41.86c7.31,4.22,6.4,11.6-2.05,16.48l-171.48,99c-8.45,4.88-21.22,5.41-28.54,1.18l-72.5-41.86c-7.31-4.22-6.4-11.6,2.05-16.48Z"/><path class="cls-81" d="M149.95,162.06L321.39,63.08c8.43-4.87,21.18-5.39,28.48-1.18l72.48,41.85c7.3,4.21,6.38,11.57-2.04,16.44l-171.44,98.98c-8.43,4.87-21.18,5.39-28.48,1.18l-72.48-41.85c-7.3-4.21-6.38-11.57,2.04-16.44Z"/><path class="cls-4" d="M150,162.06L321.41,63.1c8.41-4.86,21.13-5.38,28.42-1.18l72.46,41.83c7.28,4.21,6.37,11.55-2.04,16.41l-171.41,98.96c-8.41,4.86-21.13,5.38-28.42,1.18l-72.46-41.83c-7.28-4.21-6.37-11.55,2.04-16.41Z"/><path class="cls-55" d="M150.05,162.07L321.42,63.13c8.39-4.85,21.09-5.37,28.36-1.18l72.44,41.82c7.27,4.2,6.36,11.53-2.04,16.37l-171.37,98.94c-8.39,4.85-21.09,5.37-28.36,1.18l-72.44-41.82c-7.27-4.2-6.36-11.53,2.04-16.37Z"/><path class="cls-72" d="M150.1,162.07L321.43,63.15c8.37-4.83,21.04-5.36,28.29-1.17l72.42,41.81c7.25,4.19,6.34,11.5-2.03,16.34l-171.33,98.92c-8.37,4.83-21.04,5.36-28.29,1.17l-72.42-41.81c-7.25-4.19-6.34-11.5,2.03-16.34Z"/><path class="cls-105" d="M150.15,162.08L321.45,63.18c8.36-4.82,21-5.35,28.23-1.17l72.39,41.8c7.24,4.18,6.33,11.48-2.03,16.3l-171.3,98.9c-8.36,4.82-21,5.35-28.23,1.17l-72.39-41.8c-7.24-4.18-6.33-11.48,2.03-16.3Z"/><path class="cls-135" d="M150.19,162.08L321.46,63.2c8.34-4.81,20.95-5.34,28.17-1.17l72.37,41.78c7.22,4.17,6.32,11.45-2.02,16.27l-171.26,98.88c-8.34,4.81-20.95,5.34-28.17,1.17l-72.37-41.78c-7.22-4.17-6.32-11.45,2.02-16.27Z"/><path class="cls-48" d="M150.24,162.09L321.47,63.23c8.32-4.8,20.91-5.33,28.11-1.17l72.35,41.77c7.21,4.16,6.3,11.43-2.02,16.23l-171.23,98.86c-8.32,4.8-20.91,5.33-28.11,1.17l-72.35-41.77c-7.21-4.16-6.3-11.43,2.02-16.23Z"/><path class="cls-9" d="M150.29,162.09L321.49,63.25c8.3-4.79,20.86-5.31,28.05-1.16l72.33,41.76c7.19,4.15,6.29,11.4-2.01,16.2l-171.19,98.84c-8.3,4.79-20.86,5.31-28.05,1.16l-72.33-41.76c-7.19-4.15-6.29-11.4,2.01-16.2Z"/></g><path class="cls-168" d="M390,148.27l8.79-5.07c1.1-.63,1.99-2.33,1.99-3.8h0c0-1.46-.89-2.14-1.99-1.5l-8.79,5.07c-1.1,.63-1.99,2.33-1.99,3.8h0c0,1.46,.89,2.14,1.99,1.5Z"/><path class="cls-144" d="M389.21,147.99c.15,0,.34-.06,.53-.17l8.79-5.07c.94-.54,1.73-2.07,1.73-3.35,0-.56-.18-1.22-.68-1.22-.15,0-.34,.06-.53,.17l-8.79,5.07c-.94,.54-1.73,2.07-1.73,3.35,0,.56,.18,1.22,.68,1.22Z"/><path class="cls-117" d="M374.31,157.33l8.79-5.07c1.1-.63,1.99-2.33,1.99-3.8h0c0-1.46-.89-2.14-1.99-1.5l-8.79,5.07c-1.1,.63-1.99,2.33-1.99,3.8h0c0,1.46,.89,2.14,1.99,1.5Z"/><path class="cls-144" d="M373.52,157.05c.15,0,.34-.06,.53-.17l8.79-5.07c.94-.54,1.73-2.07,1.73-3.35,0-.56-.18-1.22-.68-1.22-.15,0-.34,.06-.53,.17l-8.79,5.07c-.94,.54-1.73,2.07-1.73,3.35,0,.56,.18,1.22,.68,1.22Z"/><path class="cls-107" d="M233.11,220.36h0c-4.04,0-7.84-.91-10.72-2.58l-70.28-40.58c-2.96-1.71-4.59-4.01-4.59-6.47,0-2.45,1.61-4.72,4.53-6.41L327.09,63.26c2.83-1.64,6.6-2.54,10.6-2.54s7.84,.92,10.72,2.58l70.28,40.58c2.96,1.71,4.59,4.01,4.59,6.48s-1.61,4.72-4.53,6.41l-175.05,101.06c-2.83,1.64-6.6,2.54-10.6,2.54ZM337.69,61.72c-3.83,0-7.41,.85-10.1,2.4l-175.05,101.06c-2.6,1.5-4.03,3.47-4.03,5.54s1.45,4.08,4.09,5.61l70.28,40.58c2.73,1.57,6.35,2.44,10.22,2.44h0c3.83,0,7.41-.85,10.1-2.4l175.05-101.06c2.6-1.5,4.03-3.47,4.03-5.54s-1.45-4.09-4.09-5.61l-70.28-40.58c-2.73-1.57-6.35-2.44-10.22-2.44Z"/><path class="cls-144" d="M386.91,92.63l-17.43-10.07c-.69-.4-.6-1.09,.19-1.55h0c.79-.46,1.99-.51,2.68-.11l17.43,10.07c.69,.4,.6,1.09-.19,1.55h0c-.79,.46-1.99,.51-2.68,.11Z"/></g><path class="cls-11" d="M291.51,140.07l-11.32-6.54-2.64,1.53,11.32,6.53,2.64-1.53Zm-5.14,4.07l-13.5-7.79-2.64,1.53,13.5,7.79,2.64-1.53Zm16.6,2.54l-9.27-5.35-2.64,1.53,9.27,5.35,2.64-1.53Zm5.8,3.35l-3.61-2.09-2.64,1.53,3.61,2.09,2.64-1.53Zm-53.12-30.67l-8.27-4.77-2.64,1.53,8.27,4.77,2.64-1.53Zm-1.73,6.04l-12.63-7.29-2.64,1.53,12.63,7.29,2.64-1.53Zm34.64,20l-2.64,1.53,3.55,2.05,2.64-1.53-3.55-2.05Zm-15.99-16.28l-14.73-8.5-2.64,1.53,14.73,8.5,2.64-1.53Zm5.45,3.15l-3.27-1.89-2.64,1.53,3.27,1.89,2.64-1.53Zm-7.33,2.81l-7.09-4.09-2.64,1.53,7.09,4.09,2.64-1.53Zm-14.59-8.42l-2.64,1.53,5.32,3.07,2.64-1.53-5.32-3.07Zm35.54,23.57l9.68,5.59,2.64-1.53-9.68-5.59-2.64,1.53Zm31.24,7.94l-11.93-6.89-2.64,1.53,11.93,6.89,2.64-1.53Zm7.7,4.45l-5.52-3.19-2.64,1.53,5.52,3.19,2.64-1.53Zm-66.77-9.95l-6.9-3.98-1.97,1.14,6.9,3.98,1.97-1.14Zm2.17-1.72l10.23,5.92,1.97-1.14-10.23-5.92-1.97,1.14Zm18.74,5.63l8.65,5.05,1.97-1.14-8.65-5.05-1.97,1.14Zm-8.57,5.53l12.41,7.22,1.97-1.14-12.41-7.22-1.97,1.14Zm1.68-4.3l13.47,7.87,1.97-1.14-13.47-7.87-1.97,1.14Zm-43.21-24.96l3.96,2.28,1.97-1.14-3.96-2.28-1.97,1.14Zm10.62,9.1l-2.43-1.41-1.97,1.14,2.43,1.41,1.97-1.14Zm2.2-3.97l-5.28-3.05-1.97,1.14,5.28,3.05,1.97-1.14Zm11.67,6.74l-10.04-5.8-1.97,1.14,10.04,5.8,1.97-1.14Zm9.9,16.25l-15.12-8.78-1.97,1.14,15.12,8.78,1.97-1.14Zm-27.42-29.33l10.96,6.33,1.97-1.14-10.96-6.33-1.97,1.14Zm26.68,15.41l14.81,8.6,1.97-1.14-14.81-8.6-1.97,1.14Zm.88,21.51l1.97-1.14-10.6-6.17-1.97,1.14,10.6,6.17Zm19.67,3.9l-18.19-10.56-1.97,1.14,18.19,10.56,1.97-1.14Zm-20.2-27.49l-8.42-4.86-1.97,1.14,8.42,4.86,1.97-1.14Zm-25.08,1.24l-8.52-4.92-1.97,1.14,8.52,4.92,1.97-1.14Zm22.77,2.67l-5.58-3.22-1.97,1.14,5.58,3.22,1.97-1.14Zm-32.92-8.53l-5.28-3.05-1.97,1.14,5.28,3.05,1.97-1.14Zm-5.14-5.94l10.96,6.33,1.97-1.14-10.96-6.33-1.97,1.14Zm8.01,12.83l-10.96-6.33-1.97,1.14,10.96,6.33,1.97-1.14Zm19.02,.5l-8.42-4.86-1.97,1.14,8.42,4.86,1.97-1.14Zm3.61,12.56l-6.9-3.98-1.97,1.14,6.9,3.98,1.97-1.14Zm-12.69,.18l2.64,1.52,1.97-1.14-2.64-1.52-1.97,1.14Zm4.26,2.46l7.2,4.16,1.97-1.14-7.2-4.16-1.97,1.14Zm-10.48-11.29l8.42,4.86,1.97-1.14-8.42-4.86-1.97,1.14Zm-12.35-1.89l5.28,3.05,1.97-1.14-5.28-3.05-1.97,1.14Zm24.64,1.48l-7.1-4.1-1.97,1.14,7.1,4.1,1.97-1.14Zm-16.34-1.93l2.43,1.41,1.97-1.14-2.43-1.41-1.97,1.14Zm71.08,17.92l-1.97,1.14,8.33,4.73,1.97-1.14-8.33-4.73Zm-9.06,7.52l6.36,3.59,1.97-1.14-6.36-3.59-1.97,1.14Zm-9.31-.13l11.12,6.34,1.97-1.14-11.12-6.34-1.97,1.14Zm-1.85,4.17l8.33,4.73,1.97-1.14-8.33-4.73-1.97,1.14Zm-16.01-9.3l14.38,8.36,1.97-1.14-14.38-8.36-1.97,1.14Zm-36.24-15.74l10.04,5.8,1.97-1.14-10.04-5.8-1.97,1.14Zm7.4-24.19l-10.84-6.27-1.97,1.14,10.84,6.27,1.97-1.14Zm53.05,33.01l8.42,4.86,1.97-1.14-8.42-4.86-1.97,1.14Zm-40.82-23.67l2.43,1.41,1.97-1.14-2.43-1.41-1.97,1.14Zm56.47,35.6l-16.05-9.19-1.97,1.14,16.05,9.19,1.97-1.14Zm-12.02-1.62l-6.48-3.74-1.97,1.14,6.48,3.74,1.97-1.14Zm-22.13-12.83l-11.06-6.44-1.97,1.14,11.06,6.44,1.97-1.14Zm-41.53-29.27l-8.41-4.87-1.97,1.14,8.41,4.87,1.97-1.14Zm-28.52,6.75l13.99,8.09,1.97-1.14-13.99-8.09-1.97,1.14Zm17.24,2.46l-10.74-6.21-1.97,1.14,10.74,6.21,1.97-1.14Zm2.81-3.62l-9.02-5.22-1.97,1.14,9.01,5.22,1.97-1.14Zm2.1-4.03l-6.58-3.81-1.97,1.14,6.58,3.81,1.97-1.14Zm-6.55,14.21l3.96,2.28,1.97-1.14-3.96-2.28-1.97,1.14Z"/><g class="cls-108"><path class="cls-134" d="M390.79,111.94l10.08,5.82c.42,.24,1.09,.24,1.5,0,.41-.24,.41-.63,0-.87l-10.08-5.82c-.42-.24-1.09-.24-1.5,0-.41,.24-.41,.63,0,.87Zm9.05,6.42l-10.08-5.82c-.42-.24-1.09-.24-1.5,0-.41,.24-.41,.63,0,.87l10.08,5.82c.42,.24,1.09,.24,1.5,0,.41-.24,.41-.63,0-.87Zm-2.53,1.46l-10.08-5.82c-.42-.24-1.09-.24-1.5,0-.41,.24-.41,.63,0,.87l10.08,5.82c.42,.24,1.09,.24,1.5,0,.41-.24,.41-.63,0-.87Z"/></g><g><polygon class="cls-144" points="323.07 120.31 337.96 159.38 390.74 128.9 323.07 120.31"/><polygon class="cls-144" points="336.35 159.17 321.47 120.1 253.8 111.51 336.35 159.17"/><polygon class="cls-144" points="322.72 119.38 390.39 127.97 307.84 80.31 322.72 119.38"/><polygon class="cls-144" points="253.45 110.58 321.12 119.18 306.23 80.11 253.45 110.58"/></g><g><polygon class="cls-11" points="338.12 80.34 332.91 83.35 327.66 80.32 323.73 82.59 332.93 87.91 342.08 82.63 338.12 80.34"/><polygon class="cls-11" points="332.9 82.19 337.12 79.76 332.88 77.31 328.66 79.74 332.9 82.19"/><polygon class="cls-11" points="332.87 76.16 343.07 82.06 347.51 79.5 332.84 71.03 318.27 79.44 322.73 82.02 332.87 76.16"/></g><g class="cls-108"><polygon class="cls-9" points="199.36 164.7 160.08 164.63 199.48 187.38 199.36 164.7"/><polygon class="cls-9" points="200.7 141.18 200.82 163.86 240.1 163.93 200.7 141.18"/><polygon class="cls-9" points="199.36 163.85 199.23 141.18 160.08 163.78 199.36 163.85"/><polygon class="cls-9" points="240.11 164.77 200.83 164.7 200.95 187.38 240.11 164.77"/><polygon class="cls-9" points="240.83 164.35 240.84 164.35 240.83 164.35 240.83 164.35"/><polygon class="cls-9" points="200.22 187.8 200.22 187.8 200.22 187.8 200.22 187.8"/></g><g class="cls-108"><polygon class="cls-9" points="243.22 190.16 203.94 190.09 243.35 212.84 243.22 190.16"/><polygon class="cls-9" points="244.56 166.64 244.68 189.32 283.96 189.39 244.56 166.64"/><polygon class="cls-29" points="243.22 189.32 243.09 166.64 203.94 189.24 243.22 189.32"/><polygon class="cls-9" points="283.97 190.23 244.69 190.16 244.81 212.84 283.97 190.23"/><polygon class="cls-29" points="284.7 189.81 284.7 189.81 284.7 189.81 284.7 189.81"/><polygon class="cls-29" points="244.08 213.26 244.08 213.26 244.08 213.26 244.08 213.26"/></g><g class="cls-118"><path d="M343.95,115.57l2.64-1.53-11.32-6.53-2.64,1.53,11.32,6.54Zm-16-5.25l-2.64,1.53,13.5,7.79,2.64-1.53-13.5-7.79Zm27.46,11.86l2.64-1.53-9.27-5.35-2.64,1.53,9.27,5.35Zm4.82-.27l-2.64,1.53,11.13,6.38,2.64-1.53-11.13-6.38Zm-16.6-2.54l-2.64,1.53,3.55,2.05,2.64-1.53-3.55-2.05Zm-16.79-16.76l-19.48-11.16-2.64,1.53,19.48,11.16,2.64-1.53Zm3.61,5.15l2.64-1.53-4.07-2.37-2.64,1.53,4.07,2.37Zm-11.77-2.81l-2.64,1.53,7.09,4.09,2.64-1.53-7.09-4.09Zm-9.88-5.65l-2.64,1.53,7.7,4.39,2.64-1.53-7.7-4.39Zm37.92,24.89l9.68,5.59,2.64-1.53-9.68-5.59-2.64,1.53Z"/></g><path class="cls-63" d="M343.95,114.54l2.64-1.53-11.32-6.54-2.64,1.53,11.32,6.54Zm-16-5.25l-2.64,1.53,13.5,7.79,2.64-1.53-13.5-7.79Zm27.46,11.86l2.64-1.53-9.27-5.35-2.64,1.53,9.27,5.35Zm4.82-.27l-2.64,1.53,11.13,6.38,2.64-1.53-11.13-6.38Zm-16.6-2.54l-2.64,1.53,3.55,2.05,2.64-1.53-3.55-2.05Zm-16.79-16.76l-19.48-11.16-2.64,1.53,19.48,11.16,2.64-1.53Zm3.61,5.15l2.64-1.53-4.07-2.37-2.64,1.53,4.07,2.37Zm-11.77-2.81l-2.64,1.53,7.09,4.09,2.64-1.53-7.09-4.09Zm-9.88-5.65l-2.64,1.53,7.7,4.39,2.64-1.53-7.7-4.39Zm37.92,24.89l9.68,5.59,2.64-1.53-9.68-5.59-2.64,1.53Z"/><g><g class="cls-7"><path class="cls-51" d="M324.35,149.12c-2.72,0-5.15-.58-7.05-1.67l-16.72-9.65-16.72-9.65c-2.29-1.32-3.61-3.37-3.61-5.6,0-2.52,1.66-4.93,4.55-6.6,2.44-1.41,5.64-2.22,8.78-2.22,2.72,0,5.15,.58,7.04,1.67l16.72,9.65,16.72,9.65c2.29,1.32,3.61,3.37,3.61,5.6,0,2.52-1.66,4.93-4.55,6.6-2.44,1.41-5.64,2.22-8.77,2.22Z"/><path class="cls-164" d="M285.43,116.14h0c2.38-1.37,5.5-2.15,8.55-2.15,2.27,0,4.34,.43,6.04,1.22,.26,.12,.56,.28,.81,.42l16.29,9.4,1.36,.79,14.92,8.61c1.22,.71,2.35,1.78,2.92,2.83,.43,.79,.69,1.63,.72,2.52,.08,2.43-1.49,4.8-4.34,6.44h0c-2.38,1.37-5.5,2.16-8.55,2.15-2.27,0-4.34-.43-6.05-1.22-.26-.12-.56-.28-.81-.42l-16.29-9.4-1.36-.79-14.92-8.61c-1.22-.71-2.35-1.78-2.92-2.83-.43-.79-.69-1.63-.72-2.52-.08-2.43,1.49-4.8,4.34-6.44Z"/><path class="cls-125" d="M286.06,116.34h0c2.32-1.34,5.36-2.09,8.32-2.09,2.21,0,4.22,.43,5.88,1.21,.23,.11,.56,.28,.78,.41l15.85,9.15,1.33,.77,14.52,8.38c1.1,.63,2.36,1.77,2.89,2.7,.44,.76,.73,1.55,.79,2.4,.16,2.34-1.32,4.66-4.12,6.28h0c-2.32,1.34-5.36,2.09-8.32,2.09-2.21,0-4.22-.43-5.88-1.21-.24-.11-.56-.28-.78-.41l-15.85-9.15-1.33-.77-14.52-8.38c-1.1-.64-2.36-1.77-2.89-2.7-.43-.76-.73-1.55-.79-2.39-.16-2.34,1.32-4.66,4.12-6.28Z"/><path class="cls-157" d="M286.68,116.53h0c2.26-1.31,5.22-2.03,8.09-2.02,2.14,0,4.11,.43,5.71,1.19,.21,.1,.56,.29,.75,.4l15.42,8.9,1.29,.75,14.11,8.15c.98,.56,2.37,1.75,2.86,2.57,.44,.73,.78,1.47,.86,2.27,.25,2.26-1.15,4.53-3.91,6.12h0c-2.26,1.31-5.22,2.03-8.09,2.02-2.14,0-4.11-.43-5.71-1.19-.21-.1-.56-.29-.75-.4l-15.42-8.9-1.29-.75-14.11-8.15c-.98-.56-2.37-1.75-2.86-2.57-.44-.73-.78-1.47-.86-2.27-.25-2.26,1.15-4.53,3.91-6.12Z"/><path class="cls-137" d="M287.31,116.73h0c2.2-1.27,5.08-1.97,7.86-1.96,2.08,.01,3.99,.43,5.54,1.17,.18,.09,.56,.29,.73,.39l14.98,8.65,1.26,.73,13.71,7.91c.86,.49,2.38,1.73,2.83,2.43s.82,1.39,.94,2.15c.33,2.17-.99,4.39-3.7,5.96h0c-2.2,1.27-5.08,1.97-7.86,1.96-2.08-.01-3.99-.43-5.54-1.17-.18-.09-.56-.29-.73-.39l-14.98-8.65-1.26-.73-13.71-7.91c-.86-.49-2.38-1.73-2.83-2.43s-.82-1.39-.93-2.15c-.33-2.17,.99-4.39,3.7-5.96Z"/><path class="cls-140" d="M287.93,116.93h0c2.14-1.24,4.94-1.91,7.63-1.89,2.02,.01,3.87,.43,5.37,1.16,.16,.08,.55,.29,.7,.38l14.54,8.4,1.22,.71,13.31,7.68c.73,.42,2.4,1.71,2.8,2.3,.45,.68,.86,1.31,1.01,2.03,.42,2.08-.82,4.26-3.48,5.79h0c-2.14,1.24-4.94,1.91-7.63,1.89-2.02-.01-3.87-.43-5.37-1.16-.16-.08-.56-.29-.7-.38l-14.54-8.4-1.22-.71-13.31-7.68c-.73-.42-2.4-1.71-2.8-2.3-.45-.68-.86-1.31-1.01-2.03-.42-2.08,.82-4.26,3.48-5.79Z"/><path class="cls-68" d="M288.56,117.13h0c2.08-1.2,4.8-1.85,7.4-1.82,1.95,.02,3.75,.43,5.2,1.14,.13,.06,.55,.3,.67,.37l14.11,8.15,1.19,.69,12.9,7.45c.61,.35,2.42,1.68,2.77,2.17,.46,.65,.9,1.23,1.08,1.91,.5,1.99-.65,4.12-3.27,5.63h0c-2.08,1.2-4.8,1.85-7.4,1.83-1.95-.02-3.75-.43-5.2-1.14-.13-.06-.55-.3-.67-.37l-14.11-8.15-1.19-.69-12.9-7.45c-.61-.35-2.42-1.68-2.77-2.17-.46-.65-.9-1.23-1.08-1.91-.5-1.99,.65-4.12,3.27-5.63Z"/><path class="cls-28" d="M289.19,117.32h0c2.03-1.17,4.66-1.79,7.17-1.76,1.89,.02,3.63,.43,5.04,1.12,.1,.05,.55,.3,.65,.36l13.67,7.9,1.15,.67,12.5,7.22c.49,.28,2.45,1.65,2.73,2.04,.47,.63,.95,1.15,1.15,1.79,.59,1.9-.48,3.99-3.05,5.47h0c-2.02,1.17-4.66,1.79-7.17,1.76-1.89-.02-3.63-.43-5.04-1.12-.1-.05-.55-.3-.65-.36l-13.67-7.89-1.15-.67-12.5-7.22c-.49-.28-2.45-1.65-2.73-2.04-.47-.63-.95-1.15-1.15-1.79-.59-1.9,.48-3.99,3.05-5.47Z"/><path class="cls-53" d="M289.81,117.52h0c1.97-1.13,4.52-1.73,6.94-1.69,1.83,.02,3.51,.43,4.87,1.11,.08,.04,.55,.3,.62,.35l13.24,7.64,1.12,.65,12.09,6.98c.37,.21,2.54,1.59,2.7,1.9,.59,.5,.99,1.07,1.22,1.67,.68,1.81-.31,3.85-2.84,5.31h0c-1.97,1.13-4.52,1.73-6.94,1.69-1.83-.02-3.52-.43-4.87-1.11-.08-.04-.55-.3-.62-.35l-13.24-7.64-1.12-.65-12.09-6.98c-.37-.21-2.54-1.59-2.7-1.9-.59-.5-.99-1.07-1.22-1.67-.68-1.81,.31-3.85,2.84-5.31Z"/><path class="cls-88" d="M290.44,117.72h0c1.91-1.1,4.38-1.66,6.72-1.63,1.76,.03,3.4,.43,4.7,1.09,.05,.03,.55,.31,.59,.33l12.8,7.39,1.08,.63,11.69,6.75c.24,.14,2.56,1.56,2.67,1.77,.61,.46,1.04,.99,1.29,1.55,.77,1.72-.14,3.72-2.62,5.15h0c-1.91,1.1-4.38,1.66-6.71,1.63-1.76-.03-3.4-.43-4.7-1.09-.05-.03-.55-.31-.6-.33l-12.8-7.39-1.08-.63-11.69-6.75c-.24-.14-2.56-1.56-2.67-1.77-.61-.46-1.04-.99-1.29-1.55-.77-1.72,.14-3.72,2.62-5.15Z"/><path class="cls-130" d="M291.06,117.92h0c1.85-1.07,4.24-1.6,6.49-1.56,1.7,.03,3.28,.43,4.53,1.07,.03,.01,.54,.31,.57,.32l12.37,7.14,1.05,.61,11.29,6.52c.12,.07,2.58,1.53,2.64,1.64,.63,.42,1.08,.9,1.36,1.43,.87,1.62,.02,3.58-2.41,4.99h0c-1.85,1.07-4.24,1.6-6.49,1.56-1.7-.03-3.28-.43-4.53-1.07-.03-.01-.54-.31-.57-.32l-12.37-7.14-1.05-.61-11.29-6.52c-.12-.07-2.58-1.53-2.64-1.64-.63-.42-1.08-.9-1.36-1.43-.87-1.63-.02-3.58,2.41-4.99Z"/><path class="cls-98" d="M317.9,139.82l-13.49-7.79-13.49-7.79c-2.72-1.57-2.38-4.32,.76-6.13h0c3.14-1.81,7.9-2.01,10.62-.44l13.49,7.79,13.49,7.79c2.72,1.57,2.38,4.32-.76,6.13h0c-3.14,1.81-7.9,2.01-10.62,.44Z"/></g><path class="cls-94" d="M318.63,136.05l-33.44-19.31c-3.37-1.95-2.95-5.35,.95-7.6h0c3.9-2.25,9.79-2.49,13.16-.55l33.44,19.31c3.37,1.95,2.95,5.35-.94,7.6h0c-3.9,2.25-9.79,2.49-13.16,.55Z"/><polygon class="cls-9" points="318.09 126.61 317.22 123.67 315.81 124.48 306.77 119.26 305.37 120.07 314.41 125.29 313 126.1 318.09 126.61"/><path class="cls-9" d="M327.77,131.56l-.05-.03,1.31-.76c.84-.49,.84-1.28,0-1.76l-1.06-.61c-.85-.49-2.21-.49-3.06,0l-1.31,.76-.05-.03c-.39-.23-1.03-.23-1.42,0l-3.26,1.88c-.39,.23-.39,.59,0,.82l4.23,2.44c.39,.23,1.03,.23,1.42,0l3.26-1.88c.39-.23,.39-.59,0-.82Zm-4.57,.5l-.77,.44-.53-.31,.77-.44c-.11-.18-.05-.39,.2-.53,.34-.2,.89-.2,1.24,0s.34,.52,0,.71c-.25,.14-.61,.18-.91,.12Zm3.63-1.05l-2.34-1.35,1.05-.61c.48-.28,1.26-.27,1.74,0l.6,.35c.48,.28,.48,.73,0,1l-1.05,.61Z"/></g><path class="cls-75" d="M277.85,188.48c-1-.58-2.42-.75-3.68-.53,.39-.72,.08-1.55-.91-2.12-1.43-.83-3.74-.83-5.16,0-2.6,1.5-.93,6.17-.93,6.17,0,0,8.1,.97,10.69-.53,1.42-.82,1.41-2.16-.02-2.98Z"/><g><g><path class="cls-51" d="M183.49,231.2l-68.82-39.97c-4.42-2.55-4.53-8.89-.21-11.6l86.65-55.17c2.12-1.33,4.81-1.38,6.98-.12l73.28,42.61c4.5,2.6,4.51,9.1,.01,11.71l-91.11,52.53c-2.1,1.22-4.68,1.22-6.78,0Z"/><path class="cls-164" d="M183.92,230.19l-67.34-39.11c-4.45-2.57-4.55-8.96-.19-11.67l84.68-53.56c2.13-1.33,4.82-1.37,7-.11l71.39,41.52c4.53,2.62,4.53,9.15,.01,11.77l-88.73,51.15c-2.11,1.22-4.71,1.23-6.82,0Z"/><path class="cls-125" d="M184.35,229.17l-65.86-38.26c-4.48-2.59-4.58-9.02-.17-11.74l82.71-51.94c2.14-1.32,4.83-1.36,7.01-.1l69.51,40.42c4.55,2.63,4.56,9.19,.01,11.83l-86.35,49.78c-2.12,1.23-4.73,1.23-6.85,0Z"/><path class="cls-157" d="M184.78,228.16l-64.38-37.41c-4.51-2.61-4.6-9.09-.16-11.81l80.73-50.32c2.15-1.32,4.85-1.35,7.03-.09l67.62,39.33c4.57,2.64,4.58,9.24,.01,11.89l-83.97,48.4c-2.13,1.24-4.76,1.24-6.89,0Z"/><path class="cls-137" d="M185.21,227.14l-62.9-36.55c-4.54-2.62-4.62-9.15-.14-11.88l78.76-48.71c2.16-1.31,4.86-1.35,7.05-.08l65.74,38.23c4.6,2.66,4.6,9.29,.01,11.95l-81.59,47.03c-2.14,1.24-4.78,1.25-6.92,0Z"/><path class="cls-140" d="M185.64,226.13l-61.42-35.7c-4.57-2.64-4.64-9.22-.12-11.95l76.78-47.09c2.17-1.31,4.87-1.34,7.07-.07l63.86,37.14c4.62,2.67,4.63,9.33,.02,12.01l-79.22,45.65c-2.15,1.25-4.81,1.25-6.96,0Z"/><path class="cls-68" d="M186.08,225.11l-59.94-34.85c-4.61-2.66-4.66-9.29-.1-12.02l74.81-45.48c2.17-1.31,4.89-1.33,7.08-.06l61.97,36.05c4.64,2.68,4.65,9.38,.02,12.08l-76.84,44.28c-2.16,1.26-4.83,1.26-7,0Z"/><path class="cls-28" d="M186.51,224.09l-58.47-33.99c-4.64-2.68-4.68-9.35-.09-12.09l72.83-43.86c2.18-1.3,4.9-1.32,7.1-.05l60.09,34.95c4.67,2.7,4.68,9.43,.02,12.14l-74.46,42.9c-2.17,1.26-4.85,1.27-7.03,.01Z"/><path class="cls-53" d="M186.94,223.08l-56.99-33.14c-4.67-2.69-4.71-9.42-.07-12.17l70.86-42.25c2.19-1.3,4.91-1.32,7.12-.04l58.2,33.86c4.69,2.71,4.7,9.47,.02,12.2l-72.08,41.53c-2.18,1.27-4.88,1.27-7.07,.01Z"/><path class="cls-88" d="M187.37,222.06l-55.51-32.28c-4.7-2.71-4.73-9.48-.05-12.24l68.89-40.63c2.2-1.3,4.93-1.31,7.14-.03l56.32,32.76c4.71,2.72,4.72,9.52,.02,12.26l-69.7,40.15c-2.19,1.28-4.9,1.28-7.1,.01Z"/><path class="cls-130" d="M187.8,221.05l-54.03-31.43c-4.73-2.73-4.75-9.55-.04-12.31l66.91-39.02c2.21-1.29,4.94-1.3,7.15-.02l54.43,31.67c4.74,2.74,4.75,9.57,.02,12.32l-67.32,38.78c-2.21,1.28-4.93,1.29-7.14,.01Z"/><path class="cls-98" d="M188.23,220.03l-52.55-30.58c-4.76-2.75-4.77-9.62-.02-12.38l64.94-37.4c2.22-1.29,4.95-1.29,7.17-.01l52.55,30.58c4.76,2.75,4.77,9.62,.02,12.38l-64.94,37.4c-2.22,1.29-4.95,1.29-7.17,.01Z"/></g><polygon class="cls-120" points="188.96 219.27 105.5 170.77 202.18 115.07 285.64 163.58 188.96 219.27"/><polygon class="cls-78" points="188.96 218.26 106.96 169.93 105.5 170.77 188.96 219.27 285.58 163.6 284.13 163.43 188.96 218.26"/><path class="cls-22" d="M175.31,185.89l-6.87-3.97-1.96,1.13,6.87,3.97,1.96-1.13Zm2.16-1.71l7.17,4.14,1.96-1.13-7.17-4.14-1.96,1.13Zm10.78,1.01l3.13,1.81,1.96-1.13-3.13-1.81-1.96,1.13Zm-8.53,5.51l6.87,3.97,1.96-1.13-6.87-3.97-1.96,1.13Zm6.54-1.44l3.07,1.77,1.96-1.13-3.07-1.77-1.96,1.13Zm-40.01-23.1l3.94,2.27,1.96-1.13-3.94-2.27-1.96,1.13Zm10.57,9.06l-2.42-1.4-1.96,1.13,2.42,1.4,1.96-1.13Zm2.19-3.95l-5.25-3.03-1.96,1.13,5.25,3.03,1.96-1.13Zm11.62,6.71l-10-5.77-1.96,1.13,10,5.77,1.96-1.13Zm1.98,11.57l-7.17-4.14-1.96,1.13,7.17,4.14,1.96-1.13Zm-19.42-24.6l10.91,6.3,1.96-1.13-10.91-6.3-1.96,1.13Zm26.57,15.34l6.87,3.97,1.96-1.13-6.87-3.97-1.96,1.13Zm-7.01,16.82l1.96-1.13-2.68-1.55-1.96,1.13,2.68,1.55Zm14.1,.67l-12.63-7.29-1.96,1.13,12.63,7.29,1.96-1.13Zm-6.75-19.55l-8.39-4.84-1.96,1.13,8.39,4.84,1.96-1.13Zm-24.97,1.23l-8.49-4.9-1.96,1.13,8.49,4.9,1.96-1.13Zm22.67,2.66l-5.56-3.21-1.96,1.13,5.56,3.21,1.96-1.13Zm-32.78-8.49l-5.25-3.03-1.96,1.13,5.25,3.03,1.96-1.13Zm-5.12-5.91l10.91,6.3,1.96-1.13-10.91-6.3-1.96,1.13Zm7.98,12.78l-10.91-6.3-1.96,1.13,10.91,6.3,1.96-1.13Zm18.94,.5l-8.39-4.84-1.96,1.13,8.39,4.84,1.96-1.13Zm3.59,12.51l-6.87-3.97-1.96,1.13,6.87,3.97,1.96-1.13Zm-18.83-8.61l8.39,4.84,1.96-1.13-8.39-4.84-1.96,1.13Zm12.23-.41l-7.07-4.08-1.96,1.13,7.07,4.08,1.96-1.13Zm-16.27-1.92l2.42,1.4,1.96-1.13-2.42-1.4-1.96,1.13Zm57.41,10.02l-1.96,1.13,8.75,5.02,1.96-1.13-8.75-5.02Zm-9.02,7.48l6.78,3.89,1.96-1.13-6.78-3.89-1.96,1.13Zm-9.27-.13l11.52,6.63,1.96-1.13-11.52-6.63-1.96,1.13Zm-33.13-37.04l-10.15-5.8-1.96,1.13,10.15,5.8,1.96-1.13Zm39.46,25.04l8.39,4.84,1.96-1.13-8.39-4.84-1.96,1.13Zm-27.28-15.75l2.42,1.4,1.96-1.13-2.42-1.4-1.96,1.13Zm43.31,27.94l-16.42-9.46-1.96,1.13,16.42,9.46,1.96-1.13Zm-12.42-1.93l-6.45-3.73-1.96,1.13,6.45,3.73,1.96-1.13Zm-16.56-9.56l-3.13-1.81-1.96,1.13,3.13,1.81,1.96-1.13Zm-33.47-24.54l-7.73-4.4-1.96,1.13,7.73,4.4,1.96-1.13Zm-11.23,9.17l-10.05-5.74-1.96,1.13,10.05,5.74,1.96-1.13Zm2.8-3.6l-8.34-4.75-1.96,1.13,8.34,4.75,1.96-1.13Zm2.09-4.01l-5.91-3.35-1.96,1.13,5.91,3.35,1.96-1.13Z"/><g><polygon class="cls-8" points="270.73 164.8 262.35 159.96 260.39 161.09 268.77 165.93 270.73 164.8"/><polygon class="cls-8" points="248.16 151.71 242.04 148.17 240.08 149.3 246.2 152.84 248.16 151.71"/><polygon class="cls-8" points="246.88 156.18 237.52 150.78 235.56 151.91 244.92 157.31 246.88 156.18"/><polygon class="cls-8" points="260.69 158.94 249.78 152.64 247.82 153.77 258.73 160.07 260.69 158.94"/><polygon class="cls-8" points="259.3 163.36 254.05 160.32 252.09 161.45 257.35 164.49 259.3 163.36"/><polygon class="cls-8" points="248.49 157.12 246.54 158.25 250.48 160.52 252.43 159.39 248.49 157.12"/></g><g class="cls-7"><polygon class="cls-8" points="228.83 162.05 232.77 164.33 234.73 163.2 230.79 160.92 228.83 162.05"/><polygon class="cls-8" points="239.41 171.11 236.98 169.71 235.02 170.84 237.45 172.24 239.41 171.11"/><polygon class="cls-8" points="241.6 167.16 236.35 164.13 234.39 165.26 239.64 168.29 241.6 167.16"/><polygon class="cls-8" points="235.77 160.84 246.69 167.14 248.64 166.01 237.73 159.71 235.77 160.84"/><polygon class="cls-8" points="222.5 163.61 233.41 169.91 235.36 168.78 224.45 162.48 222.5 163.61"/><polygon class="cls-8" points="236.12 158.78 229.89 155.19 227.93 156.32 234.16 159.91 236.12 158.78"/><polygon class="cls-8" points="248.3 168.08 250.73 169.48 252.68 168.35 250.26 166.95 248.3 168.08"/><polygon class="cls-8" points="229.17 159.99 225.37 157.79 223.41 158.92 227.22 161.12 229.17 159.99"/><polygon class="cls-8" points="222.84 161.55 220.85 160.4 218.9 161.53 220.88 162.68 222.84 161.55"/></g><g><polygon class="cls-94" points="200.38 146.26 163.49 146.19 200.5 167.56 200.38 146.26"/><polygon class="cls-94" points="201.64 124.17 201.75 145.47 238.65 145.53 201.64 124.17"/><polygon class="cls-94" points="200.38 145.47 200.26 124.16 163.48 145.4 200.38 145.47"/><polygon class="cls-94" points="238.65 146.33 201.76 146.26 201.87 167.56 238.65 146.33"/><polygon class="cls-169" points="239.34 145.93 239.34 145.93 239.34 145.93 239.34 145.93"/></g><path class="cls-75" d="M222.85,168.39c-1-.58-2.42-.75-3.68-.53,.39-.72,.08-1.55-.91-2.12-1.43-.83-3.74-.83-5.16,0-2.6,1.5-.93,6.17-.93,6.17,0,0,8.1,.97,10.69-.53,1.42-.82,1.41-2.16-.02-2.98Z"/><g><polygon class="cls-27" points="208.93 146.63 201.08 151.16 193.18 146.6 187.26 150.02 201.12 158.02 214.89 150.07 208.93 146.63"/><polygon class="cls-27" points="201.07 149.42 207.41 145.76 201.03 142.07 194.69 145.74 201.07 149.42"/><polygon class="cls-27" points="201.02 140.35 216.38 149.21 223.05 145.36 200.98 132.62 179.05 145.28 185.76 149.16 201.02 140.35"/></g></g><g><g><path class="cls-51" d="M238.14,160.99l-62.43-36.04c-6.47-3.74-6.49-13.08-.02-16.83l77.36-44.8c3.01-1.75,6.73-1.75,9.75-.01l62.43,36.04c6.47,3.74,6.49,13.08,.02,16.83l-77.36,44.8c-3.01,1.75-6.73,1.75-9.75,.01Z"/><path class="cls-164" d="M238.58,160.04l-61.77-35.67c-6.31-3.64-6.32-12.75-.02-16.4l75.93-43.97c2.94-1.7,6.56-1.71,9.5-.01l61.77,35.67c6.31,3.64,6.32,12.75,.02,16.4l-75.93,43.97c-2.94,1.71-6.56,1.71-9.5,.01Z"/><path class="cls-125" d="M239.01,159.1l-61.12-35.29c-6.14-3.55-6.16-12.41-.02-15.98l74.51-43.15c2.86-1.66,6.39-1.67,9.25-.01l61.12,35.29c6.14,3.55,6.16,12.41,.02,15.98l-74.51,43.15c-2.86,1.66-6.39,1.67-9.25,.01Z"/><path class="cls-157" d="M239.45,158.16l-60.47-34.91c-5.98-3.45-5.99-12.08-.02-15.55l73.08-42.32c2.78-1.62,6.22-1.62,9.01-.01l60.47,34.91c5.98,3.45,5.99,12.08,.02,15.55l-73.08,42.32c-2.78,1.62-6.22,1.62-9.01,.01Z"/><path class="cls-137" d="M239.88,157.22l-59.82-34.54c-5.82-3.36-5.83-11.75-.02-15.12l71.65-41.5c2.71-1.57,6.05-1.58,8.76-.01l59.82,34.54c5.82,3.36,5.83,11.75,.02,15.12l-71.65,41.5c-2.71,1.57-6.05,1.58-8.76,.01Z"/><path class="cls-140" d="M240.31,156.28l-59.17-34.16c-5.65-3.26-5.66-11.42-.02-14.7l70.22-40.68c2.63-1.53,5.88-1.53,8.51-.01l59.17,34.16c5.65,3.26,5.66,11.42,.02,14.7l-70.22,40.68c-2.63,1.53-5.88,1.53-8.51,.01Z"/><path class="cls-68" d="M240.75,155.34l-58.52-33.79c-5.49-3.17-5.5-11.08-.02-14.27l68.79-39.85c2.55-1.48,5.71-1.49,8.26-.01l58.52,33.79c5.49,3.17,5.5,11.08,.02,14.27l-68.79,39.85c-2.55,1.48-5.71,1.49-8.26,.01Z"/><path class="cls-28" d="M241.18,154.4l-57.87-33.41c-5.32-3.07-5.33-10.75-.02-13.84l67.36-39.03c2.48-1.44,5.54-1.44,8.02-.01l57.87,33.41c5.32,3.07,5.33,10.75,.02,13.84l-67.36,39.03c-2.48,1.44-5.54,1.44-8.02,.01Z"/><path class="cls-53" d="M241.61,153.46l-57.22-33.04c-5.16-2.98-5.17-10.42-.02-13.41l65.93-38.2c2.4-1.4,5.37-1.4,7.77-.01l57.22,33.04c5.16,2.98,5.17,10.42,.02,13.41l-65.93,38.2c-2.4,1.4-5.37,1.4-7.77,.01Z"/><path class="cls-88" d="M242.05,152.52l-56.57-32.66c-4.99-2.88-5.01-10.09-.02-12.99l64.51-37.38c2.32-1.35,5.2-1.36,7.52-.01l56.57,32.66c4.99,2.88,5.01,10.09,.02,12.99l-64.51,37.38c-2.32,1.35-5.2,1.36-7.52,.01Z"/><path class="cls-130" d="M242.48,151.58l-55.92-32.28c-4.83-2.79-4.84-9.76-.02-12.56l63.08-36.55c2.25-1.31,5.02-1.31,7.28-.01l55.92,32.28c4.83,2.79,4.84,9.76,.02,12.56l-63.08,36.55c-2.25,1.31-5.02,1.31-7.28,.01Z"/><path class="cls-98" d="M242.92,150.63l-55.27-31.91c-4.67-2.69-4.68-9.42-.02-12.13l61.65-35.73c2.17-1.26,4.85-1.27,7.03-.01l55.27,31.91c4.67,2.69,4.68,9.42,.02,12.13l-61.65,35.73c-2.17,1.26-4.85,1.27-7.03,.01Z"/></g><polygon class="cls-87" points="244.05 150.31 165.08 104.71 251.78 54.61 330.76 100.21 244.05 150.31"/><polygon class="cls-94" points="318.15 107.45 239.17 61.85 255.37 52.54 334.35 98.14 318.15 107.45"/><polygon class="cls-9" points="286.28 113.33 228.08 79.73 240.23 72.91 298.43 106.51 286.28 113.33"/><polygon class="cls-9" points="269.09 123.41 210.9 89.81 223.05 82.99 281.24 116.59 269.09 123.41"/><path class="cls-94" d="M240.12,138.14l-30.15-17.41c-2.93-1.69-2.56-4.64,.82-6.59h0c3.38-1.95,8.49-2.16,11.42-.47l30.15,17.41c2.93,1.69,2.56,4.64-.82,6.59h0c-3.38,1.95-8.49,2.16-11.42,.47Z"/><polygon class="cls-106" points="267.3 133.63 193.38 90.95 194.05 90.66 267.97 133.34 267.3 133.63"/><path class="cls-22" d="M318,97.79h4.05c.35,0,.64-.16,.63-.36,0-.2-.29-.37-.64-.37h-4.05s-.01-2.35-.01-2.35c0-.2-.29-.37-.64-.37-.35,0-.64,.16-.63,.37v2.34s-4.04,0-4.04,0c-.35,0-.64,.16-.63,.37,0,.1,.07,.19,.19,.26s.27,.11,.45,.11h4.05s.01,2.35,.01,2.35c0,.1,.07,.19,.19,.26s.27,.11,.45,.11c.35,0,.64-.16,.63-.37v-2.34Z"/><polygon class="cls-78" points="244.05 149.47 166.29 104.01 165.08 104.71 244.05 150.31 334.17 98.15 332.96 98.01 244.05 149.47"/><polygon class="cls-9" points="238.78 129.8 237.9 126.86 236.49 127.67 227.45 122.46 226.06 123.26 235.09 128.48 233.69 129.29 238.78 129.8"/><g><polygon class="cls-10" points="246.73 133.57 244.52 134.85 242.29 133.56 240.62 134.53 244.53 136.79 248.41 134.54 246.73 133.57"/><polygon class="cls-10" points="244.52 134.36 246.31 133.33 244.5 132.29 242.72 133.32 244.52 134.36"/><polygon class="cls-10" points="244.5 131.8 248.84 134.3 250.72 133.21 244.49 129.62 238.3 133.19 240.2 134.28 244.5 131.8"/></g><path class="cls-26" d="M241.62,82.18c-.33-.31-.52-.67-.53-1.02,0-.21,.3-.38,.67-.38,.48,0,.98-.05,1.44-.16,.25,.09,.69,.12,.93-.02,.24-.14,.32-.33,.21-.46,.97-.62,1.42-1.35,.04-2.15-1.38-.8-2.66-.54-3.73,.02-.22-.07-.54-.02-.79,.12-.24,.14-.18,.39-.03,.54-.19,.27-.27,.56-.27,.83,0,.21-.3,.39-.67,.39-.61,0-1.22-.11-1.76-.31-.72-.26-1.67-.21-2.29,.15l-1.08,.62c-.21,.12-.21,.32,0,.44l5.76,3.32c.21,.12,.55,.12,.76,0l1.08-.62c.62-.36,.71-.91,.26-1.32Z"/><path class="cls-26" d="M226.81,90.89l-.05-.03,1.31-.76c.84-.49,.84-1.28,0-1.76l-1.06-.61c-.85-.49-2.21-.49-3.06,0l-1.31,.76-.05-.03c-.39-.23-1.03-.23-1.42,0l-3.26,1.88c-.39,.23-.39,.59,0,.82l4.23,2.44c.39,.23,1.03,.23,1.42,0l3.26-1.88c.39-.23,.39-.59,0-.82Zm-4.57,.5l-.77,.44-.53-.31,.77-.44c-.11-.18-.05-.39,.2-.53,.34-.2,.89-.2,1.24,0,.34,.2,.34,.52,0,.71-.25,.14-.6,.18-.91,.12Zm3.63-1.05l-2.34-1.35,1.05-.61c.48-.28,1.26-.27,1.74,0l.6,.35c.48,.28,.48,.73,0,1l-1.05,.61Z"/></g><g><g><path class="cls-51" d="M331.94,129.64l-77.64-45.42c-3.69-2.13-3.79-7.43-.17-9.7l21.42-16.71c1.78-1.11,4.02-1.15,5.83-.1l81.37,47.63c3.76,2.18,3.77,7.61,0,9.79l-25.15,14.5c-1.75,1.02-3.92,1.02-5.67,0Z"/><path class="cls-164" d="M332.3,128.79l-76.41-44.71c-3.72-2.15-3.81-7.49-.16-9.76l19.77-15.36c1.78-1.11,4.03-1.14,5.85-.09l79.8,46.72c3.78,2.19,3.79,7.65,.01,9.84l-23.16,13.35c-1.76,1.02-3.94,1.03-5.7,0Z"/><path class="cls-125" d="M332.66,127.94l-75.17-44c-3.75-2.16-3.83-7.54-.14-9.81l18.12-14.01c1.79-1.11,4.04-1.14,5.86-.09l78.22,45.8c3.8,2.2,3.81,7.69,.01,9.89l-21.17,12.2c-1.77,1.03-3.96,1.03-5.73,0Z"/><path class="cls-157" d="M333.02,127.09l-73.94-43.28c-3.77-2.18-3.84-7.6-.13-9.87l16.47-12.66c1.8-1.1,4.05-1.13,5.88-.08l76.65,44.89c3.82,2.21,3.83,7.73,.01,9.94l-19.18,11.05c-1.78,1.03-3.98,1.04-5.76,0Z"/><path class="cls-137" d="M333.38,126.24l-72.7-42.57c-3.8-2.19-3.86-7.65-.12-9.93l14.82-11.31c1.8-1.1,4.06-1.13,5.89-.07l75.07,43.97c3.84,2.22,3.85,7.76,.01,9.99l-17.19,9.9c-1.79,1.04-4,1.04-5.79,0Z"/><path class="cls-140" d="M333.74,125.39l-71.46-41.85c-3.82-2.21-3.88-7.71-.1-9.99l13.17-9.96c1.81-1.1,4.07-1.12,5.91-.06l73.5,43.06c3.86,2.23,3.87,7.8,.01,10.04l-15.2,8.75c-1.8,1.04-4.02,1.05-5.82,0Z"/><path class="cls-68" d="M334.1,124.54l-70.23-41.14c-3.85-2.22-3.9-7.76-.09-10.05l11.52-8.61c1.82-1.09,4.09-1.11,5.92-.05l71.92,42.15c3.88,2.24,3.89,7.84,.01,10.1l-13.21,7.6c-1.81,1.05-4.04,1.05-5.85,0Z"/><path class="cls-28" d="M334.46,123.69l-68.99-40.43c-3.88-2.24-3.92-7.82-.07-10.11l9.87-7.26c1.82-1.09,4.1-1.11,5.94-.04l70.35,41.23c3.9,2.25,3.91,7.88,.01,10.15l-11.23,6.45c-1.82,1.06-4.06,1.06-5.88,0Z"/><path class="cls-53" d="M334.82,122.85l-67.75-39.71c-3.9-2.25-3.93-7.87-.06-10.17l8.22-5.91c1.83-1.09,4.11-1.1,5.95-.03l68.77,40.32c3.92,2.26,3.93,7.92,.01,10.2l-9.24,5.3c-1.83,1.06-4.08,1.06-5.91,0Z"/><path class="cls-88" d="M335.18,122l-66.52-39c-3.93-2.27-3.95-7.93-.04-10.23l6.57-4.55c1.84-1.08,4.12-1.09,5.97-.03l67.2,39.4c3.94,2.28,3.95,7.96,.01,10.25l-7.25,4.15c-1.83,1.07-4.1,1.07-5.94,0Z"/><path class="cls-130" d="M335.54,121.15l-65.28-38.29c-3.95-2.28-3.97-7.98-.03-10.29l4.92-3.2c1.85-1.08,4.13-1.09,5.98-.02l65.62,38.49c3.96,2.29,3.97,8,.02,10.3l-5.26,3c-1.84,1.07-4.12,1.08-5.97,0Z"/><path class="cls-98" d="M335.9,120.3l-64.05-37.57c-3.98-2.3-3.99-8.04-.02-10.35l3.27-1.85c1.85-1.08,4.14-1.08,6,0l64.05,37.57c3.98,2.3,3.99,8.04,.02,10.35l-3.27,1.85c-1.85,1.08-4.14,1.08-6,0Z"/></g><polygon class="cls-94" points="337.96 122.27 254.5 73.77 283.22 57.24 366.68 105.74 337.96 122.27"/><polygon class="cls-78" points="337.96 121.26 255.96 72.93 254.5 73.77 337.96 122.27 366.63 105.76 365.17 105.59 337.96 121.26"/><polygon class="cls-9" points="339.47 112.41 271.9 73.31 284.05 66.49 351.63 105.59 339.47 112.41"/><path class="cls-26" d="M340.76,109.75v-2.27c-.01-.24-.3-.44-.68-.5v-.66c2-.16,3.54-1.14,3.53-2.34,0-1.31-1.85-2.38-4.13-2.38s-4.11,1.06-4.1,2.37c0,1.2,1.56,2.19,3.56,2.36v.66c-.38,.06-.66,.26-.66,.49v2.27c.01,.28,.41,.52,.91,.52h.67c.49,0,.89-.23,.89-.51Zm-1.25-4.22c-1.5,0-2.71-.71-2.72-1.57s1.2-1.56,2.7-1.56c1.5,0,2.71,.71,2.72,1.57,0,.86-1.2,1.56-2.7,1.56Z"/></g><g><g><path class="cls-51" d="M304.99,96.49l-31.1-17.19c-2.24-1.29-2.25-4.52-.02-5.82l35.01-20.41c1.04-.61,2.33-.61,3.37-.01l31.1,17.19c2.24,1.29,2.25,4.52,.02,5.82l-35.01,20.41c-1.04,.61-2.33,.61-3.37,.01Z"/><path class="cls-164" d="M305.1,95.8l-30.25-16.71c-2.25-1.29-2.27-4.54-.02-5.85l33.7-19.66c1.05-.61,2.34-.61,3.39-.01l30.25,16.71c2.25,1.29,2.27,4.54,.02,5.85l-33.7,19.66c-1.05,.61-2.34,.61-3.39,.01Z"/><path class="cls-125" d="M305.22,95.1l-29.4-16.22c-2.27-1.3-2.28-4.57-.02-5.88l32.39-18.9c1.05-.61,2.35-.62,3.41-.01l29.4,16.22c2.27,1.3,2.28,4.57,.02,5.88l-32.39,18.9c-1.05,.61-2.35,.62-3.41,.01Z"/><path class="cls-157" d="M305.34,94.41l-28.56-15.74c-2.28-1.31-2.29-4.59-.02-5.91l31.09-18.14c1.06-.62,2.36-.62,3.42-.01l28.56,15.74c2.28,1.31,2.29,4.59,.02,5.91l-31.09,18.14c-1.06,.62-2.36,.62-3.42,.01Z"/><path class="cls-137" d="M305.45,93.72l-27.71-15.25c-2.29-1.31-2.3-4.61-.02-5.94l29.78-17.38c1.06-.62,2.37-.62,3.44-.01l27.71,15.25c2.29,1.31,2.3,4.61,.02,5.94l-29.78,17.38c-1.06,.62-2.37,.62-3.44,.01Z"/><path class="cls-140" d="M305.57,93.02l-26.86-14.77c-2.3-1.32-2.31-4.63-.02-5.97l28.47-16.62c1.07-.62,2.39-.63,3.46-.01l26.86,14.77c2.3,1.32,2.31,4.63,.02,5.97l-28.47,16.62c-1.07,.62-2.39,.63-3.46,.01Z"/><path class="cls-68" d="M305.69,92.33l-26.02-14.28c-2.31-1.33-2.32-4.65-.02-6l27.16-15.86c1.07-.63,2.4-.63,3.48-.01l26.02,14.28c2.31,1.33,2.32,4.65,.02,6l-27.16,15.86c-1.07,.63-2.4,.63-3.48,.01Z"/><path class="cls-28" d="M305.8,91.64l-25.17-13.8c-2.32-1.33-2.33-4.68-.02-6.03l25.85-15.11c1.08-.63,2.41-.64,3.49-.01l25.17,13.8c2.32,1.33,2.33,4.68,.02,6.03l-25.85,15.11c-1.08,.63-2.41,.64-3.49,.01Z"/><path class="cls-53" d="M305.92,90.95l-24.32-13.31c-2.33-1.34-2.35-4.7-.02-6.06l24.54-14.35c1.08-.63,2.42-.64,3.51-.01l24.32,13.31c2.33,1.34,2.35,4.7,.02,6.06l-24.54,14.35c-1.08,.63-2.42,.64-3.51,.01Z"/><path class="cls-88" d="M306.04,90.25l-23.48-12.83c-2.34-1.35-2.36-4.72-.03-6.09l23.23-13.59c1.09-.64,2.43-.64,3.53-.01l23.48,12.83c2.34,1.35,2.36,4.72,.03,6.09l-23.23,13.59c-1.09,.64-2.43,.64-3.53,.01Z"/><path class="cls-130" d="M306.15,89.56l-22.63-12.34c-2.35-1.35-2.37-4.74-.03-6.12l21.93-12.83c1.09-.64,2.45-.65,3.55-.01l22.63,12.34c2.36,1.35,2.37,4.74,.03,6.12l-21.93,12.83c-1.09,.64-2.45,.65-3.55,.01Z"/><path class="cls-98" d="M306.27,88.87l-21.78-11.86c-2.37-1.36-2.38-4.77-.03-6.15l20.62-12.07c1.1-.64,2.46-.65,3.56-.02l21.78,11.86c2.37,1.36,2.38,4.77,.03,6.15l-20.62,12.07c-1.1,.64-2.46,.65-3.56,.02Z"/></g><polygon class="cls-144" points="309.08 62.8 296.33 55.44 286.78 60.96 309.14 73.87 331.35 61.04 321.74 55.49 309.08 62.8"/><polygon class="cls-144" points="309 48.13 298.76 54.04 309.06 59.99 319.29 54.08 309 48.13"/><polygon class="cls-144" points="308.91 32.89 273.53 53.31 284.36 59.56 308.98 45.35 333.75 59.65 344.51 53.44 308.91 32.89"/><polygon class="cls-78" points="309.14 72.87 287.65 60.46 286.78 60.96 309.14 73.87 331.35 61.04 330.49 60.54 309.14 72.87"/><polygon class="cls-78" points="333.75 58.65 308.98 44.35 284.36 58.56 274.4 52.81 273.53 53.31 284.36 59.56 308.98 45.35 333.75 59.65 344.51 53.44 343.65 52.94 333.75 58.65"/><polygon class="cls-78" points="309.06 59.99 319.29 54.08 318.43 53.58 309.06 58.99 299.63 53.54 298.76 54.04 309.06 59.99"/></g><g><path class="cls-15" d="M187.58,66.07l-3.4,.26-.03,.02,2.65,1.17-1.05,.6-2.06-1.51-.03,.02-.36,1.93-1.53-.24,1.23-1.78-.03-.02-3.18,.67-.33-.83,3.35-.23,.03-.02-2.59-1.16,1.05-.6,1.99,1.48,.03-.02,.42-1.93,1.48,.23-1.18,1.79,.03,.02,3.1-.7,.41,.84Z"/><path class="cls-13" d="M194.01,69.78l-3.4,.26-.03,.02,2.65,1.17-1.05,.6-2.06-1.51-.03,.02-.36,1.93-1.53-.24,1.23-1.78-.03-.02-3.18,.67-.33-.83,3.35-.23,.03-.02-2.59-1.16,1.05-.6,1.99,1.48,.03-.02,.42-1.93,1.48,.23-1.18,1.79,.03,.02,3.1-.7,.41,.84Z"/><path class="cls-16" d="M200.44,73.49l-3.4,.26-.03,.02,2.65,1.17-1.05,.6-2.06-1.51-.03,.02-.36,1.93-1.53-.24,1.23-1.78-.03-.02-3.18,.67-.33-.83,3.35-.23,.03-.02-2.59-1.16,1.05-.6,1.99,1.48,.03-.02,.42-1.93,1.48,.23-1.18,1.79,.03,.02,3.1-.7,.41,.84Z"/><path class="cls-14" d="M206.87,77.2l-3.4,.26-.03,.02,2.65,1.17-1.05,.6-2.06-1.51-.03,.02-.36,1.93-1.53-.24,1.23-1.78-.03-.02-3.18,.67-.33-.83,3.35-.23,.03-.02-2.59-1.16,1.05-.6,1.99,1.48,.03-.02,.42-1.93,1.48,.23-1.18,1.79,.03,.02,3.1-.7,.41,.84Z"/><path class="cls-12" d="M213.3,80.92l-3.4,.26-.03,.02,2.65,1.17-1.05,.6-2.06-1.51-.03,.02-.36,1.93-1.53-.24,1.23-1.78-.03-.02-3.18,.67-.33-.83,3.35-.23,.03-.02-2.59-1.16,1.05-.6,1.99,1.48,.03-.02,.42-1.93,1.48,.23-1.18,1.79,.03,.02,3.1-.7,.41,.84Z"/></g><g><polygon class="cls-75" points="182.76 164.44 172.76 158.67 170.8 159.8 180.8 165.57 182.76 164.44"/><polygon class="cls-75" points="158.71 150.56 145.43 142.95 143.47 144.08 156.76 151.69 158.71 150.56"/><polygon class="cls-75" points="184.37 165.38 182.42 166.51 185.04 168.02 187 166.89 184.37 165.38"/><polygon class="cls-75" points="171.14 157.74 165.89 154.7 163.93 155.83 169.18 158.87 171.14 157.74"/><polygon class="cls-75" points="160.33 151.49 158.37 152.62 162.31 154.9 164.27 153.77 160.33 151.49"/><polygon class="cls-75" points="186.66 168.96 193.83 173.1 195.79 171.97 188.62 167.83 186.66 168.96"/></g><g class="cls-89"><polygon points="189.01 174.03 179.01 168.25 177.05 169.38 187.05 175.16 189.01 174.03"/><polygon points="164.96 160.14 151.68 152.54 149.72 153.67 163.01 161.27 164.96 160.14"/><polygon points="190.62 174.96 188.67 176.09 191.29 177.61 193.25 176.48 190.62 174.96"/><polygon points="177.39 167.32 172.14 164.29 170.18 165.42 175.43 168.45 177.39 167.32"/><polygon points="166.58 161.08 164.62 162.21 168.56 164.48 170.52 163.35 166.58 161.08"/><polygon points="192.91 178.54 200.08 182.68 202.04 181.55 194.87 177.41 192.91 178.54"/></g></g></g></g></svg>