<svg xmlns="http://www.w3.org/2000/svg" fill="none" viewBox="0 0 343 230">
  <g clip-path="url(#a)">
    <path fill="#fff" d="M343 .1582H0V229.495h343V.1582Z"/>
    <path fill="#F0FAF9" d="M34.739 177.211s-23.4886-45.468-.5488-66.288c9.8236-8.912 18.9794-19.0254 24.5589-31.2124 6.3157-13.7923 4.7379-28.846 9.3433-43.0603 3.2287-9.967 9.4668-19.4937 18.9153-23.9658 11.3693-5.3802 24.7783-2.5089 36.8333 1.0687 14.37 4.2657 27.998 7.3296 42.958 4.518 10.294-1.9356 19.674-6.8022 30.001-8.5635 15.97-2.7245 32.969-.4678 47.832 5.9307 10.313 4.4399 18.531 10.8476 24.413 20.4752 5.639 9.2239 9.375 19.6771 16.551 27.9104 7.065 8.1093 16.88 13.0446 24.353 20.6999 8.172 8.3708 12.087 21.4061 14.465 32.6121 2.255 10.627 2.954 21.883.59 32.552-1.152 5.197-3.041 10.247-5.858 14.774-1.587 2.55-7.345 11.444-10.739 11.457l-273.6634 1.097-.0046-.005Z"/>
    <path fill="#CFE6E2" d="M148.464 30.3572c-8.593-3.0686-18.042 1.4264-21.101 10.0449-3.06 8.6185 1.422 18.0947 10.015 21.1633 8.594 3.0685 18.042-1.4265 21.102-10.045 3.059-8.6185-1.423-18.0947-10.016-21.1632Zm-8.73 24.5849c-4.944-1.7659-7.523-7.2195-5.763-12.1778 1.761-4.9583 7.199-7.5452 12.142-5.7793 4.944 1.7659 7.524 7.2195 5.763 12.1778-1.761 4.9583-7.199 7.5452-12.142 5.7793Z"/>
    <path fill="#CFE6E2" d="m152.676 35.9072-10.971-3.9171 3.937-9.2606 9.819 3.5089-2.785 9.6688Zm-13.514-3.6969-8.868 7.5682-6.027-8.0498 7.939-6.7746 6.956 7.2562Zm-9.952 9.8844 2.104 11.4898-9.965 1.2063-1.88-10.2789 9.741-2.4172Zm3.563 13.586 10.971 3.9216-3.937 9.2561-9.819-3.5043 2.785-9.6734Zm13.514 3.7886 8.781-7.669 6.119 7.9809-7.861 6.8618-7.039-7.1737Zm9.947-9.9763-2.099-11.4852 9.965-1.2109 1.88 10.2835-9.746 2.4126Z"/>
    <g opacity=".5">
      <path fill="#CFE6E2" d="m255.502 26.2633-44.513-7.7032-7.854 45.6515 44.513 7.7032 7.854-45.6515Z"/>
      <path fill="#fff" d="M241.49 39.9388c-.42 2.4585-1.619 4.5868-3.293 6.183-2.455 2.3346-5.94 3.518-9.53 2.8942-3.609-.6238-6.508-2.9309-8.036-5.9811-1.033-2.0549-1.436-4.44-1.015-6.8801 1.043-6.0591 6.782-10.123 12.824-9.0772 6.041 1.0458 10.093 6.8022 9.05 12.8612Z"/>
      <path fill="#CFE6E2" d="M238.197 46.1217c-2.455 2.3347-5.94 3.5181-9.53 2.8943-3.609-.6238-6.508-2.931-8.036-5.9811 2.456-2.3347 5.941-3.5181 9.531-2.8943 3.608.6238 6.508 2.9309 8.035 5.9811Zm-3.869-9.6089c-.315 1.8439-2.062 3.0777-3.901 2.7612-1.838-.3165-3.068-2.0686-2.753-3.9125.316-1.8439 2.063-3.0777 3.901-2.7612 1.839.3165 3.069 2.0686 2.753 3.9125Z"/>
      <path fill="#fff" d="m248.358 56.6753-39.569-6.8477-.361 2.0973 39.569 6.8477.361-2.0973Zm-.657 3.7915-39.569-6.8477-.361 2.0973 39.57 6.8477.36-2.0973Zm-.709 4.1079-39.569-6.8476-.361 2.0972 39.569 6.8477.361-2.0973Z"/>
    </g>
    <g opacity=".5">
      <path fill="#CFE6E2" d="m139.386 54.0893 10.318 59.8067-74.4955 12.925L64.891 67.0147c-.2332-1.3531.6723-2.6374 2.0169-2.8713l69.6151-12.0769c1.345-.2339 2.63.6743 2.863 2.0228Z"/>
      <path fill="#B6D9D4" d="m139.386 54.0893.563 3.2611-74.4954 12.9255-.5626-3.2612c-.2332-1.3531.6723-2.6374 2.0169-2.8713l69.6151-12.0769c1.345-.2339 2.63.6743 2.863 2.0228Z"/>
      <path fill="#fff" d="M70.6671 66.7717c.1235.7109-.3521 1.3852-1.061 1.509-.7088.1239-1.3811-.3532-1.5046-1.0641-.1235-.711.3522-1.3852 1.061-1.509.7089-.1239 1.3812.3531 1.5046 1.0641Zm3.7685-.6558c.1235.711-.3522 1.3852-1.061 1.5091-.7089.1238-1.3812-.3532-1.5047-1.0642-.1234-.7109.3522-1.3852 1.0611-1.509.7088-.1239 1.3811.3532 1.5046 1.0641Zm3.773-.6513c.1234.7109-.3522 1.3851-1.061 1.509-.7089.1238-1.3812-.3532-1.5047-1.0641-.1235-.711.3522-1.3852 1.061-1.5091.7089-.1238 1.3812.3532 1.5047 1.0642Zm52.5864-3.2835L69.228 72.8579l.8252 4.7864L131.62 66.9675l-.825-4.7864Zm4.434 2.6184a1.0884 1.0884 0 0 1-.787-.1697 1.0805 1.0805 0 0 1-.457-.6926c-.055-.2844 0-.5734.165-.8119.16-.2385.407-.4036.69-.4587.284-.055.572 0 .81.1652.237.1605.402.4082.457.6926.055.2843 0 .5733-.165.8118-.16.2385-.407.4036-.69.4587h-.023v.0046Zm-.316-1.8256c-.196.0367-.384.1468-.507.3257-.115.1697-.156.3761-.119.5779.041.2019.155.3762.324.4908.17.1147.375.156.577.1193.201-.0413.375-.156.489-.3257a.7807.7807 0 0 0 .119-.5779.7751.7751 0 0 0-.325-.4908.7632.7632 0 0 0-.558-.1193Z"/>
      <path fill="#fff" d="M137.328 65.3591c-.037.0046-.078 0-.114-.023l-1.427-.9632c-.073-.0504-.092-.1468-.041-.2201a.155.155 0 0 1 .219-.0413l1.427.9632c.073.0504.092.1468.041.2202-.023.0366-.064.0596-.105.0688v-.0046Zm1.937 3.9893L70.5953 81.2568l.4909 2.8474 68.6698-11.9084-.491-2.8474Zm.819 4.7309L71.4149 85.9878l.4909 2.8474 68.6692-11.9085-.491-2.8474Zm.82 4.7354L72.2345 90.7231l.4909 2.8474 68.6696-11.9084-.491-2.8474Zm3.891 24.4423-68.3356 11.85.3491 2.025 68.3365-11.85-.35-2.025Zm.582 3.365-68.3358 11.85.3491 2.025 68.3357-11.851-.349-2.024Zm.577 3.365-68.3364 11.85.3491 2.025 68.3363-11.85-.349-2.025ZM90.4939 92.6566l-17.3453 3.008 2.9991 17.3964 17.3454-3.008-2.9992-17.3964Zm31.1051-5.3911-27.7015 4.8038 2.9992 17.3967 27.7013-4.804-2.999-17.3965Zm20.021-3.4678-17.345 3.008 2.999 17.3963 17.345-3.008-2.999-17.3963Z"/>
    </g>
    <path fill="#B6D9D4" d="M19.7431 163.235s-.0778-.073-.183-.174c-2.1631-2.018-22.263-21.104-13.2855-24.686 9.4851-3.784 13.5782 24.209 13.4731 24.856l-.0046.004Z"/>
    <path fill="#fff" d="M19.7385 163.231s-.0777-.069-.1829-.17c-1.2943-3.706-3.9743-8.687-6.2701-12.646-3.2425-5.6-6.4438-10.416-6.4758-10.462l.1006-.069c.032.051 3.2288 4.871 6.4758 10.467 2.3416 4.037 5.081 9.137 6.3478 12.88h.0046Z"/>
    <path fill="#B6D9D4" d="M19.8803 161.001s.0777-.045.1875-.11c2.1906-1.284 22.6334-13.508 15.7688-18.204-7.2487-4.963-15.9289 17.75-15.9609 18.314h.0046Z"/>
    <path fill="#fff" d="M19.8849 160.997s.0777-.046.1875-.11c1.779-2.867 4.962-6.541 7.6283-9.426 3.773-4.087 7.3585-7.522 7.3905-7.559l-.0732-.078c-.0366.037-3.6221 3.477-7.3951 7.564-2.7211 2.944-5.9727 6.71-7.738 9.609Z"/>
    <path fill="#CFE6E2" d="M19.0114 162.107s.0548-.087.1234-.211c1.4635-2.431 14.9731-25.305 5.767-26.236-9.7275-.986-6.1603 25.878-5.8904 26.447Z"/>
    <path fill="#fff" d="M19.0159 162.107s.0549-.087.1235-.206c.2195-3.757 1.3811-9.05 2.4605-13.302 1.5229-6.013 3.2059-11.293 3.2196-11.343l-.1098-.037c-.0183.055-1.6967 5.339-3.2196 11.348-1.0976 4.334-2.2821 9.756-2.4696 13.535l-.0046.005Z"/>
    <path fill="#CFE6E2" d="m28.6885 158.965-.0045.027-.1144 1.73-.9604 14.429-.1372 2.051H13.409l-.1372-2.051-.9604-14.429-.1143-1.73-.0046-.027h16.496Z"/>
    <path fill="#B6D9D4" d="m27.6092 175.152-.1372 2.05H13.409l-.1372-2.05h14.3374Z"/>
    <path fill="#EEF5FF" d="m28.684 158.993-.1144 1.729H12.3114l-.1143-1.729H28.684Z"/>
    <path fill="#B6D9D4" d="M323.6 162.015s-.078-.073-.183-.174c-2.163-2.018-22.263-21.104-13.286-24.686 9.486-3.784 13.579 24.209 13.474 24.855l-.005.005Z"/>
    <path fill="#fff" d="M323.6 162.011s-.078-.069-.183-.17c-1.294-3.706-3.974-8.687-6.27-12.646-3.243-5.6-6.444-10.416-6.476-10.462l.101-.069c.032.051 3.229 4.871 6.476 10.467 2.341 4.036 5.081 9.137 6.347 12.88h.005Z"/>
    <path fill="#B6D9D4" d="M323.742 159.781s.077-.046.187-.11c2.191-1.284 22.634-13.508 15.769-18.205-7.249-4.962-15.929 17.751-15.961 18.315h.005Z"/>
    <path fill="#fff" d="M323.742 159.777s.077-.046.187-.11c1.779-2.867 4.962-6.541 7.629-9.426 3.773-4.087 7.358-7.522 7.39-7.559l-.073-.078c-.037.037-3.622 3.477-7.395 7.564-2.721 2.944-5.973 6.71-7.738 9.609Z"/>
    <path fill="#CFE6E2" d="M322.873 160.887s.055-.087.123-.211c1.464-2.431 14.973-25.305 5.767-26.236-9.727-.987-6.16 25.878-5.89 26.447Z"/>
    <path fill="#fff" d="M322.877 160.887s.055-.087.124-.207c.219-3.756 1.381-9.049 2.46-13.301 1.523-6.013 3.206-11.293 3.22-11.343l-.11-.037c-.018.055-1.697 5.339-3.219 11.348-1.098 4.334-2.283 9.756-2.47 13.535l-.005.005Z"/>
    <path fill="#CFE6E2" d="m332.55 157.745-.005.027-.114 1.729-.96 14.43-.138 2.051H317.27l-.137-2.051-.965-14.43-.114-1.729v-.027h16.496Z"/>
    <path fill="#B6D9D4" d="m331.471 173.932-.138 2.05H317.27l-.137-2.05h14.338Z"/>
    <path fill="#EEF5FF" d="m332.545 157.772-.114 1.73h-16.263l-.114-1.73h16.491Z"/>
    <path fill="#fff" d="M222.141 83.7056c2.232 0 4.042-1.8154 4.042-4.0547 0-2.2394-1.81-4.0547-4.042-4.0547-2.233 0-4.043 1.8153-4.043 4.0547 0 2.2393 1.81 4.0547 4.043 4.0547Z"/>
    <path fill="#56A69A" d="M191.687 176.707h-44.988c10.633-4 12.124-19.682 12.124-19.682 0 .802 22.016-.161 22.016-.161 0 .193.009.386.013.578.147 3.702 1.212 6.94 2.626 9.651 3.21 6.164 8.209 9.609 8.209 9.609v.005Z"/>
    <path fill="#CC5F29" d="M183.478 167.097c-5.937-4.151-24.975-7.513-24.975-7.513l22.349-2.137c.147 3.701 1.212 6.94 2.626 9.65Z" opacity=".6" style="mix-blend-mode:soft-light"/>
    <path fill="#56A69A" d="M240.004 69.1704v86.2676c0 2.38-1.925 4.311-4.299 4.311H102.671c-2.373 0-4.294-1.931-4.294-4.311V69.1704c0-2.3805 1.921-4.3115 4.294-4.3115h133.034c2.374 0 4.299 1.931 4.299 4.3115Z"/>
    <path fill="#D0E0FA" d="M234.521 71.6611H103.856v75.3509h130.665V71.6611Z"/>
    <path fill="#CC5F29" d="M169.19 157.241c2.233 0 4.043-1.816 4.043-4.055s-1.81-4.055-4.043-4.055c-2.232 0-4.042 1.816-4.042 4.055s1.81 4.055 4.042 4.055Zm-57.564-10.215-3.238-82.172 3.233.0046.005 82.1674Zm115.797 0 3.238-82.172-3.234.0046-.004 82.1674Z" opacity=".6" style="mix-blend-mode:soft-light"/>
    <path fill="#B6D9D4" d="M227.446 54.0295v92.9965H111.621V54.0295c0-2.1008 1.697-3.8024 3.796-3.8024h108.242c2.094 0 3.791 1.7016 3.791 3.8024h-.004Z"/>
    <path fill="#86C0B7" d="M227.446 54.0295v5.0683H111.621v-5.0683c0-2.1008 1.697-3.8024 3.796-3.8024h108.242c2.094 0 3.791 1.7016 3.791 3.8024h-.004Z"/>
    <path fill="#fff" d="M120.398 55.181c0 1.1054-.892 1.9998-1.994 1.9998-1.103 0-1.994-.8944-1.994-1.9998s.891-1.9998 1.994-1.9998c1.102 0 1.994.8944 1.994 1.9998Zm5.863 0c0 1.1054-.892 1.9998-1.994 1.9998-1.103 0-1.994-.8944-1.994-1.9998s.891-1.9998 1.994-1.9998c1.102 0 1.994.8944 1.994 1.9998Zm5.863 0c0 1.1054-.892 1.9998-1.994 1.9998-1.103 0-1.994-.8944-1.994-1.9998s.891-1.9998 1.994-1.9998c1.102 0 1.994.8944 1.994 1.9998Zm80.247 8.797h-95.724v7.4397h95.724V63.978Z"/>
    <path fill="#042621" d="M218.377 69.1107c-.43 0-.833-.1651-1.144-.4632-.32-.3074-.498-.7202-.507-1.1651-.009-.4449.155-.8623.462-1.1834.306-.321.718-.4999 1.161-.5091.444-.0092.86.156 1.18.4633.32.3073.499.7201.508 1.165.009.4449-.156.8623-.462 1.1834-.307.3211-.718.4999-1.162.5091h-.036Zm0-2.8392c-.311 0-.618.1193-.851.3624-.219.2293-.334.5274-.325.8393.005.3165.138.6101.362.8257.228.2201.526.3302.837.3256.315-.0046.608-.1376.823-.3623.219-.2294.334-.5275.324-.8394-.004-.3165-.137-.61-.361-.8256-.229-.2202-.521-.3257-.814-.3257h.005Z"/>
    <path fill="#042621" d="M221.4 70.5049a.232.232 0 0 1-.165-.0688l-1.902-1.8301a.2396.2396 0 0 1-.01-.3394.2391.2391 0 0 1 .339-.0092l1.902 1.8301a.2397.2397 0 0 1 .009.3395c-.045.0504-.109.0734-.173.0734v.0045Z"/>
    <path fill="#095A4D" d="M168.326 76.4585h-51.679v50.1465h51.679V76.4585Z"/>
    <path fill="#fff" d="M166.044 79.582h-47.005v3.6006h47.005V79.582Zm0 5.9722h-47.005v3.6006h47.005v-3.6006Zm0 6.082h-47.005v3.6006h47.005v-3.6006Zm0 8.4258h-20.228v2.28h20.228v-2.28Zm0 3.876h-20.228v2.28h20.228v-2.28Zm0 3.871h-20.228v2.28h20.228v-2.28Zm0 3.876h-20.228v2.28h20.228v-2.28Zm0 3.876h-20.228v2.279h20.228v-2.279Zm0 3.876h-20.228v2.279h20.228v-2.279Zm-21.655-21.7236h-25.35v24.8926h25.35V97.7134Zm78.909-20.6953h-52.329v4.4262h52.329v-4.4262Zm0 7.3618h-52.329v4.4262h52.329v-4.4262Zm0 7.3618h-52.329v4.4262h52.329v-4.4262Zm-.476 37.9233H116.565v3.147h106.257v-3.147Zm0 5.224H116.565v3.147h106.257v-3.147Zm0 5.229H116.565v3.147h106.257v-3.147Zm-24.248-37.496h-28.039v2.279h28.039v-2.279Zm0 3.876h-28.039v2.279h28.039v-2.279Zm0 3.871h-28.039v2.279h28.039v-2.279Zm0 3.876h-28.039v2.279h28.039v-2.279Zm0 3.875h-28.039v2.28h28.039v-2.28Zm0 3.876h-28.039v2.28h28.039v-2.28Z"/>
    <path fill="#CC5F29" d="M244.454 122.743c.416-.124.846-.266 1.299-.431l-1.935 6.977c-.105.036-.215.068-.325.096 0 0-1.047 1.637-1.683.995-.457-.463-.105-.981.128-1.234-.219.17-.635.376-1.147-.032-.549-.435.059-.935.42-1.169-.32.156-.901.321-1.335-.248 0 0-.517-.826.645-1.303-.083.023-.86.257-1.157-.486 0 0 0-.954 1.559-1.238 0 0-2.373-.014-2.09-.941.284-.931 1.976-1.041 1.976-1.041s1.175-1.023 3.645.055Z" opacity=".5" style="mix-blend-mode:soft-light"/>
    <path fill="#162858" d="m245.807 178.909-15.082-.774-.041.806 15.081.774.042-.806Z"/>
    <path fill="#E3B598" d="m239.309 162.542-.366 9.289s7.098 1.174 7.194.857c.096-.321 1.399-9.967 1.399-9.967l-8.223-.179h-.004Z"/>
    <path fill="#0C7363" d="m238.481 171.771-.279 2.991s-7.354-.377-7.491 3.394l15.078.775.737-6.674-8.045-.486Z"/>
    <path stroke="#fff" stroke-linecap="round" stroke-linejoin="round" d="M236.249 174.679c.659.39 1.116 1.101 1.208 1.867m-2.589-1.794c.659.39 1.116 1.101 1.207 1.867m-2.533-1.577c.658.389 1.116 1.1 1.207 1.866"/>
    <path fill="#074037" d="M267.659 111.042s-6.229 12.66-10.606 27.998c-.045.151-.087.307-.132.463-.316 1.124-.645 2.206-.984 3.266-2.867 8.995-6.388 15.944-8.341 25.612l-9.732-.711s-.27-16.26 2.227-31.217c1.751-10.476 7.148-20.127 9.595-25.099l17.973-.312Z"/>
    <path fill="#CC5F29" d="M257.053 139.04c-.045.152-.087.307-.132.463a95.1132 95.1132 0 0 1-.984 3.266c-.868-6.774-1.641-14.719-1.641-14.719l2.757 10.99Z" opacity=".5" style="mix-blend-mode:soft-light"/>
    <path fill="#162858" d="m275.255 179.37-14.883 2.565.136.796 14.883-2.565-.136-.796Z"/>
    <path fill="#E3B598" d="m265.34 164.832 1.674 9.146s7.18-.418 7.208-.748c.022-.33-.819-10.031-.819-10.031l-8.063 1.633Z"/>
    <path fill="#0C7363" d="m266.548 174.019.384 2.977s-7.258 1.252-6.568 4.958l14.882-2.564-.741-6.669-7.957 1.298Z"/>
    <path stroke="#fff" stroke-linecap="round" stroke-linejoin="round" d="M265.011 177.349c.727.238 1.331.83 1.582 1.555m-2.917-1.179c.727.239 1.33.83 1.582 1.555m-2.808-.982c.727.239 1.331.831 1.582 1.555"/>
    <path fill="#095A4D" d="M272.347 110.887s3.608 34.286 3 58.462l-10.267 1.298s-10.268-33.937-12.271-59.132l19.538-.628Z"/>
    <path fill="#E3B598" d="M248.561 85.9304s-14.658 8.5864-22.272 10.9027l2.945 6.1279s17.41-7.3434 24.293-13.3062l-4.966-3.729v.0046Z"/>
    <path fill="#F4A261" d="M262.834 85.412s-6.325-5.8389-15.65.367l4.679 6.3756 10.966-6.738.005-.0046Z"/>
    <path fill="#F4A261" d="M273.092 94.0353c-.937 13.4027-.704 17.0447-.704 17.0447l-22.702.275.032-1.413.123-5.848.316-14.9941s-2.346-9.0542 11.25-8.6231c0 0 12.623.156 11.685 13.5585Z"/>
    <path fill="#CC5F29" d="M240.004 99.5349v23.5441l-2.406 8.673-30.431-8.49 8.461-30.5247 24.376 6.7976Z" opacity=".5" style="mix-blend-mode:soft-light"/>
    <path fill="#095A4D" d="m244.948 99.2962-2.237 8.0678-1.934 6.977-4.294 15.48-30.431-8.49 8.46-30.5248 30.436 8.49Z"/>
    <path fill="#fff" d="m232.042 112.525-8.978-9.174-3.434 12.384 12.412-3.21Z"/>
    <path stroke="#fff" stroke-miterlimit="10" stroke-width="2" d="M229.529 121.372c6.083-2.235 9.208-8.993 6.979-15.094-2.228-6.101-8.966-9.2354-15.049-7.0003-6.084 2.2353-9.209 8.9933-6.98 15.0943 2.229 6.101 8.967 9.235 15.05 7Z"/>
    <path fill="#CC5F29" d="m266.296 102.25-.457-.628c-4.532 3.101-11.232 6.224-16.121 8.32l.123-5.848c5.228-2.756 10.464-6.0864 12.463-7.3845l-.632-.876 9.751-8.4121s3.608 7.825-5.127 14.8286Z" opacity=".5" style="mix-blend-mode:soft-light"/>
    <path fill="#E3B598" d="M243.521 111.35s-1.111 1.45-2.996 1.94c0 0-1.047 1.642-1.683 1-.631-.642.284-1.389.284-1.389s-.553.724-1.303.128c-.751-.596.653-1.307.653-1.307s-.942.706-1.568-.11c0 0-.517-.831.654-1.308 0 0-.851.303-1.166-.481 0 0 .004-.959 1.559-1.239 0 0-2.369-.013-2.085-.94.283-.931 1.971-1.036 1.971-1.036s1.285-1.124 3.992.206l1.688 4.545v-.009Z"/>
    <path fill="#E3B598" d="M263.232 95.0078s-14.141 9.4072-21.774 11.6552l2.067 4.692s17.708-6.678 24.642-12.5723l-4.935-3.7749Z"/>
    <path fill="#F4A261" d="M271.501 86.2793s3.612 7.825-5.127 14.8337l-4.619-6.417 9.75-8.4167h-.004Z"/>
    <path fill="#042621" d="M252.585 64.7211c-.357-.5045-.718-1.0137-.933-1.5916-.215-.5779-.265-1.2476 0-1.8026.265-.5596.892-.9632 1.496-.8393-.467-.7064-.384-1.7292.192-2.3485.576-.6192 1.587-.7751 2.323-.3577.046-.8486.695-1.6237 1.518-1.821.824-.1926 1.752.211 2.168.9495.471-.7568 1.445-1.1513 2.31-.9403.864.211 1.541 1.0183 1.609 1.9081.86-.7568 2.232-.8348 3.174-.1881.942.6468 1.359 1.9632.965 3.0411 1.318-.4587 2.932.4357 3.243 1.798.311 1.3622-.75 2.8758-2.136 3.0364.627.2614.869 1.0779.704 1.7384-.164.6605-.635 1.1971-1.102 1.6925-.622.665-1.285 1.3255-2.113 1.7062-.905.4128-1.934.4541-2.931.4174-2.232-.0779-4.45-.4908-6.563-1.2155-1.376-.4724-3.608-1.3301-4.331-2.697-.411-.7843-.357-1.9264.412-2.4722l-.005-.0138Z"/>
    <path fill="#E3B598" d="M261.05 84.2285c-1.655 0-3-1.3485-3-3.0089v-5.7289h6.001v5.7289c0 1.6604-1.345 3.0089-3.001 3.0089Z"/>
    <path fill="#D78B73" d="M264.055 78.4813v-2.9906h-6v4.6785c.924.1238 4.418.3669 6-1.6879Z"/>
    <path fill="#E3B598" d="M265.043 61.6065c-3.348-3.7336-9.54-2.0044-10.601 2.8988-.476 2.2017-.768 4.94-.274 7.6691 1.106 6.1554 5.058 8.6689 9.366 6.5223 4.308-2.1466 4.5-10.9348 2.972-14.7418-.352-.8715-.846-1.6695-1.458-2.353l-.005.0046Z"/>
    <path fill="#042621" d="M265.23 68.4868c-.654-.5596-1.093-1.321-1.495-2.087-.329-.6284-.654-1.2797-1.189-1.7475-.595-.5137-1.377-.7385-2.131-.9449-.997-.2706-2.054-.5321-3.042-.2385-.772.2293-1.413.7706-2.167 1.0549-.755.2798-1.779.1835-2.127-.5458-.256-.5412-.023-1.1879.284-1.7062 1.463-2.4631 4.468-3.7061 7.326-3.674 1.436.0183 2.895.3302 4.107 1.0962 1.5.9449 2.534 2.5456 2.954 4.2703.334 1.3668.311 2.8025.028 4.1739-.119.5871-.124 1.0274-.782 1.0641-.631.0367-1.308-.321-1.775-.7155h.009Z"/>
    <path fill="#E3B598" d="M268.176 69.7665c-.092.876-.878 1.5136-1.752 1.4219-.873-.0918-1.509-.8807-1.418-1.7567.092-.8761.878-1.5137 1.752-1.4219.873.0917 1.509.8806 1.418 1.7567Z"/>
    <path fill="#CC5F29" d="M267.453 69.5967c0 .4266-.343.7706-.768.7706a.7683.7683 0 0 1-.769-.7706c0-.4265.343-.7705.769-.7705.425 0 .768.344.768.7705Z" opacity=".6" style="mix-blend-mode:soft-light"/>
    <path fill="#162858" d="m118.793 218.946 13.907-5.491-.291-.743-13.907 5.492.291.742Z"/>
    <path fill="#E3B598" d="m119.423 200.788 3.261 8.6s-6.288 3.343-6.48 3.077c-.192-.27-4.441-8.912-4.441-8.912l7.66-2.765Z"/>
    <path fill="#0C7363" d="m123.105 209.19 1.198 2.72s6.782-2.678 8.095.817l-13.908 5.49-2.785-6.027 7.4-3Z"/>
    <path stroke="#fff" stroke-linecap="round" stroke-linejoin="round" d="M126.11 211.213c-.494.578-.705 1.39-.545 2.133m1.866-2.504c-.494.578-.704 1.39-.544 2.133m1.88-2.275c-.494.578-.705 1.39-.544 2.133"/>
    <path fill="#074037" d="M93.9591 149.32s6.3429 40.184 18.4079 58.802l9.746-3.106s-4.487-43.441-10.364-55.389l-17.7899-.312v.005Z"/>
    <path fill="#CC5F29" d="M107.185 166.157s-2.062 21.232-3.224 23.659l-1.573-4.527 4.797-19.136v.004Z" opacity=".5" style="mix-blend-mode:soft-light"/>
    <path fill="#162858" d="m86.1313 219.373 14.7297 2.538.135-.786-14.7299-2.539-.1348.787Z"/>
    <path fill="#E3B598" d="m96.0583 204.172-1.6601 9.05s-7.107-.413-7.1344-.743c-.0229-.331.8095-9.931.8095-9.931l7.9804 1.619.0046.005Z"/>
    <path fill="#0C7363" d="m94.8601 213.268-.3796 2.949s7.1805 1.238 6.4985 4.908l-14.7305-2.537.7363-6.605 7.8753 1.285Z"/>
    <path stroke="#fff" stroke-linecap="round" stroke-linejoin="round" d="M96.383 216.561c-.7226.234-1.3171.821-1.5687 1.537m2.8904-1.161c-.7226.234-1.3171.821-1.5687 1.537m2.7852-.968c-.7226.234-1.3171.821-1.5687 1.536"/>
    <path fill="#095A4D" d="M89.3218 149.168s-5.8768 34.442-3.5581 57.871l11.6026 1.55s10.8297-33.666 11.2917-58.802l-19.3362-.619Z"/>
    <path fill="#E3B598" d="M116.126 126.725s8.936 14.269 14.562 19.801l-5.388 4.023s-11.923-14.449-15.238-22.838l6.064-.986Z"/>
    <path fill="#F4A261" d="M103.838 119.712s8.218-2.215 13.564 7.509l-7.02 3.44-6.544-10.953v.004Z"/>
    <path fill="#F4A261" d="M100.147 119.065s-12.4899.156-11.5661 13.421c.9284 13.265.6951 16.875.6951 16.875l22.469.27-.462-22.03s2.319-8.958-11.136-8.531v-.005Z"/>
    <path fill="#B6D9D4" d="m144.376 153.585-14.585 27.356-34.0711-18.269 14.5841-27.356c.329-.619 1.098-.853 1.711-.518l31.839 17.072c.618.33.851 1.101.522 1.715Z"/>
    <path fill="#86C0B7" d="m144.376 153.585-.796 1.491-34.072-18.269.796-1.491c.329-.619 1.098-.853 1.711-.518l31.839 17.072c.618.33.851 1.101.522 1.715Z"/>
    <path fill="#fff" d="M112.705 137.036c-.174.326-.576.45-.901.276-.324-.175-.448-.578-.274-.904.174-.326.576-.45.901-.275.325.174.448.578.274.903Zm1.724.927c-.173.326-.576.45-.901.275-.324-.174-.448-.578-.274-.903.174-.326.576-.45.901-.276.325.175.448.578.274.904Zm1.725.922c-.174.326-.577.449-.901.275-.325-.174-.449-.578-.275-.903.174-.326.576-.45.901-.276.325.175.448.578.275.904Zm10.686 9.89-16.762-8.987-.709 1.33 16.761 8.988.71-1.331Zm-1.437 2.699-16.762-8.987-.709 1.331 16.762 8.987.709-1.331Zm-1.667 3.125-16.761-8.987-.71 1.331 16.762 8.987.709-1.331Zm17.131 1.668-12.789-6.858-3.836 7.196 12.789 6.858 3.836-7.196Z"/>
    <path fill="#CFE6E2" d="m125.104 157.071 5.831-3.665.278 5.683 4.162-2.444.389 6.137-10.66-5.711Zm14.049.574c-.288.541-.956.743-1.496.454-.539-.289-.741-.959-.452-1.5.288-.541.955-.743 1.495-.454.54.289.741.959.453 1.5Z"/>
    <path fill="#fff" d="m113.621 163.659-12.651-6.784-.486.911 12.652 6.783.485-.91Zm-5.688-.786-7.901-4.237-.4853.91 7.9013 4.237.485-.91Zm-.935 1.756-7.9007-4.236-.4852.91 7.9009 4.237.485-.911Zm11.186-9.067-12.79-6.857-3.835 7.196 12.789 6.857 3.836-7.196Z"/>
    <path fill="#CFE6E2" d="m102.438 156.378 5.831-3.665.279 5.683 4.162-2.444.389 6.137-10.661-5.711Z"/>
    <path fill="#EBF5FF" d="M116.487 156.952c-.288.541-.955.743-1.495.454-.54-.289-.741-.959-.453-1.5s.956-.743 1.496-.454c.539.289.74.959.452 1.5Z"/>
    <path fill="#fff" d="m131.556 173.274-12.651-6.784-.486.91 12.652 6.784.485-.91Zm-5.688-.787-7.901-4.237-.485.911 7.901 4.236.485-.91Zm-.937 1.761-7.901-4.236-.485.91 7.901 4.236.485-.91Zm11.183-9.071-12.789-6.858-3.836 7.196 12.789 6.858 3.836-7.196Z"/>
    <path fill="#CFE6E2" d="m120.37 165.997 5.831-3.665.284 5.678 4.157-2.444.389 6.141-10.661-5.71Zm14.049.573c-.288.541-.955.743-1.495.454-.54-.289-.741-.958-.453-1.5.288-.541.956-.743 1.496-.454.539.289.741.959.452 1.5Z"/>
    <path fill="#CC5F29" d="M117.974 154.498s-.846-1.578-3.988-1.275c-5.685-3.61-14.2599-13.797-16.638-16.687l.8598-.674-6.9835-10.674s-5.5658 6.459.8415 15.517l.5945-.467c5.9865 7.37 18.0057 16.888 18.0057 16.888l.013-.014c.101.298.7 1.895 2.205 2.959 0 0 .425 1.995 1.28 1.6.622-.284.467-.926.334-1.256.146.247.485.605 1.134.394.7-.225.288-.94.018-1.302.257.27.769.646 1.4.252 0 0 .814-.619-.16-1.523 0 0 .718.61 1.317-.041 0 0 .348-.941-1.07-1.794 0 0 2.328.867 2.392-.151.064-1.014-1.551-1.748-1.551-1.748l-.004-.004Z" opacity=".5" style="mix-blend-mode:soft-light"/>
    <path fill="#E3B598" d="M96.6162 133.834s10.6198 13.242 17.2738 17.471l-3.321 3.899s-14.6753-11.618-19.674-19.127l5.7212-2.238v-.005Z"/>
    <path fill="#F4A261" d="M91.1237 123.262s-5.5658 6.458.8415 15.517l6.1419-4.839-6.9834-10.673v-.005Z"/>
    <path fill="#E3B598" d="M110.56 155.131s.554 1.83 2.218 3.009c0 0 .426 1.995 1.281 1.601.855-.395.233-1.468.233-1.468s.279.917 1.23.605c.956-.307-.16-1.523-.16-1.523s.663 1.042 1.578.473c0 0 .814-.619-.16-1.523 0 0 .718.61 1.317-.041 0 0 .348-.94-1.07-1.794 0 0 2.328.867 2.392-.151.064-1.018-1.55-1.747-1.55-1.747s-.847-1.578-3.988-1.276l-3.33 3.83.009.005Zm-8.277-33.057c1.733 0 3.141-1.412 3.141-3.151v-5.999h-6.2833v5.999c0 1.743 1.4083 3.151 3.1423 3.151Z"/>
    <path fill="#D78B73" d="M99.1407 116.052v-3.133h6.2833v4.899c-.969.133-4.623.385-6.2833-1.766Z"/>
    <path fill="#E3B598" d="M98.1071 98.379c3.5029-3.9079 9.9929-2.1007 11.1039 3.036.499 2.303.805 5.174.288 8.032-1.157 6.449-5.3 9.077-9.8095 6.829-4.5093-2.247-4.7151-11.453-3.1099-15.439a8.3732 8.3732 0 0 1 1.5275-2.4626v.0046Z"/>
    <path fill="#042621" d="M95.8982 109.855s-1.0839-5.229-2.7851-7.573c-1.7013-2.3482.9832-3.6325 3.087-3.527 0 0 2.4421-4.8527 7.6559-4.3207 5.213.5321 5.776 1.8026 5.881 3.8299 0 0 3.512.8532 0 7.2558 0 0 .105-3.307-1.491-4.375-1.596-1.069-9.1785 2.385-11.1999.041 0 0 1.4818 4.72-1.1479 8.674v-.005Z"/>
    <path fill="#042621" d="M100.7 108.497c-1.3718-.326-2.227-1.711-1.9023-3.087.3247-1.376 1.7063-2.233 3.0783-1.908 1.372.326 2.227 1.711 1.902 3.087-.325 1.376-1.706 2.234-3.078 1.908Zm1.093-4.632c-1.171-.28-2.3504.454-2.6294 1.628-.279 1.174.4527 2.357 1.6234 2.637 1.171.28 2.351-.454 2.63-1.628.279-1.179-.453-2.362-1.624-2.637Z"/>
    <path fill="#042621" d="M98.9212 105.741s-.0457 0-.0686-.01c-1.4589-.444-2.68.207-2.6937.216-.0915.051-.2058.014-.2515-.073-.0503-.092-.0138-.207.0731-.253.0549-.032 1.3766-.733 2.9819-.243.1006.032.1554.133.1234.234-.0228.074-.0914.124-.1646.133v-.004Zm7.4778 2.641c-1.372-.325-2.228-1.71-1.903-3.086.325-1.377 1.706-2.234 3.078-1.909 1.372.326 2.227 1.711 1.902 3.087-.324 1.376-1.705 2.234-3.077 1.908Zm1.093-4.632c-1.171-.28-2.351.454-2.63 1.628-.279 1.179.453 2.358 1.623 2.637 1.171.28 2.351-.454 2.63-1.628.279-1.174-.453-2.357-1.623-2.637Z"/>
    <path fill="#042621" d="M103.517 105.529a.1309.1309 0 0 1-.077-.055c-.064-.078-.055-.197.023-.266.022-.018.589-.481 1.298-.073.092.05.119.165.069.257-.05.092-.165.119-.256.069-.485-.28-.869.032-.874.036a.18.18 0 0 1-.183.032Z"/>
    <path fill="#E3B598" d="M94.8235 106.924c.096.918.9192 1.587 1.8339 1.491.9147-.096 1.5824-.922 1.4863-1.839-.096-.918-.9192-1.587-1.8339-1.491-.9146.096-1.5823.922-1.4863 1.839Z"/>
    <path fill="#CC5F29" d="M95.5781 106.75c0 .445.3613.807.8049.807.4436 0 .8049-.362.8049-.807 0-.445-.3613-.807-.8049-.807-.4436 0-.8049.362-.8049.807Z" opacity=".6" style="mix-blend-mode:soft-light"/>
    <path fill="#E58845" d="M174.029 177.5v-36.515c0-1.17.946-2.119 2.112-2.119h16.666c.484 0 .951.169 1.321.477l5.305 4.371c.316.261.709.404 1.116.404h20.178c1.166 0 2.113.949 2.113 2.119v31.368l-48.811-.105Z"/>
    <path fill="#CC5F29" d="M179.586 146.094h37.702c1.468 0 2.662 1.197 2.662 2.67v9.967h-43.026v-9.967c0-1.473 1.194-2.67 2.662-2.67Z" opacity=".3" style="mix-blend-mode:soft-light"/>
    <path fill="#fff" d="M180.203 147.099h36.468c1.386 0 2.506 1.128 2.506 2.514v9.118h-41.485v-9.118c0-1.39 1.125-2.514 2.506-2.514h.005Z"/>
    <path fill="#F4A261" d="M220.339 151.896h-43.808c-1.417 0-2.566 1.153-2.566 2.574v22.906c0 1.421 1.149 2.573 2.566 2.573h43.808c1.417 0 2.565-1.152 2.565-2.573V154.47c0-1.421-1.148-2.574-2.565-2.574Z"/>
    <path fill="#162858" d="m58.1163 190.52 12.4228-3-.1596-.665-12.4227 3 .1595.665Z"/>
    <path fill="#E3B598" d="m60.807 175.207 1.7471 7.669s-5.7213 2.087-5.8493 1.834c-.1281-.252-2.7075-8.072-2.7075-8.072l6.8143-1.436-.0046.005Z"/>
    <path fill="#0C7363" d="m62.9291 182.756.6951 2.445s6.0551-1.463 6.7594 1.651l-12.4212 3-1.6464-5.435 6.6176-1.661h-.0045Z"/>
    <path stroke="#fff" stroke-linecap="round" stroke-linejoin="round" d="M65.234 184.825c-.4847.427-.7591 1.092-.7134 1.739m1.875-1.895c-.4847.427-.7591 1.092-.7134 1.738m1.8614-1.701c-.4848.427-.7592 1.092-.7135 1.738"/>
    <path fill="#074037" d="m62.7461 179.174-8.8311 1.716s-7.8204-25.493-8.5567-28.002c-.0229-.083-.064-.188-.1097-.312-.5031-1.225-2.2821-4.477-4.459-8.334-4.6008-8.133-10.9852-18.934-10.9852-18.934l21.3758.367s6.4621 21.222 8.0811 26.401c1.6189 5.178 3.4848 27.098 3.4848 27.098Z"/>
    <path fill="#CC5F29" d="M49.0033 132.921s-1.2211 10.435-3.7593 19.655c-.5031-1.225-2.2821-4.477-4.459-8.335l8.2183-11.32Z" opacity=".5" style="mix-blend-mode:soft-light"/>
    <path fill="#162858" d="m20.498 188.706 11.5427 5.497.2923-.618-11.5427-5.497-.2923.618Z"/>
    <path fill="#E3B598" d="m32.178 178.495-3.4483 7.068s-5.7578-1.986-5.6984-2.261c.0595-.275 2.9498-7.986 2.9498-7.986l6.1969 3.179Z"/>
    <path fill="#0C7363" d="m29.1001 185.701-.9878 2.339s5.6298 2.678 4.2212 5.545l-11.5431-5.495 2.122-5.265 6.1877 2.88v-.004Z"/>
    <path stroke="#fff" stroke-linecap="round" stroke-linejoin="round" d="M29.5986 188.765c-.6494.027-1.276.371-1.6464.903m2.648-.289c-.6494.028-1.276.372-1.6464.904m2.5153-.156c-.6494.027-1.276.371-1.6464.904"/>
    <path fill="#095A4D" d="m29.7998 125.307-6.4712 53.574 8.1679 3.646s17.8406-39.772 18.9474-57c.064-1.027-20.6395-.22-20.6395-.22h-.0046Z"/>
    <path fill="#B6D9D4" d="M29.7633 125.418s.1234-1.977-.1967-8.435c-.1052-2.064-.2561-4.587-.4711-7.646-.1966-2.826.247-5.023 1.0428-6.738 2.7943-5.9584 9.979-6.0502 9.979-6.0502 12.8282-.4082 10.6147 8.1322 10.6147 8.1322l.4436 20.998-21.4123-.257v-.004Z"/>
    <path fill="#E3B598" d="M54.2855 108.575s.1372 16.031 2.6434 23.131l-3.6267.725s-5.2822-16.98-4.6191-25.557l5.6024 1.701Z"/>
    <path fill="#B6D9D4" d="M46.6937 97.4111s7.9622 1.5549 8.479 12.1269h-7.4454l-1.0336-12.1269Z"/>
    <path fill="#E3B598" d="M53.3022 132.426s-.3704 1.248.1326 2.541c0 0-.5076 1.289.1235 1.39.6311.097.6814-.743.6814-.743s-.1875.624.4711.807c.6585.184.4802-.921.4802-.921s-.0137.839.718.862c0 0 .6951-.046.4802-.922 0 0 .1784.615.7637.472 0 0 .5488-.403.0641-1.417 0 0 .997 1.367 1.4131.816.4162-.55-.2241-1.573-.2241-1.573s.1144-1.211-1.7836-2.224l-3.3202.917v-.005Z"/>
    <path fill="#F4A261" d="m61.0448 107.502 7.1985 19.677c.4573 1.253-.183 2.642-1.4315 3.106l-16.6423 6.123c-1.2486.459-2.6343-.183-3.0962-1.436l-8.296-22.681c-.4573-1.252.1829-2.642 1.436-3.101l13.7657-5.064.0229.023 7.0429 3.358v-.005Z"/>
    <path fill="#E58845" d="m53.979 104.122 1.8843 5.288 5.1815-1.908-7.0658-3.38Z"/>
    <path fill="#CC5F29" d="m55.8633 109.41 5.4194-1.248-.2379-.66-5.1815 1.908Z" opacity=".2" style="mix-blend-mode:soft-light"/>
    <path fill="#E58845" d="m66.8987 123.514 1.34 3.67c.4573 1.252-.1829 2.642-1.4314 3.105l-16.6424 6.123c-1.2485.459-2.6343-.183-3.0962-1.436l-1.3399-3.669 21.1699-7.788v-.005Z"/>
    <path fill="#fff" d="M56.22 132.683c-.1144.115-.407.317-.8186.468-1.1845.436-2.0672-.083-2.4239-1.064-.4299-1.174.1692-2.128 1.2028-2.509.4024-.147.7363-.184.9009-.156l.0595.67c-.1784-.009-.4162.009-.6952.11-.6082.225-.9512.77-.6723 1.536.2516.688.8187.973 1.5047.72.2378-.087.4756-.229.6082-.353l.3339.569v.009Zm.279-.908c.2423.033.6082.019.9375-.101.3567-.133.4893-.348.407-.573-.0777-.215-.2835-.275-.75-.266-.6449.005-1.1342-.174-1.3171-.67-.215-.587.1143-1.21.9192-1.509.3933-.142.6997-.169.9375-.146l.0549.683c-.1555-.018-.439-.023-.7729.101-.3338.124-.439.339-.375.514.0823.22.3019.247.8141.252.686 0 1.0839.216 1.2576.697.2104.578-.0457 1.225-.9878 1.573-.3933.143-.8186.179-1.0519.143l-.0731-.698Zm2.7485-1.009c.2424.032.6083.018.9376-.101.3567-.133.4893-.348.407-.573-.0778-.216-.2836-.275-.75-.266-.6449.004-1.1342-.174-1.3172-.67-.2149-.587.1144-1.211.9193-1.509.3933-.142.6997-.17.9375-.147l.0549.684c-.1555-.019-.4391-.023-.7729.101-.3339.124-.439.339-.375.513.0823.221.3018.248.814.253.686 0 1.0839.215 1.2577.701.2104.578-.0457 1.225-.9878 1.574-.3933.142-.8187.179-1.0473.142l-.0778-.697v-.005Zm-12.2977-11.293c.7181-.302.6494-.715.5443-1.046-.0961-.256-.2333-.536-.3613-.821-.1372-.279-.279-.559-.375-.825-.3705-1.014.1006-1.688 1.1021-2.055l.375-.138.3339.918-.1921.073c-.4802.188-.5488.532-.375 1.005.0732.192.1646.38.279.591.1006.207.2241.445.3247.725.3064.803.0869 1.238-.4665 1.587l.0091.023c.6449-.101 1.0931.087 1.3812.908.1006.28.1601.541.2241.775.0457.23.1006.441.1692.624.1738.473.439.706.9375.537l.1921-.074.3293.904-.3887.142c-.9559.353-1.7653.211-2.1587-.867-.1006-.27-.1737-.573-.2469-.876-.0823-.298-.1555-.592-.2515-.858-.1098-.302-.3293-.674-1.0839-.431l-.2973-.816-.0046-.005Zm10.7382-3.022c-.718.302-.6494.729-.5488 1.032.1006.27.2333.536.3705.816.128.284.2652.56.3658.83.3933 1.078-.128 1.711-1.0839 2.06l-.3887.142-.3293-.904.1921-.069c.4894-.192.5442-.541.3705-1.018-.0686-.183-.1647-.381-.2744-.582-.1052-.221-.2287-.454-.3293-.734-.311-.817-.0915-1.248.4665-1.587l-.0092-.023c-.6494.092-1.0976-.096-1.3811-.908-.1007-.28-.1601-.542-.2196-.762-.0503-.238-.1006-.44-.1692-.633-.1738-.472-.4482-.692-.9329-.523l-.1921.069-.3339-.917.375-.138c.997-.367 1.7928-.16 2.1632.853.1006.271.1738.574.2561.872.0732.303.1464.605.2424.862.1189.321.3339.684 1.0885.445l.2972.817h.0046Z"/>
    <path fill="#CC5F29" d="M47.9971 112.658c-.8506 1.096-2.1128 1.417-2.1128 1.417s-6.3158 8.962-13.0844 5.669c-1.5046-.734-2.5382-1.702-3.2333-2.761-.1052-2.064-.2561-4.587-.4711-7.646-.1966-2.826.247-5.023 1.0428-6.738 2.3872-3.1054 5.5428-3.4999 5.5428-3.4999l-.6905 11.5309h-.4162c2.0809 6.495 7.9713 1.784 8.8174 1.06-.1006-2.147.9924-2.674.9924-2.674s.5442-1.074 1.2302-1c.6586.073.0823 1.509.032 1.623.622-.931 1.2394-.665 1.2394-.665.3887.395.0549.821 0 .89.6357-.619 1.029-.05 1.029-.05.247.445-.0229.78-.2149.945.2561-.17.75-.432.878.055.1235.463-.1417.674-.3155.766.2286-.083.6768-.179.8506.261.2424.596-1.1204.821-1.1204.821l.0045-.004Z" opacity=".5" style="mix-blend-mode:soft-light"/>
    <path fill="#E3B598" d="M28.6062 107.287s-2.7714 8.068 3.9971 11.366c6.7685 3.297 13.0889-5.67 13.0889-5.67l-2.3827-2.481s-7.3082 6.605-9.2062-1.991l-5.5017-1.22.0046-.004Z"/>
    <path fill="#B6D9D4" d="M35.8321 97.4111s-7.9622 1.5549-8.479 12.1269h7.4454l1.0336-12.1269Z"/>
    <path fill="#E3B598" d="M45.6922 112.983s1.2576-.321 2.1083-1.417c0 0 1.3674-.225 1.125-.821-.2424-.596-.9878-.206-.9878-.206s.6311-.161.4482-.822c-.1784-.66-1.0336.06-1.0336.06s.7272-.417.3704-1.059c0 0-.3933-.574-1.0335.059 0 0 .4344-.472.0137-.899 0 0-.6266-.266-1.2485.674 0 0 .6585-1.559-.0275-1.632-.686-.078-1.2302.999-1.2302.999s-1.0976.523-.9878 2.675l2.4878 2.385-.0045.004Z"/>
    <path fill="#042621" d="M37.1766 73.7847a6.1425 6.1425 0 0 1-.2103.9265c-.4162 1.4769-1.308 2.8713-2.5108 3.8024-.6631.5091-1.6418.7155-2.6342.7385-.3019.0045-.6037-.0046-.901-.0322-.5854-.0458-1.1388-.1559-1.5961-.2981-1.2577-.3899-2.401-1.4907-2.4056-2.8163 0-1.353 1.1251-2.4355 2.2684-3.151 1.5138-.9587 3.2151-1.61 4.9758-1.9127.8689-.1468 1.8705-.1743 2.5062.4449.5808.5733.6265 1.4953.503 2.3025l.0046-.0045Z"/>
    <path fill="#F4A261" d="M36.9708 74.7066c-.4162 1.477-1.308 2.8713-2.5107 3.8024-.6632.5092-1.6419.7156-2.6343.7385a8.4072 8.4072 0 0 1-.9009-.0321c.2286-1.0687.9329-2.1833 1.5732-2.8438.997-1.0182 2.3964-1.6375 3.8187-1.6879.215-.0092.4345 0 .6495.0229h.0045Z"/>
    <path fill="#042621" d="M35.4113 87.2515c-2.2089-.1789-3.9879-2.275-4.1526-4.495-.1646-2.2154 1.0656-4.3941 2.8492-5.7197 1.779-1.3255 4.0337-1.8805 6.2518-1.9677 2.433-.0917 5.1678.5367 6.4575 2.6099 1.6601 2.6741-.1006 6.4077-2.8309 7.958-2.7348 1.5503-6.0459 1.5182-9.1878 1.4494"/>
    <path fill="#E3B598" d="M40.2179 99.7595c1.4863 0 2.6937-1.2109 2.6937-2.7016v-5.1463h-5.3874v5.1463c0 1.4907 1.2074 2.7016 2.6937 2.7016Z"/>
    <path fill="#D78B73" d="M37.5242 94.5949v-2.6833h5.3874v4.2015c-.8278.1147-3.9651.3302-5.3874-1.5136v-.0046Z"/>
    <path fill="#E3B598" d="M36.637 79.4449c3.0047-3.3529 8.5658-1.8026 9.5171 2.6053.4253 1.9769.6906 4.4354.2469 6.8847-.9924 5.527-4.5413 7.7837-8.4103 5.8573-3.8645-1.9265-4.0429-9.8157-2.6663-13.2374a7.1957 7.1957 0 0 1 1.308-2.1099h.0046Z"/>
    <path fill="#042621" d="M42.8293 79.7844c-1.2714 2.6282-3.5489 4.7518-6.2518 5.8343-.7454.2981-1.5686.5229-2.3461.3257-1.0244-.2615-1.7699-1.2522-1.9117-2.3026-.1417-1.0504.2424-2.1237.8781-2.9722.6357-.8486 1.5001-1.4907 2.401-2.0457 1.4086-.8623 2.959-1.5366 4.5962-1.7292 1.6373-.1881 3.3751.1468 4.6968 1.1375.622.4679 1.1342 1.0825 1.4772 1.7797.2516.5045.7455 1.6512.3659 2.1878-.7363 1.0412-3.3843-1.6512-3.9056-2.2153Z"/>
    <path fill="#E3B598" d="M33.8244 86.7695c.0823.7889.7866 1.3623 1.5732 1.2797.7866-.0825 1.3583-.7889 1.276-1.5778-.0824-.7889-.7867-1.3623-1.5733-1.2751-.7866.0825-1.3583.7889-1.2759 1.5778v-.0046Z"/>
    <path fill="#CC5F29" d="M34.4738 86.6228c0 .3807.3064.6926.6906.6926.3841 0 .6905-.3073.6905-.6926s-.3064-.6926-.6905-.6926c-.3842 0-.6906.3073-.6906.6926Z" opacity=".6" style="mix-blend-mode:soft-light"/>
    <path fill="#095A4D" d="M141.673 196.907v4.765c0 .441.288.821.709.945 1.737.496 6.503 1.684 12.448 1.684 5.946 0 9.819-1.143 11.319-1.656.393-.133.659-.5.663-.918l.055-4.816h-25.194v-.004Z"/>
    <path fill="#0C7363" d="M166.867 196.907c0 1.018-5.638 1.848-12.595 1.848-6.956 0-12.594-.826-12.594-1.848 0-1.023 5.638-1.849 12.594-1.849 6.957 0 12.595.826 12.595 1.849Z"/>
    <path fill="#095A4D" d="M164.233 196.851c0 .794-4.4 1.441-9.824 1.441-5.424 0-9.823-.647-9.823-1.441 0-.793 4.399-1.44 9.823-1.44s9.824.647 9.824 1.44Z"/>
    <path fill="#074037" d="M164.178 198.085c-6.531 1.028-13.189 1-19.94-.032v-4.623h19.922l.018 4.655Z"/>
    <path fill="#095A4D" d="M141.673 188.577v4.766c0 .44.288.821.709.945 1.737.495 6.503 1.683 12.448 1.683 5.946 0 9.819-1.142 11.319-1.656.393-.133.659-.5.663-.917l.055-4.816h-25.194v-.005Z"/>
    <path fill="#0C7363" d="M166.867 188.577c0 1.018-5.638 1.848-12.595 1.848-6.956 0-12.594-.825-12.594-1.848 0-1.023 5.638-1.848 12.594-1.848 6.957 0 12.595.825 12.595 1.848Z"/>
    <path fill="#095A4D" d="M164.233 188.522c0 .793-4.4 1.44-9.824 1.44-5.424 0-9.823-.647-9.823-1.44 0-.794 4.399-1.44 9.823-1.44s9.824.646 9.824 1.44Z"/>
    <path fill="#074037" d="M164.178 189.738c-6.531 1.027-13.189.999-19.94-.033v-4.623h19.922l.018 4.656Z"/>
    <path fill="#095A4D" d="M141.673 180.243v4.766c0 .44.288.821.709.945 1.737.495 6.503 1.683 12.448 1.683 5.946 0 9.819-1.142 11.319-1.656.393-.133.659-.5.663-.917l.055-4.816h-25.194v-.005Z"/>
    <path fill="#0C7363" d="M166.867 180.243c0 1.018-5.638 1.848-12.595 1.848-6.956 0-12.594-.825-12.594-1.848 0-1.023 5.638-1.848 12.594-1.848 6.957 0 12.595.825 12.595 1.848Z"/>
    <path fill="#095A4D" d="M164.233 180.188c0 .793-4.4 1.44-9.824 1.44-5.424 0-9.823-.647-9.823-1.44 0-.794 4.399-1.44 9.823-1.44s9.824.646 9.824 1.44Z"/>
    <path fill="#074037" d="M164.178 181.389c-6.531 1.028-13.189 1-19.94-.032v-4.623h19.922l.018 4.655Z"/>
    <path fill="#095A4D" d="M141.673 172.579v4.765c0 .441.288.821.709.945 1.737.495 6.503 1.683 12.448 1.683 5.946 0 9.819-1.142 11.319-1.655.393-.133.659-.5.663-.918l.055-4.816h-25.194v-.004Z"/>
    <path fill="#0C7363" d="M166.867 172.578c0 1.019-5.638 1.849-12.595 1.849-6.956 0-12.594-.826-12.594-1.849 0-1.022 5.638-1.848 12.594-1.848 6.957 0 12.595.826 12.595 1.848Z"/>
    <path fill="#095A4D" d="M154.414 173.963c5.425 0 9.824-.644 9.824-1.44 0-.795-4.399-1.44-9.824-1.44s-9.824.645-9.824 1.44c0 .796 4.399 1.44 9.824 1.44Z"/>
    <path fill="#162858" d="m324.659 204.638-9.254 11.412.606.495 9.254-11.412-.606-.495Z"/>
    <path fill="#E3B598" d="m308.137 200.338 7.053 5.614s4.984-4.903 4.792-5.165c-.192-.256-6.988-6.811-6.988-6.811l-4.857 6.362Z"/>
    <path fill="#0C7363" d="m314.874 206.282 2.177 1.931s-4.509 5.564-1.642 7.835l9.252-11.412-4.793-4.404-4.994 6.046v.004Z"/>
    <path stroke="#fff" stroke-linecap="round" stroke-linejoin="round" d="M315.866 209.704c.682-.293 1.505-.247 2.15.124m-2.886 1.004c.682-.293 1.505-.248 2.15.124m-2.68 1.087c.681-.293 1.504-.248 2.149.124"/>
    <path fill="#074037" d="M309.756 147.797s-6.146 14.7-7.12 31.336c-.316 5.348 11.067 11.742 15.851 18.59l-7.816 6.697s-24.787-16.879-23.374-30.598c1.079-10.476 2.584-20.797 5.008-25.727l17.456-.303-.005.005Z"/>
    <path fill="#162858" d="m311.744 216.256-14.666.208.011.785 14.666-.208-.011-.785Z"/>
    <path fill="#E3B598" d="m304.428 200.783.234 9.026s6.951.688 7.024.372c.074-.317.723-9.747.723-9.747l-7.981.349Z"/>
    <path fill="#0C7363" d="m304.209 209.777-.082 2.918s-7.148.1-7.043 3.765l14.662-.206.293-6.513-7.83.041v-.005Z"/>
    <path stroke="#fff" stroke-linecap="round" stroke-linejoin="round" d="M302.233 212.74c.663.34 1.153.996 1.285 1.729m-2.625-1.573c.663.34 1.153.996 1.285 1.73m-2.547-1.363c.663.34 1.153.996 1.285 1.729"/>
    <path fill="#095A4D" d="M314.385 147.645s-3.869 14.756-2.923 31.47c.503 8.852 2.392 17.925 2.845 26.144h-11.04s-4.665-10.733-7.743-24.658c-2.264-10.242.078-21.897-.114-32.346l18.97-.61h.005Z"/>
    <path fill="#E3B598" d="M285.687 123.762s-5.342 15.568-9.741 21.939l4.175 2.247s9.938-15.659 11.589-24.36l-6.023.174Z"/>
    <path fill="#B6D9D4" d="M296.238 114.731s-8.328-.615-11.685 9.751l7.395 2.014 4.29-11.765Z"/>
    <path fill="#B6D9D4" d="M299.663 114.158s16.295-1.62 15.71 16.59c-.417 13.017-.988 16.897-.988 16.897l-22.085.459-2.579-21.539s-3.641-12.178 9.942-12.407Z"/>
    <path fill="#F4A261" d="m289.19 133.403 10.871 21.439c.691 1.367.151 3.036-1.212 3.733l-18.133 9.247c-1.363.693-3.028.152-3.723-1.215l-12.531-24.714c-.69-1.366-.146-3.036 1.212-3.729l15.001-7.65.027.023 8.484 2.866h.004Z"/>
    <path fill="#E58845" d="m280.684 130.514 2.863 5.77 5.643-2.881-8.506-2.889Z"/>
    <path fill="#CC5F29" d="m283.547 136.284 6.009-2.161-.366-.72-5.643 2.881Z" opacity=".2" style="mix-blend-mode:soft-light"/>
    <path fill="#E58845" d="m298.035 150.847 2.026 3.995c.691 1.367.151 3.036-1.212 3.733l-18.133 9.247c-1.363.693-3.028.152-3.723-1.215l-2.026-3.995 23.068-11.765Z"/>
    <path fill="#fff" d="m281.416 160.956.731 1.44 1.391-.711-.732-1.44.841-.431 1.898 3.747-.841.431-.796-1.568-1.39.711.795 1.568-.841.432-1.898-3.748.842-.431Zm4.061-1.175-1.011.514-.361-.711 2.872-1.463.361.711-1.02.518 1.541 3.037-.841.431-1.537-3.037h-.004Zm6.256-1.178c-.247-.44-.54-.977-.814-1.523h-.009c.119.546.238 1.161.315 1.67l.288 1.692-.658.335-1.13-1.243c-.347-.381-.741-.853-1.084-1.293h-.009c.243.518.512 1.11.727 1.587l.65 1.458-.782.399-1.66-3.866 1.125-.574 1.001 1.064c.343.372.691.78.993 1.179l.022-.014c-.118-.486-.242-1.045-.329-1.527l-.238-1.445 1.107-.564 2.099 3.646-.818.418-.787-1.404-.009.005Zm.366-3.096.841-.431 1.542 3.036 1.486-.757.361.711-2.328 1.188-1.898-3.747h-.004Zm-19.167-4.44 4.299-5.486.631 1.243-3.311 4.036.014.023 5.204-.307.631 1.243-6.956.252-.512-1.009v.005Zm8.548.78-1.812-9.784 1.18-.601 1.811 9.784-1.179.601Zm8.437-8.132-4.317 5.453-.631-1.243 3.407-4.087-.014-.022-5.3.353-.631-1.243 6.937-.289.549 1.078Z"/>
    <path fill="#CC5F29" d="m310.941 118.451-6.192 10.879.859.592c-2.204 2.871-10.047 12.857-15.384 16.733-3.092-.299-3.924 1.252-3.924 1.252s-1.592.72-1.528 1.72c.064 1 2.356.147 2.356.147-1.395.839-1.052 1.765-1.052 1.765.59.643 1.299.042 1.299.042-.956.885-.156 1.5-.156 1.5.622.389 1.125.018 1.377-.248-.266.358-.673 1.059.018 1.28.64.206.969-.147 1.116-.39-.133.325-.284.954.329 1.238.842.39 1.258-1.578 1.258-1.578 1.637-1.16 2.186-2.963 2.186-2.963.814-.688 11.671-9.925 16.939-17.154l.622.431c5.726-9.261-.114-15.246-.114-15.246h-.009Z" opacity=".5" style="mix-blend-mode:soft-light"/>
    <path fill="#E3B598" d="M306.002 128.179s-9.723 12.972-15.984 17.517l3.22 3.812s14.063-11.83 18.499-19.485l-5.74-1.844h.005Z"/>
    <path fill="#B6D9D4" d="M310.735 117.492s5.84 5.981.114 15.247l-6.311-4.367 6.193-10.88h.004Z"/>
    <path fill="#E3B598" d="M293.292 149.462s-.544 1.802-2.186 2.963c0 0-.416 1.963-1.257 1.578-.842-.39-.234-1.445-.234-1.445s-.274.903-1.211.596c-.938-.303.155-1.5.155-1.5s-.649 1.023-1.555.463c0 0-.8-.61.156-1.499 0 0-.709.6-1.299-.042 0 0-.339-.926 1.052-1.766 0 0-2.292.854-2.356-.146-.064-1 1.528-1.72 1.528-1.72s.832-1.555 3.924-1.253l3.274 3.766.009.005Zm6.412-31.277c-1.706 0-3.091-1.39-3.091-3.101v-5.903h6.183v5.903c0 1.711-1.386 3.101-3.092 3.101Z"/>
    <path fill="#D78B73" d="M302.796 112.259v-3.083h-6.183v4.821c.951.128 4.55.376 6.183-1.738Z"/>
    <path fill="#E3B598" d="M303.816 94.8698c-3.449-3.8436-9.833-2.0686-10.926 2.986-.489 2.2662-.791 5.0872-.284 7.9032 1.139 6.343 5.214 8.935 9.65 6.724 4.436-2.211 4.638-11.27 3.06-15.1913-.362-.8991-.874-1.7201-1.505-2.4219h.005Z"/>
    <path fill="#042621" d="M305.988 106.163s.21-4.482 1.889-6.7887c1.674-2.3072-.252-4.0777-2.323-3.9722 0 0-4.798-8.4258-9.925-7.8983-.05.0045-.1.0091-.15.0183-4.592.5183-7.336 5.4032-5.466 9.6413.558 1.266 1.322 2.8346 2.365 4.7336 0 0-.105-3.252 1.463-4.3024 1.569-1.0504 9.033 2.3484 11.022.0367 0 0-1.459 4.6467 1.13 8.5357l-.005-.004Z"/>
    <path fill="#E3B598" d="M307.044 103.277c-.096.904-.901 1.56-1.806 1.468-.901-.096-1.555-.903-1.464-1.812.097-.903.901-1.559 1.807-1.467.901.096 1.555.903 1.463 1.811Z"/>
    <path fill="#CC5F29" d="M306.299 103.103c0 .436-.352.794-.791.794-.439 0-.791-.354-.791-.794 0-.44.352-.793.791-.793.439 0 .791.353.791.793Z" opacity=".6" style="mix-blend-mode:soft-light"/>
    <path fill="#86C0B7" d="m253.564 183.206 11.227 20.475-25.505 14.068-11.228-20.476c-.251-.463-.086-1.045.375-1.298l23.832-13.145c.462-.252 1.043-.087 1.294.376h.005Z"/>
    <path fill="#56A69A" d="m253.564 183.206.613 1.114-25.506 14.068-.613-1.115c-.251-.463-.086-1.045.375-1.298l23.832-13.145c.462-.252 1.043-.087 1.294.376h.005Z"/>
    <path fill="#fff" d="M230.13 196.462c.133.243.046.55-.197.683-.242.133-.548.046-.681-.197s-.046-.551.197-.684c.242-.133.548-.046.681.198Zm1.29-.716c.132.243.046.551-.197.684-.242.133-.549.046-.681-.198-.133-.243-.046-.55.196-.683.243-.133.549-.046.682.197Zm1.294-.711c.133.243.046.551-.197.684-.242.133-.548.046-.681-.198-.133-.243-.046-.55.197-.683.242-.133.548-.046.681.197Zm21.151-9.149-23.499 12.962.899 1.639 23.499-12.961-.899-1.64Zm1.558 2.88-23.507 12.966.536.977 23.506-12.967-.535-.976Zm.887 1.618-23.506 12.966.535.977 23.507-12.966-.536-.977Zm.894 1.625-23.506 12.966.535.976 23.507-12.966-.536-.976Zm4.469 8.404-23.394 12.904.379.692 23.394-12.905-.379-.691Zm.631 1.153-23.394 12.905.379.691 23.394-12.904-.379-.692Zm.631 1.149-23.395 12.904.379.691 23.395-12.904-.379-.691Zm-22.348.669-5.939 3.276 3.266 5.956 5.939-3.276-3.266-5.956Zm10.648-5.877-9.485 5.232 3.266 5.956 9.486-5.232-3.267-5.956Zm6.854-3.781-5.939 3.275 3.266 5.957 5.939-3.276-3.266-5.956Z"/>
    <path fill="#CFE6E2" d="m250.678 183.307 11.571 21.103-26.283 14.499-11.571-21.104c-.261-.477-.087-1.077.389-1.339l24.563-13.549c.476-.262 1.075-.087 1.336.39h-.005Z"/>
    <path fill="#B6D9D4" d="m250.678 183.307.631 1.151-26.283 14.499-.631-1.152c-.261-.477-.087-1.077.389-1.339l24.563-13.549c.476-.262 1.075-.087 1.336.39h-.005Z"/>
    <path fill="#fff" d="M226.531 196.966c.137.252.046.564-.206.702a.5136.5136 0 0 1-.7-.207.5156.5156 0 0 1 .206-.701.5127.5127 0 0 1 .7.206Zm1.331-.734c.137.253.046.564-.206.702a.5127.5127 0 0 1-.7-.206.5165.5165 0 0 1 .206-.702.5127.5127 0 0 1 .7.206Zm1.331-.734c.137.253.045.565-.206.702a.5127.5127 0 0 1-.7-.206.5159.5159 0 0 1 .206-.702c.251-.138.562-.046.7.206Zm21.798-9.432-24.216 13.357.926 1.688 24.216-13.358-.926-1.687Zm1.608 2.966-24.228 13.364.551 1.004 24.228-13.364-.551-1.004Zm.917 1.669-24.228 13.364.551 1.005 24.228-13.364-.551-1.005Zm.915 1.672-24.227 13.364.551 1.005 24.227-13.364-.551-1.005Zm4.612 8.665-24.111 13.299.392.716 24.112-13.3-.393-.715Zm.651 1.186-24.112 13.299.393.716 24.111-13.3-.392-.715Zm.65 1.19-24.111 13.299.392.716 24.112-13.3-.393-.715Zm-23.04.685-6.119 3.376 3.365 6.137 6.12-3.376-3.366-6.137Zm10.976-6.052-9.774 5.391 3.365 6.137 9.774-5.391-3.365-6.137Zm7.064-3.897-6.119 3.375 3.365 6.137 6.119-3.375-3.365-6.137Z"/>
    <path fill="#F4A261" d="M264.06 199.09h-32.014v23.186h32.014V199.09Z"/>
    <path fill="#E58845" d="M232.289 199.09h-9.238v23.186h9.238V199.09Z"/>
    <path fill="#FFA664" d="m232.302 199.09 2.095 7.646h32.585l-2.922-7.646h-31.758Z"/>
    <path fill="#F4A261" d="m232.284 199.09-2.41 7.605-9.467.009 2.671-7.614h9.206Z"/>
  </g>
  <defs>
    <clipPath id="a">
      <path fill="#fff" d="M0 0h343v229.337H0z" transform="translate(0 .1582)"/>
    </clipPath>
  </defs>
</svg>