<svg xmlns="http://www.w3.org/2000/svg" fill="none" viewBox="0 0 194 48">
  <path fill="#fff" d="M186.221 21.98h4.071c1.614 0 2.003.398 1.771 2.012-.298 2.003-.678 3.997-1.034 5.992-.298 1.704-.613 3.4-.927 5.106-.149.827-.555 1.465-1.382 1.754-4.651 1.639-9.393 2.284-14.202.844-4.162-1.25-6.488-4.237-6.835-8.474-.472-5.801 1.216-10.982 5.445-15.137 2.806-2.764 6.282-4.196 10.196-4.535 2.806-.24 5.586-.066 8.259.944 2.375.885 2.673 1.398 2.276 3.881 0 .025 0 .058-.008.083-.381 2.3-.712 2.416-2.739 1.382-4.271-2.185-8.574-2.566-12.679.364-2.814 2.003-4.105 4.94-4.626 8.268-.215 1.398-.249 2.805.083 4.195.918 3.94 4.245 5.19 7.597 5.007.918-.05 1.82-.24 2.689-.579.398-.157.613-.38.687-.811.298-1.755.596-3.517.944-5.264.107-.537-.05-.653-.555-.645-1.44.025-2.88-.017-4.311.017-.663.016-.969-.249-.944-.902.017-.348 0-.704.058-1.052.339-2.267.538-2.433 2.83-2.433h3.336v-.016Zm-80.02-5.37c-.248 1.58-.472 3.161-.745 4.742-.918 5.28-1.853 10.552-2.764 15.832-.124.736-.546 1.067-1.225 1.192a9.52 9.52 0 0 1-2.987.05c-1.142-.166-1.291-.365-1.093-1.466.63-3.55 1.258-7.1 1.896-10.659.86-4.85 1.713-9.708 2.59-14.549.265-1.481 1.134-2.16 2.656-2.177 1.085 0 2.16-.008 3.245 0 1.663.017 2.499.572 3.053 2.136 1.689 4.717 3.327 9.442 5.016 14.16 1.2 3.327 2.747 6.496 4.725 9.442.306.464 1.076.753.621 1.556-.464.828-1.093 1.457-2.061 1.507a33.566 33.566 0 0 1-3.65 0c-1.224-.067-1.936-.903-2.342-1.962-.62-1.605-1.183-3.236-1.746-4.866-1.572-4.585-3.401-9.079-4.717-13.746-.116-.398-.215-.795-.323-1.192l-.141.017-.008-.017Zm53.711-7.159c2.375 0 4.758.025 7.133-.016.729-.009 1.018.273.977.968-.025.331 0 .662-.058.993-.364 2.516-.521 2.657-3.054 2.657-2.681 0-5.371.008-8.052-.009-.53 0-.762.116-.853.704-.289 1.903-.62 3.807-1.018 5.694-.14.678.1.711.638.711 2.516-.016 5.031-.008 7.556-.008 1.034 0 1.191.157 1.175 1.208 0 .249-.017.497-.058.745-.439 2.557-.513 2.624-3.095 2.624-2.16 0-4.32.016-6.472-.017-.522 0-.728.166-.811.662-.381 2.251-.77 4.502-1.184 6.753-.107.571.042.753.646.745 3.07-.025 6.141-.017 9.211-.008 1.01 0 1.324.314 1.208 1.29-.099.845-.198 1.697-.521 2.5-.232.588-.613.91-1.316.902-4.701-.025-9.41 0-14.11-.016-1.515 0-1.987-.588-1.722-2.078.77-4.336 1.548-8.673 2.317-13.01.704-3.93 1.407-7.861 2.103-11.792.297-1.68.893-2.185 2.631-2.185h6.72l.009-.017ZM86.265 38.557h-6.737c-1.78 0-2.234-.538-1.92-2.284.654-3.641 1.308-7.274 1.953-10.916.828-4.618 1.655-9.235 2.483-13.845.281-1.58.877-2.077 2.466-2.077h13.887c.993 0 1.159.157 1.126 1.158-.033.886-.232 1.746-.522 2.59-.223.663-.678.91-1.398.903-3.021-.042-6.042-.017-9.063-.075-.777-.016-1.034.282-1.142 1.002-.273 1.795-.612 3.591-.96 5.379-.115.57-.024.778.613.77 2.524-.034 5.048-.009 7.564 0 1.035 0 1.258.231 1.225 1.266 0 .082 0 .165-.017.248-.306 2.847-.538 3.054-3.401 3.054-1.97 0-3.94.033-5.9-.017-.77-.016-1.085.14-1.2.985-.299 2.185-.713 4.353-1.16 6.513-.124.63.075.67.588.67 3.104-.016 6.207-.008 9.31 0 1.018 0 1.2.207 1.176 1.225a7.659 7.659 0 0 1-.48 2.508c-.257.67-.662.985-1.432.976-2.359-.04-4.709-.016-7.068-.016l.009-.017Zm49.961-14.706c.397-.786.695-1.357.985-1.937 1.854-3.74 3.724-7.473 5.545-11.222.397-.827.951-1.183 1.845-1.224a22.425 22.425 0 0 1 2.475.033c1.332.099 1.663.653 1.059 1.845-1.175 2.3-2.375 4.585-3.567 6.87-3.261 6.256-6.538 12.512-9.782 18.777-.372.728-.91 1.167-1.68 1.308-1.308.248-2.623.322-3.948.082-.86-.157-1.026-.455-.629-1.258a649.187 649.187 0 0 1 3.129-6.264 2.446 2.446 0 0 0 .215-1.73c-1.275-5.735-2.508-11.47-3.749-17.206a9.943 9.943 0 0 1-.141-.976c-.083-.803.323-1.283 1.084-1.382 1.283-.182 2.582-.166 3.882-.042.529.05.811.39.902.92.703 3.996 1.415 7.994 2.127 11.99.066.39.14.779.256 1.416h-.008ZM66.874 38.55h-6.033c-1.82 0-2.242-.53-1.912-2.326.704-3.915 1.4-7.83 2.103-11.744.81-4.535 1.63-9.07 2.416-13.605.133-.77.48-1.167 1.241-1.291a12.908 12.908 0 0 1 4.03 0c.68.107.911.438.779 1.15-.993 5.478-1.953 10.957-2.93 16.436-.347 1.945-.67 3.89-1.043 5.826-.116.604.133.679.646.679 2.673-.017 5.346.016 8.02-.025.819-.017 1.083.314 1.058 1.067-.033.969-.165 1.912-.504 2.822-.257.687-.696 1.035-1.498 1.018-2.119-.05-4.246-.016-6.364-.016l-.009.008Zm56.649-29.066c.447.025.993.033 1.522.108.629.091.96.422.836 1.117-1.357 7.614-2.698 15.228-4.047 22.833-.033.174 0 .414-.231.464-.216.041-.323-.174-.456-.298-.926-.87-1.481-1.978-2.044-3.087-1.208-2.408-1.407-4.85-.827-7.506.86-3.915 1.431-7.895 2.127-11.851.231-1.35.513-1.63 1.887-1.73.38-.025.753-.033 1.233-.058v.008ZM24.998 48c13.255 0 24-10.745 24-24s-10.745-24-24-24c-13.254 0-24 10.745-24 24s10.746 24 24 24Z"/>
  <path fill="#0D806E" d="M35.252 15.046c.414 3.326-.695 6.132-2.846 8.648-1.714 2.003-3.278 4.13-4.75 6.323-.663.993-.63 2.052-.828 3.095-.356 1.845-.331 1.87-2.268 1.614a156.98 156.98 0 0 1-4.891-.754c-1.208-.198-1.242-.223-.977-1.555.596-3.03.323-6.033-.256-9.021-.265-1.366-.877-2.623-1.424-3.881-1.208-2.79-.761-5.33.811-7.78 1.258-1.97 3.054-3.351 5.024-4.535.116-.066.232-.124.356-.165.488-.166 1.092-.538 1.481-.182.34.314-.149.835-.298 1.25-.703 1.878-1.58 3.69-2.201 5.602-.199.62-.157 1.134.232 1.663.662.902 1.274 1.846 1.911 2.764.472.68 1.134.985 1.953.969.43 0 .861-.017 1.291-.025 2.318-.066 4.03-.844 4.635-3.36.314-1.3.968-2.508 1.481-3.765.157-.39.24-.96.745-.936.604.025.538.687.596 1.093.14.976.165 1.97.232 2.954l-.009-.016ZM25.23 37.804a1781.57 1781.57 0 0 0-6.563-.736c-.52-.058-.695-.39-.628-.811.057-.39.264-.77.777-.712 2.252.265 4.503.538 6.754.811.455.058.629.422.554.778-.083.422-.34.794-.894.662v.008Zm-6.67-.306c2.243.273 4.37.546 6.497.77.504.058.753.29.711.745-.05.52-.356.81-.943.736-1.606-.199-3.211-.38-4.817-.563-.488-.058-.985-.124-1.473-.157-.538-.041-.943-.265-.852-.836.074-.496.405-.827.885-.695h-.008Zm.678 2.152c1.457-.017 2.823.29 4.196.414.158.016.381.008.356.223-.016.14-.157.282-.281.38-1.184.96-3.65.96-4.27-1.025v.008Z"/>
</svg>