<svg id="Layer_2" xmlns="http://www.w3.org/2000/svg" viewBox="0 0 233.21 58">
  <defs>
    <style>.cls-1{fill:#fff}</style>
  </defs>
  <g id="Layer_1-2">
    <g id="Logo_Outline_-_BG_Dark">
      <g id="Lenyeg">
        <path class="cls-1" d="M223.81 26.56h4.92c1.95 0 2.42.48 2.14 2.43-.36 2.42-.82 4.83-1.25 7.24-.36 2.06-.74 4.11-1.12 6.17-.18 1-.67 1.77-1.67 2.12-5.62 1.98-11.35 2.76-17.16 1.02-5.03-1.51-7.84-5.12-8.26-10.24-.57-7.01 1.47-13.27 6.58-18.29 3.39-3.34 7.59-5.07 12.32-5.48 3.39-.29 6.75-.08 9.98 1.14 2.87 1.07 3.23 1.69 2.75 4.69 0 .03 0 .07-.01.1-.46 2.78-.86 2.92-3.31 1.67-5.16-2.64-10.36-3.1-15.32.44-3.4 2.42-4.96 5.97-5.59 9.99-.26 1.69-.3 3.39.1 5.07 1.11 4.76 5.13 6.27 9.18 6.05 1.11-.06 2.2-.29 3.25-.7.48-.19.74-.46.83-.98.36-2.12.72-4.25 1.14-6.36.13-.65-.06-.79-.67-.78-1.74.03-3.48-.02-5.21.02-.8.02-1.17-.3-1.14-1.09.02-.42 0-.85.07-1.27.41-2.74.65-2.94 3.42-2.94h4.03ZM127.12 20.07c-.3 1.91-.57 3.82-.9 5.73-1.11 6.38-2.24 12.75-3.34 19.13-.15.89-.66 1.29-1.48 1.44-1.2.21-2.4.23-3.61.06-1.38-.2-1.56-.44-1.32-1.77.76-4.29 1.52-8.58 2.29-12.88 1.04-5.86 2.07-11.73 3.13-17.58.32-1.79 1.37-2.61 3.21-2.63 1.31 0 2.61-.01 3.92 0 2.01.02 3.02.69 3.69 2.58 2.04 5.7 4.02 11.41 6.06 17.11 1.45 4.02 3.32 7.85 5.71 11.41.37.56 1.3.91.75 1.88-.56 1-1.32 1.76-2.49 1.82-1.47.08-2.94.08-4.41 0-1.48-.08-2.34-1.09-2.83-2.37-.75-1.94-1.43-3.91-2.11-5.88-1.9-5.54-4.11-10.97-5.7-16.61-.14-.48-.26-.96-.39-1.44a.88.88 0 0 0-.17.02ZM192.02 11.42c2.87 0 5.75.03 8.62-.02.88-.01 1.23.33 1.18 1.17-.03.4 0 .8-.07 1.2-.44 3.04-.63 3.21-3.69 3.21-3.24 0-6.49.01-9.73-.01-.64 0-.92.14-1.03.85-.35 2.3-.75 4.6-1.23 6.88-.17.82.12.86.77.86 3.04-.02 6.08-.01 9.13-.01 1.25 0 1.44.19 1.42 1.46 0 .3-.02.6-.07.9-.53 3.09-.62 3.17-3.74 3.17-2.61 0-5.22.02-7.82-.02-.63 0-.88.2-.98.8-.46 2.72-.93 5.44-1.43 8.16-.13.69.05.91.78.9 3.71-.03 7.42-.02 11.13-.01 1.22 0 1.6.38 1.46 1.56-.12 1.02-.24 2.05-.63 3.02-.28.71-.74 1.1-1.59 1.09-5.68-.03-11.37 0-17.05-.02-1.83 0-2.4-.71-2.08-2.51.93-5.24 1.87-10.48 2.8-15.72.85-4.75 1.7-9.5 2.54-14.25.36-2.03 1.08-2.64 3.18-2.64h8.12ZM103.03 46.59h-8.14c-2.15 0-2.7-.65-2.32-2.76.79-4.4 1.58-8.79 2.36-13.19 1-5.58 2-11.16 3-16.73.34-1.91 1.06-2.51 2.98-2.51h16.78c1.2 0 1.4.19 1.36 1.4-.04 1.07-.28 2.11-.63 3.13-.27.8-.82 1.1-1.69 1.09-3.65-.05-7.3-.02-10.95-.09-.94-.02-1.25.34-1.38 1.21-.33 2.17-.74 4.34-1.16 6.5-.14.69-.03.94.74.93 3.05-.04 6.1-.01 9.14 0 1.25 0 1.52.28 1.48 1.53 0 .1 0 .2-.02.3-.37 3.44-.65 3.69-4.11 3.69-2.38 0-4.76.04-7.13-.02-.93-.02-1.31.17-1.45 1.19-.36 2.64-.86 5.26-1.4 7.87-.15.76.09.81.71.81 3.75-.02 7.5-.01 11.25 0 1.23 0 1.45.25 1.42 1.48a9.254 9.254 0 0 1-.58 3.03c-.31.81-.8 1.19-1.73 1.18-2.85-.05-5.69-.02-8.54-.02ZM163.4 28.82c.48-.95.84-1.64 1.19-2.34 2.24-4.52 4.5-9.03 6.7-13.56.48-1 1.15-1.43 2.23-1.48 1-.04 2-.03 2.99.04 1.61.12 2.01.79 1.28 2.23-1.42 2.78-2.87 5.54-4.31 8.3-3.94 7.56-7.9 15.12-11.82 22.69-.45.88-1.1 1.41-2.03 1.58-1.58.3-3.17.39-4.77.1-1.04-.19-1.24-.55-.76-1.52 1.24-2.53 2.51-5.05 3.78-7.57.34-.68.43-1.32.26-2.09-1.54-6.93-3.03-13.86-4.53-20.79-.08-.39-.13-.79-.17-1.18-.1-.97.39-1.55 1.31-1.67 1.55-.22 3.12-.2 4.69-.05.64.06.98.47 1.09 1.11.85 4.83 1.71 9.66 2.57 14.49.08.47.17.94.31 1.71ZM79.6 46.58h-7.29c-2.2 0-2.71-.64-2.31-2.81.85-4.73 1.69-9.46 2.54-14.19.98-5.48 1.97-10.96 2.92-16.44.16-.93.58-1.41 1.5-1.56 1.63-.25 3.24-.26 4.87 0 .82.13 1.1.53.94 1.39-1.2 6.62-2.36 13.24-3.54 19.86-.42 2.35-.81 4.7-1.26 7.04-.14.73.16.82.78.82 3.23-.02 6.46.02 9.69-.03.99-.02 1.31.38 1.28 1.29-.04 1.17-.2 2.31-.61 3.41-.31.83-.84 1.25-1.81 1.23-2.56-.06-5.13-.02-7.69-.02ZM148.05 11.46c.54.03 1.2.04 1.84.13.76.11 1.16.51 1.01 1.35-1.64 9.2-3.26 18.4-4.89 27.59-.04.21 0 .5-.28.56-.26.05-.39-.21-.55-.36-1.12-1.05-1.79-2.39-2.47-3.73-1.46-2.91-1.7-5.86-1-9.07 1.04-4.73 1.73-9.54 2.57-14.32.28-1.63.62-1.97 2.28-2.09.46-.03.91-.04 1.49-.07Z" />
      </g>
      <path class="cls-1" d="M29 0C12.98 0 0 12.98 0 29s12.98 29 29 29 29-12.98 29-29S45.02 0 29 0Zm-1.8 49.15c-1.43 1.16-4.41 1.16-5.15-1.24 1.76-.02 3.41.35 5.07.5.19.02.46.01.43.27-.02.17-.19.34-.34.46Zm1.59-1.12c-1.94-.24-3.88-.46-5.82-.68-.59-.07-1.19-.15-1.78-.19-.65-.05-1.14-.32-1.03-1.01.09-.6.49-1 1.07-.84 2.71.33 5.28.66 7.85.93.61.07.91.35.86.9-.06.63-.43.98-1.14.89Zm1.58-3.14c-.1.51-.41.96-1.08.8-2.64-.3-5.29-.6-7.93-.89-.63-.07-.84-.47-.76-.98.07-.47.32-.93.94-.86 2.72.32 5.44.65 8.16.98.55.07.76.51.67.94Zm7.58-16.25c-2.07 2.42-3.96 4.99-5.74 7.64-.8 1.2-.76 2.48-1 3.74-.43 2.23-.4 2.26-2.74 1.95-1.98-.27-3.95-.58-5.91-.91-1.46-.24-1.5-.27-1.18-1.88.72-3.66.39-7.29-.31-10.9-.32-1.65-1.06-3.17-1.72-4.69-1.46-3.37-.92-6.44.98-9.4 1.52-2.38 3.69-4.05 6.07-5.48.14-.08.28-.15.43-.2.59-.2 1.32-.65 1.79-.22.41.38-.18 1.01-.36 1.51-.85 2.27-1.91 4.46-2.66 6.77-.24.75-.19 1.37.28 2.01.8 1.09 1.54 2.23 2.31 3.34.57.82 1.37 1.19 2.36 1.17.52 0 1.04-.02 1.56-.03 2.8-.08 4.87-1.02 5.6-4.06.38-1.57 1.17-3.03 1.79-4.55.19-.47.29-1.16.9-1.13.73.03.65.83.72 1.32.17 1.18.2 2.38.28 3.57.5 4.02-.84 7.41-3.44 10.45Z" />
    </g>
  </g>
</svg>