<svg xmlns="http://www.w3.org/2000/svg" fill="none" viewBox="0 0 161 40">
  <path fill="#0D806E" d="M154.352 18.3172h3.393c1.345 0 1.669.3311 1.476 1.6759-.249 1.669-.566 3.331-.862 4.9931-.249 1.4207-.511 2.8345-.773 4.2552-.124.6896-.462 1.2207-1.151 1.4621-3.876 1.3655-7.828 1.9034-11.835.7034-3.469-1.0414-5.407-3.531-5.697-7.0621-.393-4.8344 1.014-9.1517 4.538-12.6138 2.338-2.3034 5.235-3.4965 8.497-3.7793 2.338-.2 4.655-.0551 6.883.7862 1.979.738 2.227 1.1655 1.896 3.2345 0 .0207 0 .0483-.007.069-.317 1.9172-.593 2.0138-2.282 1.1517-3.559-1.8207-7.145-2.1379-10.566.3035-2.345 1.6689-3.421 4.1172-3.855 6.8896-.179 1.1655-.207 2.3379.069 3.4966.765 3.2827 3.538 4.3241 6.331 4.1724.765-.0414 1.517-.2 2.241-.4828.331-.131.511-.3172.573-.6758.248-1.4621.496-2.9311.786-4.3862.09-.4483-.041-.5449-.462-.538-1.2.0207-2.4-.0138-3.593.0138-.552.0138-.807-.2069-.786-.7517.013-.2897 0-.5862.048-.8759.283-1.8896.448-2.0276 2.358-2.0276h2.78v-.0138Zm-66.683-4.476c-.2069 1.3172-.3931 2.6345-.6207 3.9517-.7655 4.4-1.5449 8.7931-2.3035 13.1931-.1034.6138-.4551.8897-1.0207.9931a7.9286 7.9286 0 0 1-2.4896.0414c-.9517-.1379-1.0759-.3034-.9104-1.2207.5242-2.9586 1.0483-5.9172 1.5794-8.8827.7172-4.0414 1.4275-8.0897 2.1586-12.1242.2207-1.2344.9448-1.8 2.2138-1.8138.9034 0 1.8-.0069 2.7034 0 1.3862.0138 2.0828.4759 2.5448 1.7793 1.4069 3.9311 2.7725 7.869 4.1794 11.8 1 2.7725 2.2896 5.4138 3.9379 7.869.2551.3862.8966.6276.5176 1.2966-.3866.6896-.9107 1.2138-1.7176 1.2551a27.9498 27.9498 0 0 1-3.0414 0c-1.0207-.0551-1.6138-.7517-1.9517-1.6344-.5173-1.338-.9862-2.6966-1.4552-4.0552-1.3103-3.8207-2.8345-7.5655-3.931-11.4552-.0966-.331-.1793-.6621-.269-.9931l-.1172.0138-.0069-.0138Zm44.759-5.9654c1.979 0 3.965.0206 5.944-.0138.607-.007.849.2275.814.8069-.02.2758 0 .5517-.048.8275-.304 2.0966-.435 2.2138-2.545 2.2138-2.234 0-4.476.0069-6.71-.0069-.442 0-.635.0966-.711.5863-.241 1.5862-.517 3.1724-.848 4.7448-.117.5655.083.5931.531.5931 2.097-.0138 4.193-.0069 6.297-.0069.862 0 .993.131.979 1.0069 0 .2069-.014.4138-.048.6207-.366 2.131-.428 2.1862-2.58 2.1862-1.8 0-3.6.0138-5.393-.0138-.434 0-.607.1379-.676.5517-.317 1.8759-.641 3.7517-.986 5.6276-.089.4759.035.6276.538.6207 2.559-.0207 5.117-.0138 7.676-.0069.841 0 1.104.2621 1.007 1.0759-.083.7034-.166 1.4137-.435 2.0827-.193.4897-.51.7586-1.096.7517-3.917-.0207-7.841 0-11.759-.0138-1.262 0-1.655-.4896-1.434-1.731.641-3.6138 1.289-7.2276 1.931-10.8414.586-3.2758 1.172-6.5517 1.752-9.8276.248-1.4.744-1.8207 2.193-1.8207h5.6l.007-.0137ZM71.0552 32.131h-5.6138c-1.4828 0-1.8621-.4483-1.6-1.9034.5448-3.0345 1.0897-6.0621 1.6276-9.0966.6896-3.8483 1.3793-7.6965 2.069-11.538.2344-1.3171.731-1.731 2.0551-1.731h11.5724c.8276 0 .9656.1311.938.9656-.0276.738-.1931 1.4552-.4345 2.1586-.1862.5517-.5655.7586-1.1655.7517-2.5173-.0345-5.0345-.0138-7.5518-.062-.6482-.0138-.862.2344-.9517.8344-.2276 1.4966-.5103 2.9931-.8 4.4828-.0965.4759-.0207.6483.5104.6414 2.1034-.0276 4.2069-.0069 6.3034 0 .8621 0 1.0483.1931 1.0207 1.0551 0 .069 0 .138-.0138.2069-.2552 2.3725-.4483 2.5449-2.8345 2.5449-1.6414 0-3.2827.0276-4.9172-.0138-.6414-.0138-.9035.1172-1 .8207-.2483 1.8207-.5931 3.6276-.9655 5.4276-.1035.5241.062.5586.4896.5586 2.5862-.0138 5.1724-.0069 7.7586 0 .8483 0 1 .1724.9794 1.0207-.0207.7172-.1449 1.4138-.4 2.0896-.2138.5586-.5518.8207-1.1931.8138-1.9656-.0345-3.9242-.0138-5.8897-.0138l.0069-.0138ZM112.69 19.8759c.331-.6552.579-1.131.82-1.6138 1.545-3.1172 3.104-6.2276 4.621-9.3517.331-.6897.793-.9862 1.538-1.0207.69-.0276 1.379-.0207 2.062.0276 1.11.0827 1.386.5448.883 1.538-.98 1.9172-1.98 3.8206-2.973 5.7241-2.717 5.2138-5.448 10.4275-8.151 15.6482-.311.6069-.759.9724-1.4 1.0897-1.09.2069-2.187.269-3.29.069-.717-.1311-.855-.3794-.524-1.0483.855-1.7448 1.731-3.4828 2.607-5.2207.234-.469.296-.9104.179-1.4414-1.062-4.7793-2.09-9.5586-3.124-14.338-.055-.2689-.09-.5448-.117-.8137-.069-.669.269-1.069.903-1.1517 1.069-.1518 2.152-.138 3.235-.0345.441.0414.675.3241.751.7655.587 3.331 1.18 6.6621 1.773 9.9931.055.3241.117.6483.214 1.1793h-.007ZM54.8966 32.1241H49.869c-1.5173 0-1.869-.4414-1.5931-1.9379.5862-3.2621 1.1655-6.5242 1.7517-9.7862.6759-3.7794 1.3586-7.5587 2.0138-11.338.1103-.6414.4-.9724 1.0345-1.0758 1.1241-.1725 2.2345-.1794 3.3586 0 .5655.0896.7586.3655.6483.9586-.8276 4.5655-1.6276 9.131-2.4414 13.6965-.2896 1.6207-.5586 3.2414-.869 4.8552-.0965.5035.1104.5655.538.5655 2.2276-.0138 4.4551.0138 6.6827-.0207.6828-.0138.9035.2621.8828.8897-.0276.8069-.1379 1.5931-.4207 2.3517-.2138.5724-.5793.8621-1.2483.8483-1.7655-.0414-3.5379-.0138-5.3034-.0138l-.0069.0069ZM102.103 7.9034c.373.0207.828.0276 1.269.0896.525.0759.8.3518.697.931-1.131 6.3449-2.248 12.6897-3.372 19.0277-.028.1448 0 .3448-.194.3862-.179.0344-.269-.1449-.379-.2483-.7723-.7241-1.2343-1.6483-1.7033-2.5724-1.0069-2.0069-1.1724-4.0414-.6897-6.2552.7173-3.2621 1.1931-6.5793 1.7725-9.8759.1931-1.1241.4275-1.3586 1.5725-1.4413.317-.0207.627-.0276 1.027-.0483v.0069ZM20 40c11.0457 0 20-8.9543 20-20S31.0457 0 20 0 0 8.9543 0 20s8.9543 20 20 20Z"/>
  <path fill="#fff" d="M28.5448 12.5379c.3449 2.7724-.5793 5.1103-2.3724 7.2069-1.4276 1.6689-2.731 3.4413-3.9586 5.2689-.5517.8276-.5241 1.7104-.6897 2.5793-.2965 1.538-.2758 1.5587-1.8896 1.3449-1.3655-.1862-2.7242-.4-4.0759-.6276-1.0069-.1655-1.0345-.1862-.8138-1.2966.4966-2.5241.269-5.0276-.2138-7.5172-.2207-1.138-.731-2.1862-1.1862-3.2345-1.0069-2.3241-.6345-4.4414.6759-6.4828C15.069 8.138 16.5655 6.9862 18.2069 6c.0966-.0552.1931-.1034.2966-.138.4068-.1378.9103-.4482 1.2344-.1516.2828.262-.1241.6965-.2482 1.0413-.5862 1.5656-1.3173 3.076-1.8345 4.669-.1655.5173-.1311.9448.1931 1.3862.5517.7517 1.0621 1.538 1.5931 2.3035.3931.5655.9448.8207 1.6276.8069.3586 0 .7172-.0138 1.0758-.0207 1.9311-.0552 3.3587-.7035 3.8621-2.8.2621-1.0828.8069-2.0897 1.2345-3.138.131-.324.2-.8.6207-.7793.5034.0207.4482.5724.4965.9104.1173.8138.138 1.6414.1931 2.4621l-.0069-.0138Zm-8.3517 18.9655c-1.8207-.2069-3.6483-.4138-5.469-.6138-.4344-.0483-.5793-.3242-.5241-.6759.0483-.3241.2207-.6414.6483-.5931 1.8758.2207 3.7517.4483 5.6276.6759.3793.0483.5241.3517.462.6483-.0689.3517-.2827.662-.7448.5517v.0069Zm-5.5586-.2551c1.8689.2276 3.6414.4552 5.4138.6414.4207.0483.6276.2414.5931.6207-.0414.4345-.2966.6758-.7862.6138-1.338-.1656-2.6759-.3173-4.0138-.469-.4069-.0483-.8207-.1035-1.2276-.131-.4483-.0345-.7862-.2207-.7104-.6966.0621-.4138.338-.6896.738-.5793h-.0069Zm.5655 1.793c1.2138-.0138 2.3517.2414 3.4966.3448.131.0138.3172.0069.2965.1863-.0138.1172-.131.2344-.2345.3172-.9862.8-3.0413.8-3.5586-.8552v.0069Z"/>
</svg>