<svg id="Layer_2" xmlns="http://www.w3.org/2000/svg" viewBox="0 0 60.72 60.72">
  <defs>
    <style>.cls-1{fill:#fff}</style>
  </defs>
  <g id="Layer_1-2">
    <g id="Icon_-_BG_Light">
      <circle cx="30.36" cy="30.36" r="30.36" style="fill:#0d806e" />
      <path class="cls-1" d="M43.33 19.04c.52 4.21-.88 7.76-3.6 10.94-2.17 2.53-4.15 5.22-6.01 8-.84 1.25-.8 2.6-1.05 3.92-.45 2.34-.41 2.37-2.86 2.04-2.07-.28-4.13-.61-6.19-.95-1.53-.25-1.57-.29-1.24-1.97.76-3.83.41-7.63-.32-11.42-.34-1.73-1.11-3.32-1.8-4.91-1.53-3.53-.96-6.74 1.03-9.85 1.59-2.49 3.86-4.24 6.35-5.74.14-.09.3-.16.45-.21.62-.21 1.39-.68 1.87-.23.43.39-.19 1.06-.38 1.58-.89 2.38-2 4.67-2.78 7.09-.26.79-.2 1.43.29 2.1.84 1.14 1.61 2.33 2.42 3.49.6.85 1.43 1.24 2.47 1.23.54 0 1.09-.02 1.63-.03 2.93-.08 5.1-1.07 5.86-4.25.39-1.64 1.23-3.18 1.87-4.76.2-.49.31-1.21.94-1.19.77.04.68.87.75 1.38.17 1.23.21 2.49.29 3.74ZM30.66 47.83c-2.77-.31-5.53-.63-8.3-.93-.66-.07-.88-.49-.8-1.02.08-.49.34-.97.99-.9 2.85.33 5.7.68 8.54 1.03.58.07.8.53.7.99-.11.53-.43 1.01-1.13.84ZM22.21 47.43c2.83.34 5.53.69 8.22.98.64.07.95.37.9.94-.06.66-.45 1.02-1.2.93-2.03-.25-4.06-.48-6.09-.71-.62-.07-1.24-.15-1.87-.2-.68-.05-1.19-.33-1.08-1.06.09-.63.51-1.05 1.12-.88ZM23.08 50.16c1.85-.02 3.57.36 5.31.53.2.02.48.01.45.29-.02.17-.2.36-.35.48-1.5 1.22-4.62 1.22-5.4-1.3Z" />
    </g>
  </g>
</svg>